  0
SECTION
  2
HEADER
  9
$ACADVER
  1
AC1015
  9
$ACADMAINTVER
 70
     6
  9
$DWGCODEPAGE
  3
ANSI_1252
  9
$INSBASE
 10
0.0
 20
0.0
 30
0.0
  9
$EXTMIN
 10
0.0
 20
0.0
 30
0.0
  9
$EXTMAX
 10
1189.0
 20
841.0
 30
0.0
  9
$LIMMIN
 10
0.0
 20
0.0
  9
$LIMMAX
 10
1189.0
 20
841.0
  9
$ORTHOMODE
 70
     0
  9
$REGENMODE
 70
     1
  9
$FILLMODE
 70
     1
  9
$QTEXTMODE
 70
     0
  9
$MIRRTEXT
 70
     1
  9
$LTSCALE
 40
1.0
  9
$ATTMODE
 70
     1
  9
$TEXTSIZE
 40
3.5
  9
$TRACEWID
 40
1.0
  9
$TEXTSTYLE
  7
Standard
  9
$CLAYER
  8
0
  9
$CELTYPE
  6
ByLayer
  9
$CECOLOR
 62
   256
  9
$CELTSCALE
 40
1.0
  9
$DISPSILH
 70
     0
  9
$DIMSCALE
 40
1.0
  9
$DIMASZ
 40
3.302
  9
$DIMEXO
 40
1.0
  9
$DIMDLI
 40
3.75
  9
$DIMRND
 40
0.0
  9
$DIMDLE
 40
0.0
  9
$DIMEXE
 40
1.0
  9
$DIMTP
 40
0.0
  9
$DIMTM
 40
0.0
  9
$DIMTXT
 40
3.5
  9
$DIMCEN
 40
2.5
  9
$DIMTSZ
 40
0.0
  9
$DIMTOL
 70
     0
  9
$DIMLIM
 70
     0
  9
$DIMTIH
 70
     1
  9
$DIMTOH
 70
     1
  9
$DIMSE1
 70
     0
  9
$DIMSE2
 70
     0
  9
$DIMTAD
 70
     1
  9
$DIMZIN
 70
     0
  9
$DIMBLK
  1

  9
$DIMASO
 70
     1
  9
$DIMSHO
 70
     1
  9
$DIMPOST
  1

  9
$DIMAPOST
  1

  9
$DIMALT
 70
     0
  9
$DIMALTD
 70
     3
  9
$DIMALTF
 40
0.0393700787
  9
$DIMLFAC
 40
0.5
  9
$DIMTOFL
 70
     1
  9
$DIMTVP
 40
0.0
  9
$DIMTIX
 70
     0
  9
$DIMSOXD
 70
     0
  9
$DIMSAH
 70
     0
  9
$DIMBLK1
  1

  9
$DIMBLK2
  1

  9
$DIMSTYLE
  2
ISO-25
  9
$DIMCLRD
 70
     0
  9
$DIMCLRE
 70
     0
  9
$DIMCLRT
 70
     0
  9
$DIMTFAC
 40
1.0
  9
$DIMGAP
 40
1.524
  9
$DIMJUST
 70
     0
  9
$DIMSD1
 70
     0
  9
$DIMSD2
 70
     0
  9
$DIMTOLJ
 70
     0
  9
$DIMTZIN
 70
     0
  9
$DIMALTZ
 70
     0
  9
$DIMALTTZ
 70
     0
  9
$DIMUPT
 70
     0
  9
$DIMDEC
 70
     2
  9
$DIMTDEC
 70
     2
  9
$DIMALTU
 70
     2
  9
$DIMALTTD
 70
     3
  9
$DIMTXSTY
  7
Standard
  9
$DIMAUNIT
 70
     0
  9
$DIMADEC
 70
     2
  9
$DIMALTRND
 40
0.0
  9
$DIMAZIN
 70
     0
  9
$DIMDSEP
 70
    44
  9
$DIMATFIT
 70
     3
  9
$DIMFRAC
 70
     0
  9
$DIMLDRBLK
  1

  9
$DIMLUNIT
 70
     2
  9
$DIMLWD
 70
    -2
  9
$DIMLWE
 70
    -2
  9
$DIMTMOVE
 70
     0
  9
$LUNITS
 70
     2
  9
$LUPREC
 70
     2
  9
$SKETCHINC
 40
1.0
  9
$FILLETRAD
 40
10.0
  9
$AUNITS
 70
     0
  9
$AUPREC
 70
     2
  9
$MENU
  1
.
  9
$ELEVATION
 40
0.0
  9
$PELEVATION
 40
0.0
  9
$THICKNESS
 40
0.0
  9
$LIMCHECK
 70
     0
  9
$CHAMFERA
 40
0.0
  9
$CHAMFERB
 40
0.0
  9
$CHAMFERC
 40
0.0
  9
$CHAMFERD
 40
0.0
  9
$SKPOLY
 70
     0
  9
$TDCREATE
 40
2460291.62456066
  9
$TDUCREATE
 40
2460291.582893993
  9
$TDUPDATE
 40
2460291.624569317
  9
$TDUUPDATE
 40
2460291.58290265
  9
$TDINDWG
 40
0.0000000116
  9
$TDUSRTIMER
 40
0.0000000116
  9
$USRTIMER
 70
     1
  9
$ANGBASE
 50
0.0
  9
$ANGDIR
 70
     0
  9
$PDMODE
 70
     0
  9
$PDSIZE
 40
-1.0
  9
$PLINEWID
 40
0.0
  9
$SPLFRAME
 70
     0
  9
$SPLINETYPE
 70
     6
  9
$SPLINESEGS
 70
     8
  9
$HANDSEED
  5
29F
  9
$SURFTAB1
 70
     6
  9
$SURFTAB2
 70
     6
  9
$SURFTYPE
 70
     6
  9
$SURFU
 70
     6
  9
$SURFV
 70
     6
  9
$UCSBASE
  2

  9
$UCSNAME
  2

  9
$UCSORG
 10
0.0
 20
0.0
 30
0.0
  9
$UCSXDIR
 10
1.0
 20
0.0
 30
0.0
  9
$UCSYDIR
 10
0.0
 20
1.0
 30
0.0
  9
$UCSORTHOREF
  2

  9
$UCSORTHOVIEW
 70
     0
  9
$UCSORGTOP
 10
0.0
 20
0.0
 30
0.0
  9
$UCSORGBOTTOM
 10
0.0
 20
0.0
 30
0.0
  9
$UCSORGLEFT
 10
0.0
 20
0.0
 30
0.0
  9
$UCSORGRIGHT
 10
0.0
 20
0.0
 30
0.0
  9
$UCSORGFRONT
 10
0.0
 20
0.0
 30
0.0
  9
$UCSORGBACK
 10
0.0
 20
0.0
 30
0.0
  9
$PUCSBASE
  2

  9
$PUCSNAME
  2

  9
$PUCSORG
 10
0.0
 20
0.0
 30
0.0
  9
$PUCSXDIR
 10
1.0
 20
0.0
 30
0.0
  9
$PUCSYDIR
 10
0.0
 20
1.0
 30
0.0
  9
$PUCSORTHOREF
  2

  9
$PUCSORTHOVIEW
 70
     0
  9
$PUCSORGTOP
 10
0.0
 20
0.0
 30
0.0
  9
$PUCSORGBOTTOM
 10
0.0
 20
0.0
 30
0.0
  9
$PUCSORGLEFT
 10
0.0
 20
0.0
 30
0.0
  9
$PUCSORGRIGHT
 10
0.0
 20
0.0
 30
0.0
  9
$PUCSORGFRONT
 10
0.0
 20
0.0
 30
0.0
  9
$PUCSORGBACK
 10
0.0
 20
0.0
 30
0.0
  9
$USERI1
 70
     0
  9
$USERI2
 70
     0
  9
$USERI3
 70
     0
  9
$USERI4
 70
     0
  9
$USERI5
 70
     0
  9
$USERR1
 40
0.0
  9
$USERR2
 40
0.0
  9
$USERR3
 40
0.0
  9
$USERR4
 40
0.0
  9
$USERR5
 40
0.0
  9
$WORLDVIEW
 70
     1
  9
$SHADEDGE
 70
     3
  9
$SHADEDIF
 70
    70
  9
$TILEMODE
 70
     1
  9
$MAXACTVP
 70
    64
  9
$PINSBASE
 10
0.0
 20
0.0
 30
0.0
  9
$PLIMCHECK
 70
     0
  9
$PEXTMIN
 10
1.0000000000E+20
 20
1.0000000000E+20
 30
1.0000000000E+20
  9
$PEXTMAX
 10
-1.0000000000E+20
 20
-1.0000000000E+20
 30
-1.0000000000E+20
  9
$PLIMMIN
 10
0.0
 20
0.0
  9
$PLIMMAX
 10
420.0
 20
297.0
  9
$UNITMODE
 70
     0
  9
$VISRETAIN
 70
     1
  9
$PLINEGEN
 70
     0
  9
$PSLTSCALE
 70
     1
  9
$TREEDEPTH
 70
  3020
  9
$CMLSTYLE
  2
Standard
  9
$CMLJUST
 70
     0
  9
$CMLSCALE
 40
20.0
  9
$PROXYGRAPHICS
 70
     1
  9
$MEASUREMENT
 70
     1
  9
$CELWEIGHT
370
    -1
  9
$ENDCAPS
280
     0
  9
$JOINSTYLE
280
     0
  9
$LWDISPLAY
290
     1
  9
$INSUNITS
 70
     4
  9
$HYPERLINKBASE
  1

  9
$STYLESHEET
  1

  9
$XEDIT
290
     1
  9
$CEPSNTYPE
380
     0
  9
$PSTYLEMODE
290
     1
  9
$FINGERPRINTGUID
  2
{3F38B4DE-F5CF-4EA8-90ED-C9EDF53BBF4B}
  9
$VERSIONGUID
  2
{FAEB1C32-E019-11D5-929B-00C0DF256EC4}
  9
$EXTNAMES
290
     1
  9
$PSVPSCALE
 40
0.0
  9
$OLESTARTUP
290
     0
  0
ENDSEC
  0
SECTION
  2
CLASSES
  0
CLASS
  1
ACDBDICTIONARYWDFLT
  2
AcDbDictionaryWithDefault
  3
ObjectDBX Classes
 90
        0
280
     0
281
     0
  0
CLASS
  1
VISUALSTYLE
  2
AcDbVisualStyle
  3
ObjectDBX Classes
 90
     4095
280
     0
281
     0
  0
CLASS
  1
MATERIAL
  2
AcDbMaterial
  3
ObjectDBX Classes
 90
     1153
280
     0
281
     0
  0
CLASS
  1
SCALE
  2
AcDbScale
  3
ObjectDBX Classes
 90
     1153
280
     0
281
     0
  0
CLASS
  1
TABLESTYLE
  2
AcDbTableStyle
  3
ObjectDBX Classes
 90
     4095
280
     0
281
     0
  0
CLASS
  1
MLEADERSTYLE
  2
AcDbMLeaderStyle
  3
ACDB_MLEADERSTYLE_CLASS
 90
     4095
280
     0
281
     0
  0
CLASS
  1
SUN
  2
AcDbSun
  3
SCENEOE
 90
     1153
280
     0
281
     0
  0
CLASS
  1
ACDBPLACEHOLDER
  2
AcDbPlaceHolder
  3
ObjectDBX Classes
 90
        0
280
     0
281
     0
  0
CLASS
  1
LAYOUT
  2
AcDbLayout
  3
ObjectDBX Classes
 90
        0
280
     0
281
     0
  0
ENDSEC
  0
SECTION
  2
TABLES
  0
TABLE
  2
VPORT
  5
8
330
0
100
AcDbSymbolTable
 70
     1
  0
VPORT
  5
29
330
8
100
AcDbSymbolTableRecord
100
AcDbViewportTableRecord
  2
*Active
 70
     0
 10
0.0
 20
0.0
 11
1.0
 21
1.0
 12
594.5
 22
420.5
 13
0.0
 23
0.0
 14
10.0
 24
10.0
 15
10.0
 25
10.0
 16
0.0
 26
0.0
 36
1.0
 17
0.0
 27
0.0
 37
0.0
 40
841.0
 41
1.4137931034
 42
50.0
 43
0.0
 44
0.0
 50
0.0
 51
0.0
 71
     0
 72
  2000
 73
     1
 74
     3
 75
     0
 76
     0
 77
     0
 78
     0
281
     0
 65
     1
110
0.0
120
0.0
130
0.0
111
1.0
121
0.0
131
0.0
112
0.0
122
1.0
132
0.0
 79
     0
146
0.0
  0
ENDTAB
  0
TABLE
  2
LTYPE
  5
5
330
0
100
AcDbSymbolTable
 70
     6
  0
LTYPE
  5
14
330
5
100
AcDbSymbolTableRecord
100
AcDbLinetypeTableRecord
  2
ByBlock
 70
     0
  3

 72
    65
 73
     0
 40
0.0
  0
LTYPE
  5
15
330
5
100
AcDbSymbolTableRecord
100
AcDbLinetypeTableRecord
  2
ByLayer
 70
     0
  3

 72
    65
 73
     0
 40
0.0
  0
LTYPE
  5
16
330
5
100
AcDbSymbolTableRecord
100
AcDbLinetypeTableRecord
  2
Continuous
 70
     0
  3
Solid line
 72
    65
 73
     0
 40
0.0
  0
LTYPE
  5
6E
330
5
100
AcDbSymbolTableRecord
100
AcDbLinetypeTableRecord
  2
HIDDEN
 70
     0
  3
Hidden __ __ __ __ __ __ __ __ __ __ __ __ __ __
 72
    65
 73
     2
 40
1.905
 49
1.27
 74
     0
 49
-0.635
 74
     0
  0
LTYPE
  5
6F
330
5
100
AcDbSymbolTableRecord
100
AcDbLinetypeTableRecord
  2
PHANTOM
 70
     0
  3
Phantom ______  __  __  ______  __  __  ______
 72
    65
 73
     6
 40
12.7
 49
6.35
 74
     0
 49
-1.27
 74
     0
 49
1.27
 74
     0
 49
-1.27
 74
     0
 49
1.27
 74
     0
 49
-1.27
 74
     0
  0
LTYPE
  5
70
330
5
100
AcDbSymbolTableRecord
100
AcDbLinetypeTableRecord
  2
CENTER
 70
     0
  3
Center ____ _ ____ _ ____ _ ____ _ ____ _ ____
 72
    65
 73
     4
 40
10.16
 49
6.35
 74
     0
 49
-1.27
 74
     0
 49
1.27
 74
     0
 49
-1.27
 74
     0
  0
LTYPE
  5
71
330
5
100
AcDbSymbolTableRecord
100
AcDbLinetypeTableRecord
  2
CENTERX2
 70
     0
  3
Center (2x) ________  __  ________  __  _____
 72
    65
 73
     4
 40
20.32
 49
12.7
 74
     0
 49
-2.54
 74
     0
 49
2.54
 74
     0
 49
-2.54
 74
     0
  0
LTYPE
  5
72
330
5
100
AcDbSymbolTableRecord
100
AcDbLinetypeTableRecord
  2
DOT2
 70
     0
  3
Dot (.5x) ........................................
 72
    65
 73
     2
 40
0.635
 49
0.0
 74
     0
 49
-0.635
 74
     0
  0
ENDTAB
  0
TABLE
  2
LAYER
  5
2
330
0
100
AcDbSymbolTable
 70
     2
  0
LAYER
  5
10
330
2
100
AcDbSymbolTableRecord
100
AcDbLayerTableRecord
  2
0
 70
     0
 62
     7
  6
Continuous
370
    -3
390
F
  0
LAYER
  5
73
330
2
100
AcDbSymbolTableRecord
100
AcDbLayerTableRecord
  2
FORMAT
 70
     0
 62
     7
  6
Continuous
370
    -3
390
F
  0
ENDTAB
  0
TABLE
  2
STYLE
  5
3
330
0
100
AcDbSymbolTable
 70
     4
  0
STYLE
  5
11
330
3
100
AcDbSymbolTableRecord
100
AcDbTextStyleTableRecord
  2
Standard
 70
     0
 40
0.0
 41
1.0
 50
0.0
 71
     0
 42
3.5
  3
txt
  4

  0
STYLE
  5
E5
330
3
100
AcDbSymbolTableRecord
100
AcDbTextStyleTableRecord
  2
SLDTEXTSTYLE0
 70
     0
 40
0.0
 41
0.75
 50
0.0
 71
     0
 42
3.5
  3
TXT
  4

  0
STYLE
  5
136
330
3
100
AcDbSymbolTableRecord
100
AcDbTextStyleTableRecord
  2
SLDTEXTSTYLE1
 70
     0
 40
0.0
 41
0.6864493306
 50
0.0
 71
     0
 42
3.5
  3
TXT
  4

  0
STYLE
  5
157
330
3
100
AcDbSymbolTableRecord
100
AcDbTextStyleTableRecord
  2
SLDTEXTSTYLE2
 70
     0
 40
0.0
 41
0.6875
 50
0.0
 71
     0
 42
3.5
  3
TXT
  4

  0
ENDTAB
  0
TABLE
  2
VIEW
  5
6
330
0
100
AcDbSymbolTable
 70
     0
  0
ENDTAB
  0
TABLE
  2
UCS
  5
7
330
0
100
AcDbSymbolTable
 70
     0
  0
ENDTAB
  0
TABLE
  2
APPID
  5
9
330
0
100
AcDbSymbolTable
 70
     1
  0
APPID
  5
12
330
9
100
AcDbSymbolTableRecord
100
AcDbRegAppTableRecord
  2
ACAD
 70
     0
  0
ENDTAB
  0
TABLE
  2
DIMSTYLE
  5
A
330
0
100
AcDbSymbolTable
 70
     1
100
AcDbDimStyleTable
  0
DIMSTYLE
105
27
330
A
100
AcDbSymbolTableRecord
100
AcDbDimStyleTableRecord
  2
ISO-25
 70
     0
 41
2.5
 42
0.625
 43
3.75
 44
1.25
 73
     0
 74
     0
 77
     1
 78
     8
140
2.5
141
2.5
143
0.0393700787
147
0.625
171
     3
172
     1
178
     0
271
     2
272
     2
274
     3
278
    44
283
     0
284
     8
340
11
  0
ENDTAB
  0
TABLE
  2
BLOCK_RECORD
  5
1
330
0
100
AcDbSymbolTable
 70
     6
  0
BLOCK_RECORD
  5
1F
330
1
100
AcDbSymbolTableRecord
100
AcDbBlockTableRecord
  2
*Model_Space
340
22
  0
BLOCK_RECORD
  5
1B
330
1
100
AcDbSymbolTableRecord
100
AcDbBlockTableRecord
  2
*Paper_Space
340
1E
  0
BLOCK_RECORD
  5
23
330
1
100
AcDbSymbolTableRecord
100
AcDbBlockTableRecord
  2
*Paper_Space0
340
26
  0
BLOCK_RECORD
  5
13C
330
1
100
AcDbSymbolTableRecord
100
AcDbBlockTableRecord
  2
SW_NOTE_0
340
0
102
{BLKREFS
331
145
102
}
  0
BLOCK_RECORD
  5
147
330
1
100
AcDbSymbolTableRecord
100
AcDbBlockTableRecord
  2
SW_NOTE_1
340
0
102
{BLKREFS
331
14D
102
}
  0
BLOCK_RECORD
  5
1C3
330
1
100
AcDbSymbolTableRecord
100
AcDbBlockTableRecord
  2
SW_CENTERMARKSYMBOL_0
340
0
102
{BLKREFS
331
1CE
102
}
  0
BLOCK_RECORD
  5
1CF
330
1
100
AcDbSymbolTableRecord
100
AcDbBlockTableRecord
  2
SW_CENTERMARKSYMBOL_1
340
0
102
{BLKREFS
331
1DA
102
}
  0
BLOCK_RECORD
  5
1DB
330
1
100
AcDbSymbolTableRecord
100
AcDbBlockTableRecord
  2
SW_CENTERMARKSYMBOL_2
340
0
102
{BLKREFS
331
1E6
102
}
  0
ENDTAB
  0
ENDSEC
  0
SECTION
  2
BLOCKS
  0
BLOCK
  5
20
330
1F
100
AcDbEntity
  8
0
100
AcDbBlockBegin
  2
*Model_Space
 70
     0
 10
0.0
 20
0.0
 30
0.0
  3
*Model_Space
  1

  0
ENDBLK
  5
21
330
1F
100
AcDbEntity
  8
0
100
AcDbBlockEnd
  0
BLOCK
  5
1C
330
1B
100
AcDbEntity
 67
     1
  8
0
100
AcDbBlockBegin
  2
*Paper_Space
 70
     0
 10
0.0
 20
0.0
 30
0.0
  3
*Paper_Space
  1

  0
ENDBLK
  5
1D
330
1B
100
AcDbEntity
 67
     1
  8
0
100
AcDbBlockEnd
  0
BLOCK
  5
24
330
23
100
AcDbEntity
  8
0
100
AcDbBlockBegin
  2
*Paper_Space0
 70
     0
 10
0.0
 20
0.0
 30
0.0
  3
*Paper_Space0
  1

  0
ENDBLK
  5
25
330
23
100
AcDbEntity
  8
0
100
AcDbBlockEnd
  0
BLOCK
  5
13D
330
13C
100
AcDbEntity
  8
0
100
AcDbBlockBegin
  2
SW_NOTE_0
 70
     0
 10
0.0
 20
0.0
 30
0.0
  3
SW_NOTE_0
  1

  0
MTEXT
  5
13F
330
13C
100
AcDbEntity
  8
0
  6
Continuous
 62
     0
370
     0
100
AcDbMText
 10
0.0
 20
1.9336016097
 30
0.0
 40
1.5
 41
0.0
 71
     1
 72
     1
  1
UNLESS OTHERWISE SPECIFIED:
  7
SLDTEXTSTYLE0
 73
     1
 44
1.0
  0
MTEXT
  5
140
330
13C
100
AcDbEntity
  8
0
  6
Continuous
 62
     0
370
     0
100
AcDbMText
 10
0.0
 20
-0.5663983345
 30
0.0
 40
1.5
 41
0.0
 71
     1
 72
     1
  1
DIMENSIONS ARE IN MILLIMETERS
  7
SLDTEXTSTYLE0
 73
     1
 44
1.0
  0
MTEXT
  5
141
330
13C
100
AcDbEntity
  8
0
  6
Continuous
 62
     0
370
     0
100
AcDbMText
 10
0.0
 20
-3.0663982786
 30
0.0
 40
1.5
 41
0.0
 71
     1
 72
     1
  1
SURFACE FINISH:
  7
SLDTEXTSTYLE0
 73
     1
 44
1.0
  0
MTEXT
  5
142
330
13C
100
AcDbEntity
  8
0
  6
Continuous
 62
     0
370
     0
100
AcDbMText
 10
0.0
 20
-5.5663982227
 30
0.0
 40
1.5
 41
0.0
 71
     1
 72
     1
  1
TOLERANCES:
  7
SLDTEXTSTYLE0
 73
     1
 44
1.0
  0
MTEXT
  5
143
330
13C
100
AcDbEntity
  8
0
  6
Continuous
 62
     0
370
     0
100
AcDbMText
 10
1.6875
 20
-8.0663981668
 30
0.0
 40
1.5
 41
0.0
 71
     1
 72
     1
  1
LINEAR:
  7
SLDTEXTSTYLE0
 73
     1
 44
1.0
  0
MTEXT
  5
144
330
13C
100
AcDbEntity
  8
0
  6
Continuous
 62
     0
370
     0
100
AcDbMText
 10
1.6875
 20
-10.5663981109
 30
0.0
 40
1.5
 41
0.0
 71
     1
 72
     1
  1
ANGULAR:
  7
SLDTEXTSTYLE0
 73
     1
 44
1.0
  0
ENDBLK
  5
13E
330
13C
100
AcDbEntity
  8
0
100
AcDbBlockEnd
  0
BLOCK
  5
148
330
147
100
AcDbEntity
  8
0
100
AcDbBlockBegin
  2
SW_NOTE_1
 70
     0
 10
0.0
 20
0.0
 30
0.0
  3
SW_NOTE_1
  1

  0
MTEXT
  5
14A
330
147
100
AcDbEntity
  8
0
  6
Continuous
 62
     0
370
     0
100
AcDbMText
 10
0.0
 20
1.9336016097
 30
0.0
 40
1.5
 41
0.0
 71
     1
 72
     1
  1
DEBURR AND
  7
SLDTEXTSTYLE0
 73
     1
 44
1.0
  0
MTEXT
  5
14B
330
147
100
AcDbEntity
  8
0
  6
Continuous
 62
     0
370
     0
100
AcDbMText
 10
0.0
 20
-0.5663983345
 30
0.0
 40
1.5
 41
0.0
 71
     1
 72
     1
  1
BREAK SHARP
  7
SLDTEXTSTYLE0
 73
     1
 44
1.0
  0
MTEXT
  5
14C
330
147
100
AcDbEntity
  8
0
  6
Continuous
 62
     0
370
     0
100
AcDbMText
 10
0.0
 20
-3.0663982786
 30
0.0
 40
1.5
 41
0.0
 71
     1
 72
     1
  1
EDGES
  7
SLDTEXTSTYLE0
 73
     1
 44
1.0
  0
ENDBLK
  5
149
330
147
100
AcDbEntity
  8
0
100
AcDbBlockEnd
  0
BLOCK
  5
1C4
330
1C3
100
AcDbEntity
  8
0
100
AcDbBlockBegin
  2
SW_CENTERMARKSYMBOL_0
 70
     0
 10
0.0
 20
0.0
 30
0.0
  3
SW_CENTERMARKSYMBOL_0
  1

  0
LINE
  5
1C6
330
1C3
100
AcDbEntity
  8
0
  6
Continuous
 62
     0
370
     0
100
AcDbLine
 10
0.0
 20
0.0
 30
0.0
 11
0.0
 21
5.0
 31
0.0
  0
LINE
  5
1C7
330
1C3
100
AcDbEntity
  8
0
  6
Continuous
 62
     0
370
     0
100
AcDbLine
 10
0.0
 20
0.0
 30
0.0
 11
-5.0
 21
0.0
 31
0.0
  0
LINE
  5
1C8
330
1C3
100
AcDbEntity
  8
0
  6
Continuous
 62
     0
370
     0
100
AcDbLine
 10
0.0
 20
0.0
 30
0.0
 11
0.0
 21
-5.0
 31
0.0
  0
LINE
  5
1C9
330
1C3
100
AcDbEntity
  8
0
  6
Continuous
 62
     0
370
     0
100
AcDbLine
 10
0.0
 20
0.0
 30
0.0
 11
5.0
 21
0.0
 31
0.0
  0
LINE
  5
1CA
330
1C3
100
AcDbEntity
  8
0
  6
Continuous
 62
     0
370
     0
100
AcDbLine
 10
0.0
 20
5.0
 30
0.0
 11
0.0
 21
8.0
 31
0.0
  0
LINE
  5
1CB
330
1C3
100
AcDbEntity
  8
0
  6
Continuous
 62
     0
370
     0
100
AcDbLine
 10
-5.0
 20
0.0
 30
0.0
 11
-8.0
 21
0.0
 31
0.0
  0
LINE
  5
1CC
330
1C3
100
AcDbEntity
  8
0
  6
Continuous
 62
     0
370
     0
100
AcDbLine
 10
0.0
 20
-5.0
 30
0.0
 11
0.0
 21
-8.0
 31
0.0
  0
LINE
  5
1CD
330
1C3
100
AcDbEntity
  8
0
  6
Continuous
 62
     0
370
     0
100
AcDbLine
 10
5.0
 20
0.0
 30
0.0
 11
8.0
 21
0.0
 31
0.0
  0
ENDBLK
  5
1C5
330
1C3
100
AcDbEntity
  8
0
100
AcDbBlockEnd
  0
BLOCK
  5
1D0
330
1CF
100
AcDbEntity
  8
0
100
AcDbBlockBegin
  2
SW_CENTERMARKSYMBOL_1
 70
     0
 10
0.0
 20
0.0
 30
0.0
  3
SW_CENTERMARKSYMBOL_1
  1

  0
LINE
  5
1D2
330
1CF
100
AcDbEntity
  8
0
  6
Continuous
 62
     0
370
     0
100
AcDbLine
 10
0.0
 20
0.0
 30
0.0
 11
0.0
 21
5.0
 31
0.0
  0
LINE
  5
1D3
330
1CF
100
AcDbEntity
  8
0
  6
Continuous
 62
     0
370
     0
100
AcDbLine
 10
0.0
 20
0.0
 30
0.0
 11
-5.0
 21
0.0
 31
0.0
  0
LINE
  5
1D4
330
1CF
100
AcDbEntity
  8
0
  6
Continuous
 62
     0
370
     0
100
AcDbLine
 10
0.0
 20
0.0
 30
0.0
 11
0.0
 21
-5.0
 31
0.0
  0
LINE
  5
1D5
330
1CF
100
AcDbEntity
  8
0
  6
Continuous
 62
     0
370
     0
100
AcDbLine
 10
0.0
 20
0.0
 30
0.0
 11
5.0
 21
0.0
 31
0.0
  0
LINE
  5
1D6
330
1CF
100
AcDbEntity
  8
0
  6
Continuous
 62
     0
370
     0
100
AcDbLine
 10
0.0
 20
5.0
 30
0.0
 11
0.0
 21
8.0
 31
0.0
  0
LINE
  5
1D7
330
1CF
100
AcDbEntity
  8
0
  6
Continuous
 62
     0
370
     0
100
AcDbLine
 10
-5.0
 20
0.0
 30
0.0
 11
-8.0
 21
0.0
 31
0.0
  0
LINE
  5
1D8
330
1CF
100
AcDbEntity
  8
0
  6
Continuous
 62
     0
370
     0
100
AcDbLine
 10
0.0
 20
-5.0
 30
0.0
 11
0.0
 21
-8.0
 31
0.0
  0
LINE
  5
1D9
330
1CF
100
AcDbEntity
  8
0
  6
Continuous
 62
     0
370
     0
100
AcDbLine
 10
5.0
 20
0.0
 30
0.0
 11
8.0
 21
0.0
 31
0.0
  0
ENDBLK
  5
1D1
330
1CF
100
AcDbEntity
  8
0
100
AcDbBlockEnd
  0
BLOCK
  5
1DC
330
1DB
100
AcDbEntity
  8
0
100
AcDbBlockBegin
  2
SW_CENTERMARKSYMBOL_2
 70
     0
 10
0.0
 20
0.0
 30
0.0
  3
SW_CENTERMARKSYMBOL_2
  1

  0
LINE
  5
1DE
330
1DB
100
AcDbEntity
  8
0
  6
Continuous
 62
     0
370
     0
100
AcDbLine
 10
0.0
 20
0.0
 30
0.0
 11
0.0
 21
5.0
 31
0.0
  0
LINE
  5
1DF
330
1DB
100
AcDbEntity
  8
0
  6
Continuous
 62
     0
370
     0
100
AcDbLine
 10
0.0
 20
0.0
 30
0.0
 11
-5.0
 21
0.0
 31
0.0
  0
LINE
  5
1E0
330
1DB
100
AcDbEntity
  8
0
  6
Continuous
 62
     0
370
     0
100
AcDbLine
 10
0.0
 20
0.0
 30
0.0
 11
0.0
 21
-5.0
 31
0.0
  0
LINE
  5
1E1
330
1DB
100
AcDbEntity
  8
0
  6
Continuous
 62
     0
370
     0
100
AcDbLine
 10
0.0
 20
0.0
 30
0.0
 11
5.0
 21
0.0
 31
0.0
  0
LINE
  5
1E2
330
1DB
100
AcDbEntity
  8
0
  6
Continuous
 62
     0
370
     0
100
AcDbLine
 10
0.0
 20
5.0
 30
0.0
 11
0.0
 21
8.0
 31
0.0
  0
LINE
  5
1E3
330
1DB
100
AcDbEntity
  8
0
  6
Continuous
 62
     0
370
     0
100
AcDbLine
 10
-5.0
 20
0.0
 30
0.0
 11
-8.0
 21
0.0
 31
0.0
  0
LINE
  5
1E4
330
1DB
100
AcDbEntity
  8
0
  6
Continuous
 62
     0
370
     0
100
AcDbLine
 10
0.0
 20
-5.0
 30
0.0
 11
0.0
 21
-8.0
 31
0.0
  0
LINE
  5
1E5
330
1DB
100
AcDbEntity
  8
0
  6
Continuous
 62
     0
370
     0
100
AcDbLine
 10
5.0
 20
0.0
 30
0.0
 11
8.0
 21
0.0
 31
0.0
  0
ENDBLK
  5
1DD
330
1DB
100
AcDbEntity
  8
0
100
AcDbBlockEnd
  0
ENDSEC
  0
SECTION
  2
ENTITIES
  0
LINE
  5
74
330
1F
100
AcDbEntity
  8
0
  6
Continuous
 62
     7
370
    40
100
AcDbLine
 10
999.0
 20
14.25
 30
0.0
 11
1179.0
 21
14.25
 31
0.0
  0
LINE
  5
75
330
1F
100
AcDbEntity
  8
0
  6
Continuous
 62
     7
370
    40
100
AcDbLine
 10
1179.0
 20
48.25
 30
0.0
 11
999.0
 21
48.25
 31
0.0
  0
LINE
  5
76
330
1F
100
AcDbEntity
  8
0
  6
Continuous
 62
     7
370
    40
100
AcDbLine
 10
999.0
 20
65.25
 30
0.0
 11
1179.0
 21
65.25
 31
0.0
  0
LINE
  5
77
330
1F
100
AcDbEntity
  8
0
  6
Continuous
 62
     7
370
    40
100
AcDbLine
 10
1025.9909524338
 20
48.25
 30
0.0
 11
1025.9909524338
 21
10.0
 31
0.0
  0
LINE
  5
78
330
1F
100
AcDbEntity
  8
0
  6
Continuous
 62
     7
370
    40
100
AcDbLine
 10
1097.8
 20
31.25
 30
0.0
 11
999.0
 21
31.25
 31
0.0
  0
LINE
  5
79
330
1F
100
AcDbEntity
  8
0
  6
Continuous
 62
     7
370
    40
100
AcDbLine
 10
1097.8
 20
35.5
 30
0.0
 11
999.0
 21
35.5
 31
0.0
  0
LINE
  5
7A
330
1F
100
AcDbEntity
  8
0
  6
Continuous
 62
     7
370
    40
100
AcDbLine
 10
1097.8
 20
39.75
 30
0.0
 11
999.0
 21
39.75
 31
0.0
  0
LINE
  5
7B
330
1F
100
AcDbEntity
  8
0
  6
Continuous
 62
     7
370
    40
100
AcDbLine
 10
1097.8
 20
44.0
 30
0.0
 11
999.0
 21
44.0
 31
0.0
  0
LINE
  5
7C
330
1F
100
AcDbEntity
  8
0
  6
Continuous
 62
     7
370
    40
100
AcDbLine
 10
1053.6
 20
10.0
 30
0.0
 11
1053.6
 21
48.25
 31
0.0
  0
LINE
  5
7D
330
1F
100
AcDbEntity
  8
0
  6
Continuous
 62
     7
370
    40
100
AcDbLine
 10
999.0
 20
65.25
 30
0.0
 11
999.0
 21
10.0
 31
0.0
  0
LINE
  5
7E
330
1F
100
AcDbEntity
  8
0
  6
Continuous
 62
     7
370
    40
100
AcDbLine
 10
1006.8
 20
48.25
 30
0.0
 11
1006.8
 21
10.0
 31
0.0
  0
LINE
  5
7F
330
1F
100
AcDbEntity
  8
0
  6
Continuous
 62
     7
370
    40
100
AcDbLine
 10
1032.8
 20
48.25
 30
0.0
 11
1032.8
 21
65.25
 31
0.0
  0
LINE
  5
80
330
1F
100
AcDbEntity
  8
0
  6
Continuous
 62
     7
370
    40
100
AcDbLine
 10
1043.3989261635
 20
48.25
 30
0.0
 11
1043.3989261635
 21
10.0
 31
0.0
  0
LINE
  5
81
330
1F
100
AcDbEntity
  8
0
  6
Continuous
 62
     7
370
    40
100
AcDbLine
 10
1064.0
 20
31.25
 30
0.0
 11
1064.0
 21
48.25
 31
0.0
  0
LINE
  5
82
330
1F
100
AcDbEntity
  8
0
  6
Continuous
 62
     7
370
    40
100
AcDbLine
 10
1053.6
 20
18.5
 30
0.0
 11
999.0
 21
18.5
 31
0.0
  0
LINE
  5
83
330
1F
100
AcDbEntity
  8
0
  6
Continuous
 62
     7
370
    40
100
AcDbLine
 10
1079.6
 20
65.25
 30
0.0
 11
1079.6
 21
27.0
 31
0.0
  0
LINE
  5
84
330
1F
100
AcDbEntity
  8
0
  6
Continuous
 62
     7
370
    40
100
AcDbLine
 10
1053.6
 20
22.749928
 30
0.0
 11
999.0
 21
22.749928
 31
0.0
  0
LINE
  5
85
330
1F
100
AcDbEntity
  8
0
  6
Continuous
 62
     7
370
    40
100
AcDbLine
 10
1053.6
 20
27.0
 30
0.0
 11
999.0
 21
27.0
 31
0.0
  0
LINE
  5
86
330
1F
100
AcDbEntity
  8
0
  6
Continuous
 62
     7
370
    40
100
AcDbLine
 10
1053.6
 20
27.0
 30
0.0
 11
1179.0
 21
27.0
 31
0.0
  0
LINE
  5
87
330
1F
100
AcDbEntity
  8
0
  6
Continuous
 62
     7
370
    40
100
AcDbLine
 10
1097.8
 20
65.25
 30
0.0
 11
1097.8
 21
10.0
 31
0.0
  0
LINE
  5
88
330
1F
100
AcDbEntity
  8
0
  6
Continuous
 62
     7
370
    40
100
AcDbLine
 10
1142.0
 20
10.0
 30
0.0
 11
1142.0
 21
14.25
 31
0.0
  0
LINE
  5
89
330
1F
100
AcDbEntity
  8
0
  6
Continuous
 62
     7
370
    40
100
AcDbLine
 10
1149.8
 20
58.875
 30
0.0
 11
1149.8
 21
65.25
 31
0.0
  0
LINE
  5
8A
330
1F
100
AcDbEntity
  8
0
  6
Continuous
 62
     7
370
    40
100
AcDbLine
 10
1166.0
 20
14.25
 30
0.0
 11
1166.0
 21
27.0
 31
0.0
  0
LINE
  5
8B
330
1F
100
AcDbEntity
  8
0
  6
Continuous
 62
     7
370
    40
100
AcDbLine
 10
1179.0
 20
58.875
 30
0.0
 11
1097.8
 21
58.875
 31
0.0
  0
LINE
  5
8C
330
1F
100
AcDbEntity
  8
0
  6
Continuous
 62
     7
370
    40
100
AcDbLine
 10
1179.0
 20
18.5
 30
0.0
 11
1166.0
 21
18.5
 31
0.0
  0
LINE
  5
8D
330
1F
100
AcDbEntity
  8
0
  6
Continuous
 62
     7
370
    60
100
AcDbLine
 10
20.0
 20
10.0
 30
0.0
 11
20.0
 21
831.0
 31
0.0
  0
LINE
  5
8E
330
1F
100
AcDbEntity
  8
0
  6
Continuous
 62
     7
370
    60
100
AcDbLine
 10
20.0
 20
831.0
 30
0.0
 11
1179.0
 21
831.0
 31
0.0
  0
LINE
  5
8F
330
1F
100
AcDbEntity
  8
0
  6
Continuous
 62
     7
370
    60
100
AcDbLine
 10
1179.0
 20
831.0
 30
0.0
 11
1179.0
 21
10.0
 31
0.0
  0
LINE
  5
90
330
1F
100
AcDbEntity
  8
0
  6
Continuous
 62
     7
370
    60
100
AcDbLine
 10
1179.0
 20
10.0
 30
0.0
 11
20.0
 21
10.0
 31
0.0
  0
LINE
  5
91
330
1F
100
AcDbEntity
  8
0
  6
Continuous
 62
     7
370
    60
100
AcDbLine
 10
15.0
 20
5.0
 30
0.0
 11
15.0
 21
836.0
 31
0.0
  0
LINE
  5
92
330
1F
100
AcDbEntity
  8
0
  6
Continuous
 62
     7
370
    60
100
AcDbLine
 10
15.0
 20
836.0
 30
0.0
 11
1184.0
 21
836.0
 31
0.0
  0
LINE
  5
93
330
1F
100
AcDbEntity
  8
0
  6
Continuous
 62
     7
370
    60
100
AcDbLine
 10
1184.0
 20
836.0
 30
0.0
 11
1184.0
 21
5.0
 31
0.0
  0
LINE
  5
94
330
1F
100
AcDbEntity
  8
0
  6
Continuous
 62
     7
370
    60
100
AcDbLine
 10
1184.0
 20
5.0
 30
0.0
 11
15.0
 21
5.0
 31
0.0
  0
LINE
  5
95
330
1F
100
AcDbEntity
  8
0
  6
Continuous
 62
     7
370
    30
100
AcDbLine
 10
15.0
 20
420.5
 30
0.0
 11
25.0
 21
420.5
 31
0.0
  0
LINE
  5
96
330
1F
100
AcDbEntity
  8
0
  6
Continuous
 62
     7
370
    30
100
AcDbLine
 10
599.5
 20
836.0
 30
0.0
 11
599.5
 21
826.0
 31
0.0
  0
LINE
  5
97
330
1F
100
AcDbEntity
  8
0
  6
Continuous
 62
     7
370
    30
100
AcDbLine
 10
1184.0
 20
420.5
 30
0.0
 11
1174.0
 21
420.5
 31
0.0
  0
LINE
  5
98
330
1F
100
AcDbEntity
  8
0
  6
Continuous
 62
     7
370
    30
100
AcDbLine
 10
599.5
 20
5.0
 30
0.0
 11
599.5
 21
15.0
 31
0.0
  0
LINE
  5
99
330
1F
100
AcDbEntity
  8
0
  6
Continuous
 62
     7
370
    30
100
AcDbLine
 10
20.0
 20
70.5
 30
0.0
 11
15.0
 21
70.5
 31
0.0
  0
LINE
  5
9A
330
1F
100
AcDbEntity
  8
0
  6
Continuous
 62
     7
370
    30
100
AcDbLine
 10
1179.0
 20
70.5
 30
0.0
 11
1184.0
 21
70.5
 31
0.0
  0
LINE
  5
9B
330
1F
100
AcDbEntity
  8
0
  6
Continuous
 62
     7
370
    30
100
AcDbLine
 10
20.0
 20
120.5
 30
0.0
 11
15.0
 21
120.5
 31
0.0
  0
LINE
  5
9C
330
1F
100
AcDbEntity
  8
0
  6
Continuous
 62
     7
370
    30
100
AcDbLine
 10
1179.0
 20
120.5
 30
0.0
 11
1184.0
 21
120.5
 31
0.0
  0
LINE
  5
9D
330
1F
100
AcDbEntity
  8
0
  6
Continuous
 62
     7
370
    30
100
AcDbLine
 10
20.0
 20
170.5
 30
0.0
 11
15.0
 21
170.5
 31
0.0
  0
LINE
  5
9E
330
1F
100
AcDbEntity
  8
0
  6
Continuous
 62
     7
370
    30
100
AcDbLine
 10
1179.0
 20
170.5
 30
0.0
 11
1184.0
 21
170.5
 31
0.0
  0
LINE
  5
9F
330
1F
100
AcDbEntity
  8
0
  6
Continuous
 62
     7
370
    30
100
AcDbLine
 10
20.0
 20
220.5
 30
0.0
 11
15.0
 21
220.5
 31
0.0
  0
LINE
  5
A0
330
1F
100
AcDbEntity
  8
0
  6
Continuous
 62
     7
370
    30
100
AcDbLine
 10
1179.0
 20
220.5
 30
0.0
 11
1184.0
 21
220.5
 31
0.0
  0
LINE
  5
A1
330
1F
100
AcDbEntity
  8
0
  6
Continuous
 62
     7
370
    30
100
AcDbLine
 10
20.0
 20
270.5
 30
0.0
 11
15.0
 21
270.5
 31
0.0
  0
LINE
  5
A2
330
1F
100
AcDbEntity
  8
0
  6
Continuous
 62
     7
370
    30
100
AcDbLine
 10
1179.0
 20
270.5
 30
0.0
 11
1184.0
 21
270.5
 31
0.0
  0
LINE
  5
A3
330
1F
100
AcDbEntity
  8
0
  6
Continuous
 62
     7
370
    30
100
AcDbLine
 10
20.0
 20
320.5
 30
0.0
 11
15.0
 21
320.5
 31
0.0
  0
LINE
  5
A4
330
1F
100
AcDbEntity
  8
0
  6
Continuous
 62
     7
370
    30
100
AcDbLine
 10
1179.0
 20
320.5
 30
0.0
 11
1184.0
 21
320.5
 31
0.0
  0
LINE
  5
A5
330
1F
100
AcDbEntity
  8
0
  6
Continuous
 62
     7
370
    30
100
AcDbLine
 10
20.0
 20
370.5
 30
0.0
 11
15.0
 21
370.5
 31
0.0
  0
LINE
  5
A6
330
1F
100
AcDbEntity
  8
0
  6
Continuous
 62
     7
370
    30
100
AcDbLine
 10
1179.0
 20
370.5
 30
0.0
 11
1184.0
 21
370.5
 31
0.0
  0
LINE
  5
A7
330
1F
100
AcDbEntity
  8
0
  6
Continuous
 62
     7
370
    30
100
AcDbLine
 10
20.0
 20
420.5
 30
0.0
 11
15.0
 21
420.5
 31
0.0
  0
LINE
  5
A8
330
1F
100
AcDbEntity
  8
0
  6
Continuous
 62
     7
370
    30
100
AcDbLine
 10
1179.0
 20
420.5
 30
0.0
 11
1184.0
 21
420.5
 31
0.0
  0
LINE
  5
A9
330
1F
100
AcDbEntity
  8
0
  6
Continuous
 62
     7
370
    30
100
AcDbLine
 10
20.0
 20
470.5
 30
0.0
 11
15.0
 21
470.5
 31
0.0
  0
LINE
  5
AA
330
1F
100
AcDbEntity
  8
0
  6
Continuous
 62
     7
370
    30
100
AcDbLine
 10
1179.0
 20
470.5
 30
0.0
 11
1184.0
 21
470.5
 31
0.0
  0
LINE
  5
AB
330
1F
100
AcDbEntity
  8
0
  6
Continuous
 62
     7
370
    30
100
AcDbLine
 10
20.0
 20
520.5
 30
0.0
 11
15.0
 21
520.5
 31
0.0
  0
LINE
  5
AC
330
1F
100
AcDbEntity
  8
0
  6
Continuous
 62
     7
370
    30
100
AcDbLine
 10
1179.0
 20
520.5
 30
0.0
 11
1184.0
 21
520.5
 31
0.0
  0
LINE
  5
AD
330
1F
100
AcDbEntity
  8
0
  6
Continuous
 62
     7
370
    30
100
AcDbLine
 10
20.0
 20
570.5
 30
0.0
 11
15.0
 21
570.5
 31
0.0
  0
LINE
  5
AE
330
1F
100
AcDbEntity
  8
0
  6
Continuous
 62
     7
370
    30
100
AcDbLine
 10
1179.0
 20
570.5
 30
0.0
 11
1184.0
 21
570.5
 31
0.0
  0
LINE
  5
AF
330
1F
100
AcDbEntity
  8
0
  6
Continuous
 62
     7
370
    30
100
AcDbLine
 10
20.0
 20
620.5
 30
0.0
 11
15.0
 21
620.5
 31
0.0
  0
LINE
  5
B0
330
1F
100
AcDbEntity
  8
0
  6
Continuous
 62
     7
370
    30
100
AcDbLine
 10
1179.0
 20
620.5
 30
0.0
 11
1184.0
 21
620.5
 31
0.0
  0
LINE
  5
B1
330
1F
100
AcDbEntity
  8
0
  6
Continuous
 62
     7
370
    30
100
AcDbLine
 10
20.0
 20
670.5
 30
0.0
 11
15.0
 21
670.5
 31
0.0
  0
LINE
  5
B2
330
1F
100
AcDbEntity
  8
0
  6
Continuous
 62
     7
370
    30
100
AcDbLine
 10
1179.0
 20
670.5
 30
0.0
 11
1184.0
 21
670.5
 31
0.0
  0
LINE
  5
B3
330
1F
100
AcDbEntity
  8
0
  6
Continuous
 62
     7
370
    30
100
AcDbLine
 10
20.0
 20
720.5
 30
0.0
 11
15.0
 21
720.5
 31
0.0
  0
LINE
  5
B4
330
1F
100
AcDbEntity
  8
0
  6
Continuous
 62
     7
370
    30
100
AcDbLine
 10
1179.0
 20
720.5
 30
0.0
 11
1184.0
 21
720.5
 31
0.0
  0
LINE
  5
B5
330
1F
100
AcDbEntity
  8
0
  6
Continuous
 62
     7
370
    30
100
AcDbLine
 10
20.0
 20
770.5
 30
0.0
 11
15.0
 21
770.5
 31
0.0
  0
LINE
  5
B6
330
1F
100
AcDbEntity
  8
0
  6
Continuous
 62
     7
370
    30
100
AcDbLine
 10
1179.0
 20
770.5
 30
0.0
 11
1184.0
 21
770.5
 31
0.0
  0
LINE
  5
B7
330
1F
100
AcDbEntity
  8
0
  6
Continuous
 62
     7
370
    30
100
AcDbLine
 10
49.5
 20
831.0
 30
0.0
 11
49.5
 21
836.0
 31
0.0
  0
LINE
  5
B8
330
1F
100
AcDbEntity
  8
0
  6
Continuous
 62
     7
370
    30
100
AcDbLine
 10
49.5
 20
10.0
 30
0.0
 11
49.5
 21
5.0
 31
0.0
  0
LINE
  5
B9
330
1F
100
AcDbEntity
  8
0
  6
Continuous
 62
     7
370
    30
100
AcDbLine
 10
99.5
 20
831.0
 30
0.0
 11
99.5
 21
836.0
 31
0.0
  0
LINE
  5
BA
330
1F
100
AcDbEntity
  8
0
  6
Continuous
 62
     7
370
    30
100
AcDbLine
 10
99.5
 20
10.0
 30
0.0
 11
99.5
 21
5.0
 31
0.0
  0
LINE
  5
BB
330
1F
100
AcDbEntity
  8
0
  6
Continuous
 62
     7
370
    30
100
AcDbLine
 10
149.5
 20
831.0
 30
0.0
 11
149.5
 21
836.0
 31
0.0
  0
LINE
  5
BC
330
1F
100
AcDbEntity
  8
0
  6
Continuous
 62
     7
370
    30
100
AcDbLine
 10
149.5
 20
10.0
 30
0.0
 11
149.5
 21
5.0
 31
0.0
  0
LINE
  5
BD
330
1F
100
AcDbEntity
  8
0
  6
Continuous
 62
     7
370
    30
100
AcDbLine
 10
199.5
 20
831.0
 30
0.0
 11
199.5
 21
836.0
 31
0.0
  0
LINE
  5
BE
330
1F
100
AcDbEntity
  8
0
  6
Continuous
 62
     7
370
    30
100
AcDbLine
 10
199.5
 20
10.0
 30
0.0
 11
199.5
 21
5.0
 31
0.0
  0
LINE
  5
BF
330
1F
100
AcDbEntity
  8
0
  6
Continuous
 62
     7
370
    30
100
AcDbLine
 10
249.5
 20
831.0
 30
0.0
 11
249.5
 21
836.0
 31
0.0
  0
LINE
  5
C0
330
1F
100
AcDbEntity
  8
0
  6
Continuous
 62
     7
370
    30
100
AcDbLine
 10
249.5
 20
10.0
 30
0.0
 11
249.5
 21
5.0
 31
0.0
  0
LINE
  5
C1
330
1F
100
AcDbEntity
  8
0
  6
Continuous
 62
     7
370
    30
100
AcDbLine
 10
299.5
 20
831.0
 30
0.0
 11
299.5
 21
836.0
 31
0.0
  0
LINE
  5
C2
330
1F
100
AcDbEntity
  8
0
  6
Continuous
 62
     7
370
    30
100
AcDbLine
 10
299.5
 20
10.0
 30
0.0
 11
299.5
 21
5.0
 31
0.0
  0
LINE
  5
C3
330
1F
100
AcDbEntity
  8
0
  6
Continuous
 62
     7
370
    30
100
AcDbLine
 10
349.5
 20
831.0
 30
0.0
 11
349.5
 21
836.0
 31
0.0
  0
LINE
  5
C4
330
1F
100
AcDbEntity
  8
0
  6
Continuous
 62
     7
370
    30
100
AcDbLine
 10
349.5
 20
10.0
 30
0.0
 11
349.5
 21
5.0
 31
0.0
  0
LINE
  5
C5
330
1F
100
AcDbEntity
  8
0
  6
Continuous
 62
     7
370
    30
100
AcDbLine
 10
399.5
 20
831.0
 30
0.0
 11
399.5
 21
836.0
 31
0.0
  0
LINE
  5
C6
330
1F
100
AcDbEntity
  8
0
  6
Continuous
 62
     7
370
    30
100
AcDbLine
 10
399.5
 20
10.0
 30
0.0
 11
399.5
 21
5.0
 31
0.0
  0
LINE
  5
C7
330
1F
100
AcDbEntity
  8
0
  6
Continuous
 62
     7
370
    30
100
AcDbLine
 10
449.5
 20
831.0
 30
0.0
 11
449.5
 21
836.0
 31
0.0
  0
LINE
  5
C8
330
1F
100
AcDbEntity
  8
0
  6
Continuous
 62
     7
370
    30
100
AcDbLine
 10
449.5
 20
10.0
 30
0.0
 11
449.5
 21
5.0
 31
0.0
  0
LINE
  5
C9
330
1F
100
AcDbEntity
  8
0
  6
Continuous
 62
     7
370
    30
100
AcDbLine
 10
499.5
 20
831.0
 30
0.0
 11
499.5
 21
836.0
 31
0.0
  0
LINE
  5
CA
330
1F
100
AcDbEntity
  8
0
  6
Continuous
 62
     7
370
    30
100
AcDbLine
 10
499.5
 20
10.0
 30
0.0
 11
499.5
 21
5.0
 31
0.0
  0
LINE
  5
CB
330
1F
100
AcDbEntity
  8
0
  6
Continuous
 62
     7
370
    30
100
AcDbLine
 10
549.5
 20
831.0
 30
0.0
 11
549.5
 21
836.0
 31
0.0
  0
LINE
  5
CC
330
1F
100
AcDbEntity
  8
0
  6
Continuous
 62
     7
370
    30
100
AcDbLine
 10
549.5
 20
10.0
 30
0.0
 11
549.5
 21
5.0
 31
0.0
  0
LINE
  5
CD
330
1F
100
AcDbEntity
  8
0
  6
Continuous
 62
     7
370
    30
100
AcDbLine
 10
599.5
 20
831.0
 30
0.0
 11
599.5
 21
836.0
 31
0.0
  0
LINE
  5
CE
330
1F
100
AcDbEntity
  8
0
  6
Continuous
 62
     7
370
    30
100
AcDbLine
 10
599.5
 20
10.0
 30
0.0
 11
599.5
 21
5.0
 31
0.0
  0
LINE
  5
CF
330
1F
100
AcDbEntity
  8
0
  6
Continuous
 62
     7
370
    30
100
AcDbLine
 10
649.5
 20
831.0
 30
0.0
 11
649.5
 21
836.0
 31
0.0
  0
LINE
  5
D0
330
1F
100
AcDbEntity
  8
0
  6
Continuous
 62
     7
370
    30
100
AcDbLine
 10
649.5
 20
10.0
 30
0.0
 11
649.5
 21
5.0
 31
0.0
  0
LINE
  5
D1
330
1F
100
AcDbEntity
  8
0
  6
Continuous
 62
     7
370
    30
100
AcDbLine
 10
699.5
 20
831.0
 30
0.0
 11
699.5
 21
836.0
 31
0.0
  0
LINE
  5
D2
330
1F
100
AcDbEntity
  8
0
  6
Continuous
 62
     7
370
    30
100
AcDbLine
 10
699.5
 20
10.0
 30
0.0
 11
699.5
 21
5.0
 31
0.0
  0
LINE
  5
D3
330
1F
100
AcDbEntity
  8
0
  6
Continuous
 62
     7
370
    30
100
AcDbLine
 10
749.5
 20
831.0
 30
0.0
 11
749.5
 21
836.0
 31
0.0
  0
LINE
  5
D4
330
1F
100
AcDbEntity
  8
0
  6
Continuous
 62
     7
370
    30
100
AcDbLine
 10
749.5
 20
10.0
 30
0.0
 11
749.5
 21
5.0
 31
0.0
  0
LINE
  5
D5
330
1F
100
AcDbEntity
  8
0
  6
Continuous
 62
     7
370
    30
100
AcDbLine
 10
799.5
 20
831.0
 30
0.0
 11
799.5
 21
836.0
 31
0.0
  0
LINE
  5
D6
330
1F
100
AcDbEntity
  8
0
  6
Continuous
 62
     7
370
    30
100
AcDbLine
 10
799.5
 20
10.0
 30
0.0
 11
799.5
 21
5.0
 31
0.0
  0
LINE
  5
D7
330
1F
100
AcDbEntity
  8
0
  6
Continuous
 62
     7
370
    30
100
AcDbLine
 10
849.5
 20
831.0
 30
0.0
 11
849.5
 21
836.0
 31
0.0
  0
LINE
  5
D8
330
1F
100
AcDbEntity
  8
0
  6
Continuous
 62
     7
370
    30
100
AcDbLine
 10
849.5
 20
10.0
 30
0.0
 11
849.5
 21
5.0
 31
0.0
  0
LINE
  5
D9
330
1F
100
AcDbEntity
  8
0
  6
Continuous
 62
     7
370
    30
100
AcDbLine
 10
899.5
 20
831.0
 30
0.0
 11
899.5
 21
836.0
 31
0.0
  0
LINE
  5
DA
330
1F
100
AcDbEntity
  8
0
  6
Continuous
 62
     7
370
    30
100
AcDbLine
 10
899.5
 20
10.0
 30
0.0
 11
899.5
 21
5.0
 31
0.0
  0
LINE
  5
DB
330
1F
100
AcDbEntity
  8
0
  6
Continuous
 62
     7
370
    30
100
AcDbLine
 10
949.5
 20
831.0
 30
0.0
 11
949.5
 21
836.0
 31
0.0
  0
LINE
  5
DC
330
1F
100
AcDbEntity
  8
0
  6
Continuous
 62
     7
370
    30
100
AcDbLine
 10
949.5
 20
10.0
 30
0.0
 11
949.5
 21
5.0
 31
0.0
  0
LINE
  5
DD
330
1F
100
AcDbEntity
  8
0
  6
Continuous
 62
     7
370
    30
100
AcDbLine
 10
999.5
 20
831.0
 30
0.0
 11
999.5
 21
836.0
 31
0.0
  0
LINE
  5
DE
330
1F
100
AcDbEntity
  8
0
  6
Continuous
 62
     7
370
    30
100
AcDbLine
 10
999.5
 20
10.0
 30
0.0
 11
999.5
 21
5.0
 31
0.0
  0
LINE
  5
DF
330
1F
100
AcDbEntity
  8
0
  6
Continuous
 62
     7
370
    30
100
AcDbLine
 10
1049.5
 20
831.0
 30
0.0
 11
1049.5
 21
836.0
 31
0.0
  0
LINE
  5
E0
330
1F
100
AcDbEntity
  8
0
  6
Continuous
 62
     7
370
    30
100
AcDbLine
 10
1049.5
 20
10.0
 30
0.0
 11
1049.5
 21
5.0
 31
0.0
  0
LINE
  5
E1
330
1F
100
AcDbEntity
  8
0
  6
Continuous
 62
     7
370
    30
100
AcDbLine
 10
1099.5
 20
831.0
 30
0.0
 11
1099.5
 21
836.0
 31
0.0
  0
LINE
  5
E2
330
1F
100
AcDbEntity
  8
0
  6
Continuous
 62
     7
370
    30
100
AcDbLine
 10
1099.5
 20
10.0
 30
0.0
 11
1099.5
 21
5.0
 31
0.0
  0
LINE
  5
E3
330
1F
100
AcDbEntity
  8
0
  6
Continuous
 62
     7
370
    30
100
AcDbLine
 10
1149.5
 20
831.0
 30
0.0
 11
1149.5
 21
836.0
 31
0.0
  0
LINE
  5
E4
330
1F
100
AcDbEntity
  8
0
  6
Continuous
 62
     7
370
    30
100
AcDbLine
 10
1149.5
 20
10.0
 30
0.0
 11
1149.5
 21
5.0
 31
0.0
  0
MTEXT
  5
E6
330
1F
100
AcDbEntity
  8
0
  6
Continuous
 62
     7
370
     0
100
AcDbMText
 10
17.3396881428
 20
42.215024576
 30
0.0
 40
3.96875
 41
0.0
 71
     2
 72
     1
  1
A
  7
SLDTEXTSTYLE0
 73
     1
 44
1.0
  0
MTEXT
  5
E7
330
1F
100
AcDbEntity
  8
0
  6
Continuous
 62
     7
370
     0
100
AcDbMText
 10
1181.3396881428
 20
42.215024576
 30
0.0
 40
3.96875
 41
0.0
 71
     2
 72
     1
  1
A
  7
SLDTEXTSTYLE0
 73
     1
 44
1.0
  0
MTEXT
  5
E8
330
1F
100
AcDbEntity
  8
0
  6
Continuous
 62
     7
370
     0
100
AcDbMText
 10
17.4706018241
 20
97.465024576
 30
0.0
 40
3.96875
 41
0.0
 71
     2
 72
     1
  1
B
  7
SLDTEXTSTYLE0
 73
     1
 44
1.0
  0
MTEXT
  5
E9
330
1F
100
AcDbEntity
  8
0
  6
Continuous
 62
     7
370
     0
100
AcDbMText
 10
1181.4706018241
 20
97.465024576
 30
0.0
 40
3.96875
 41
0.0
 71
     2
 72
     1
  1
B
  7
SLDTEXTSTYLE0
 73
     1
 44
1.0
  0
MTEXT
  5
EA
330
1F
100
AcDbEntity
  8
0
  6
Continuous
 62
     7
370
     0
100
AcDbMText
 10
17.458658902
 20
147.465024576
 30
0.0
 40
3.96875
 41
0.0
 71
     2
 72
     1
  1
C
  7
SLDTEXTSTYLE0
 73
     1
 44
1.0
  0
MTEXT
  5
EB
330
1F
100
AcDbEntity
  8
0
  6
Continuous
 62
     7
370
     0
100
AcDbMText
 10
1181.458658902
 20
147.465024576
 30
0.0
 40
3.96875
 41
0.0
 71
     2
 72
     1
  1
C
  7
SLDTEXTSTYLE0
 73
     1
 44
1.0
  0
MTEXT
  5
EC
330
1F
100
AcDbEntity
  8
0
  6
Continuous
 62
     7
370
     0
100
AcDbMText
 10
17.4526872821
 20
197.465024576
 30
0.0
 40
3.96875
 41
0.0
 71
     2
 72
     1
  1
D
  7
SLDTEXTSTYLE0
 73
     1
 44
1.0
  0
MTEXT
  5
ED
330
1F
100
AcDbEntity
  8
0
  6
Continuous
 62
     7
370
     0
100
AcDbMText
 10
1181.4526872821
 20
197.465024576
 30
0.0
 40
3.96875
 41
0.0
 71
     2
 72
     1
  1
D
  7
SLDTEXTSTYLE0
 73
     1
 44
1.0
  0
MTEXT
  5
EE
330
1F
100
AcDbEntity
  8
0
  6
Continuous
 62
     7
370
     0
100
AcDbMText
 10
17.5078089051
 20
247.465024576
 30
0.0
 40
3.96875
 41
0.0
 71
     2
 72
     1
  1
E
  7
SLDTEXTSTYLE0
 73
     1
 44
1.0
  0
MTEXT
  5
EF
330
1F
100
AcDbEntity
  8
0
  6
Continuous
 62
     7
370
     0
100
AcDbMText
 10
1181.5078089051
 20
247.465024576
 30
0.0
 40
3.96875
 41
0.0
 71
     2
 72
     1
  1
E
  7
SLDTEXTSTYLE0
 73
     1
 44
1.0
  0
MTEXT
  5
F0
330
1F
100
AcDbEntity
  8
0
  6
Continuous
 62
     7
370
     0
100
AcDbMText
 10
17.4577402091
 20
297.465024576
 30
0.0
 40
3.96875
 41
0.0
 71
     2
 72
     1
  1
F
  7
SLDTEXTSTYLE0
 73
     1
 44
1.0
  0
MTEXT
  5
F1
330
1F
100
AcDbEntity
  8
0
  6
Continuous
 62
     7
370
     0
100
AcDbMText
 10
1181.4577402091
 20
297.465024576
 30
0.0
 40
3.96875
 41
0.0
 71
     2
 72
     1
  1
F
  7
SLDTEXTSTYLE0
 73
     1
 44
1.0
  0
MTEXT
  5
F2
330
1F
100
AcDbEntity
  8
0
  6
Continuous
 62
     7
370
     0
100
AcDbMText
 10
17.4866788853
 20
347.465024576
 30
0.0
 40
3.96875
 41
0.0
 71
     2
 72
     1
  1
G
  7
SLDTEXTSTYLE0
 73
     1
 44
1.0
  0
MTEXT
  5
F3
330
1F
100
AcDbEntity
  8
0
  6
Continuous
 62
     7
370
     0
100
AcDbMText
 10
1181.4866788853
 20
347.465024576
 30
0.0
 40
3.96875
 41
0.0
 71
     2
 72
     1
  1
G
  7
SLDTEXTSTYLE0
 73
     1
 44
1.0
  0
MTEXT
  5
F4
330
1F
100
AcDbEntity
  8
0
  6
Continuous
 62
     7
370
     0
100
AcDbMText
 10
17.4903537836
 20
397.465024576
 30
0.0
 40
3.96875
 41
0.0
 71
     2
 72
     1
  1
H
  7
SLDTEXTSTYLE0
 73
     1
 44
1.0
  0
MTEXT
  5
F5
330
1F
100
AcDbEntity
  8
0
  6
Continuous
 62
     7
370
     0
100
AcDbMText
 10
1181.4903537836
 20
397.465024576
 30
0.0
 40
3.96875
 41
0.0
 71
     2
 72
     1
  1
H
  7
SLDTEXTSTYLE0
 73
     1
 44
1.0
  0
MTEXT
  5
F6
330
1F
100
AcDbEntity
  8
0
  6
Continuous
 62
     7
370
     0
100
AcDbMText
 10
17.4650897412
 20
447.465024576
 30
0.0
 40
3.96875
 41
0.0
 71
     2
 72
     1
  1
J
  7
SLDTEXTSTYLE0
 73
     1
 44
1.0
  0
MTEXT
  5
F7
330
1F
100
AcDbEntity
  8
0
  6
Continuous
 62
     7
370
     0
100
AcDbMText
 10
1181.4650897412
 20
447.465024576
 30
0.0
 40
3.96875
 41
0.0
 71
     2
 72
     1
  1
J
  7
SLDTEXTSTYLE0
 73
     1
 44
1.0
  0
MTEXT
  5
F8
330
1F
100
AcDbEntity
  8
0
  6
Continuous
 62
     7
370
     0
100
AcDbMText
 10
17.4885163503
 20
497.465024576
 30
0.0
 40
3.96875
 41
0.0
 71
     2
 72
     1
  1
K
  7
SLDTEXTSTYLE0
 73
     1
 44
1.0
  0
MTEXT
  5
F9
330
1F
100
AcDbEntity
  8
0
  6
Continuous
 62
     7
370
     0
100
AcDbMText
 10
1181.4885163503
 20
497.465024576
 30
0.0
 40
3.96875
 41
0.0
 71
     2
 72
     1
  1
K
  7
SLDTEXTSTYLE0
 73
     1
 44
1.0
  0
MTEXT
  5
FA
330
1F
100
AcDbEntity
  8
0
  6
Continuous
 62
     7
370
     0
100
AcDbMText
 10
17.4545247471
 20
547.465024576
 30
0.0
 40
3.96875
 41
0.0
 71
     2
 72
     1
  1
L
  7
SLDTEXTSTYLE0
 73
     1
 44
1.0
  0
MTEXT
  5
FB
330
1F
100
AcDbEntity
  8
0
  6
Continuous
 62
     7
370
     0
100
AcDbMText
 10
1181.4545247471
 20
547.465024576
 30
0.0
 40
3.96875
 41
0.0
 71
     2
 72
     1
  1
L
  7
SLDTEXTSTYLE0
 73
     1
 44
1.0
  0
MTEXT
  5
FC
330
1F
100
AcDbEntity
  8
0
  6
Continuous
 62
     7
370
     0
100
AcDbMText
 10
17.3617368396
 20
597.465024576
 30
0.0
 40
3.96875
 41
0.0
 71
     2
 72
     1
  1
M
  7
SLDTEXTSTYLE0
 73
     1
 44
1.0
  0
MTEXT
  5
FD
330
1F
100
AcDbEntity
  8
0
  6
Continuous
 62
     7
370
     0
100
AcDbMText
 10
1181.3617368396
 20
597.465024576
 30
0.0
 40
3.96875
 41
0.0
 71
     2
 72
     1
  1
M
  7
SLDTEXTSTYLE0
 73
     1
 44
1.0
  0
MTEXT
  5
FE
330
1F
100
AcDbEntity
  8
0
  6
Continuous
 62
     7
370
     0
100
AcDbMText
 10
17.4637115803
 20
647.465024576
 30
0.0
 40
3.96875
 41
0.0
 71
     2
 72
     1
  1
N
  7
SLDTEXTSTYLE0
 73
     1
 44
1.0
  0
MTEXT
  5
FF
330
1F
100
AcDbEntity
  8
0
  6
Continuous
 62
     7
370
     0
100
AcDbMText
 10
1181.4637115803
 20
647.465024576
 30
0.0
 40
3.96875
 41
0.0
 71
     2
 72
     1
  1
N
  7
SLDTEXTSTYLE0
 73
     1
 44
1.0
  0
MTEXT
  5
100
330
1F
100
AcDbEntity
  8
0
  6
Continuous
 62
     7
370
     0
100
AcDbMText
 10
17.4848415842
 20
697.465024576
 30
0.0
 40
3.96875
 41
0.0
 71
     2
 72
     1
  1
P
  7
SLDTEXTSTYLE0
 73
     1
 44
1.0
  0
MTEXT
  5
101
330
1F
100
AcDbEntity
  8
0
  6
Continuous
 62
     7
370
     0
100
AcDbMText
 10
1181.4848415842
 20
697.465024576
 30
0.0
 40
3.96875
 41
0.0
 71
     2
 72
     1
  1
P
  7
SLDTEXTSTYLE0
 73
     1
 44
1.0
  0
MTEXT
  5
102
330
1F
100
AcDbEntity
  8
0
  6
Continuous
 62
     7
370
     0
100
AcDbMText
 10
17.4444191577
 20
747.465024576
 30
0.0
 40
3.96875
 41
0.0
 71
     2
 72
     1
  1
R
  7
SLDTEXTSTYLE0
 73
     1
 44
1.0
  0
MTEXT
  5
103
330
1F
100
AcDbEntity
  8
0
  6
Continuous
 62
     7
370
     0
100
AcDbMText
 10
1181.4444191577
 20
747.465024576
 30
0.0
 40
3.96875
 41
0.0
 71
     2
 72
     1
  1
R
  7
SLDTEXTSTYLE0
 73
     1
 44
1.0
  0
MTEXT
  5
104
330
1F
100
AcDbEntity
  8
0
  6
Continuous
 62
     7
370
     0
100
AcDbMText
 10
17.4880569456
 20
802.7778386464
 30
0.0
 40
3.96875
 41
0.0
 71
     2
 72
     1
  1
T
  7
SLDTEXTSTYLE0
 73
     1
 44
1.0
  0
MTEXT
  5
105
330
1F
100
AcDbEntity
  8
0
  6
Continuous
 62
     7
370
     0
100
AcDbMText
 10
1181.4880569456
 20
802.7778386464
 30
0.0
 40
3.96875
 41
0.0
 71
     2
 72
     1
  1
T
  7
SLDTEXTSTYLE0
 73
     1
 44
1.0
  0
MTEXT
  5
106
330
1F
100
AcDbEntity
  8
0
  6
Continuous
 62
     7
370
     0
100
AcDbMText
 10
34.6700738929
 20
9.465024576
 30
0.0
 40
3.96875
 41
0.0
 71
     2
 72
     1
  1
24
  7
SLDTEXTSTYLE0
 73
     1
 44
1.0
  0
MTEXT
  5
107
330
1F
100
AcDbEntity
  8
0
  6
Continuous
 62
     7
370
     0
100
AcDbMText
 10
34.6700738929
 20
835.465024576
 30
0.0
 40
3.96875
 41
0.0
 71
     2
 72
     1
  1
24
  7
SLDTEXTSTYLE0
 73
     1
 44
1.0
  0
MTEXT
  5
108
330
1F
100
AcDbEntity
  8
0
  6
Continuous
 62
     7
370
     0
100
AcDbMText
 10
74.4200738929
 20
9.465024576
 30
0.0
 40
3.96875
 41
0.0
 71
     2
 72
     1
  1
23
  7
SLDTEXTSTYLE0
 73
     1
 44
1.0
  0
MTEXT
  5
109
330
1F
100
AcDbEntity
  8
0
  6
Continuous
 62
     7
370
     0
100
AcDbMText
 10
74.4200738929
 20
835.465024576
 30
0.0
 40
3.96875
 41
0.0
 71
     2
 72
     1
  1
23
  7
SLDTEXTSTYLE0
 73
     1
 44
1.0
  0
MTEXT
  5
10A
330
1F
100
AcDbEntity
  8
0
  6
Continuous
 62
     7
370
     0
100
AcDbMText
 10
124.4200738929
 20
9.465024576
 30
0.0
 40
3.96875
 41
0.0
 71
     2
 72
     1
  1
22
  7
SLDTEXTSTYLE0
 73
     1
 44
1.0
  0
MTEXT
  5
10B
330
1F
100
AcDbEntity
  8
0
  6
Continuous
 62
     7
370
     0
100
AcDbMText
 10
124.4200738929
 20
835.465024576
 30
0.0
 40
3.96875
 41
0.0
 71
     2
 72
     1
  1
22
  7
SLDTEXTSTYLE0
 73
     1
 44
1.0
  0
MTEXT
  5
10C
330
1F
100
AcDbEntity
  8
0
  6
Continuous
 62
     7
370
     0
100
AcDbMText
 10
174.4200738929
 20
9.465024576
 30
0.0
 40
3.96875
 41
0.0
 71
     2
 72
     1
  1
21
  7
SLDTEXTSTYLE0
 73
     1
 44
1.0
  0
MTEXT
  5
10D
330
1F
100
AcDbEntity
  8
0
  6
Continuous
 62
     7
370
     0
100
AcDbMText
 10
174.4200738929
 20
835.465024576
 30
0.0
 40
3.96875
 41
0.0
 71
     2
 72
     1
  1
21
  7
SLDTEXTSTYLE0
 73
     1
 44
1.0
  0
MTEXT
  5
10E
330
1F
100
AcDbEntity
  8
0
  6
Continuous
 62
     7
370
     0
100
AcDbMText
 10
224.4200738929
 20
9.465024576
 30
0.0
 40
3.96875
 41
0.0
 71
     2
 72
     1
  1
20
  7
SLDTEXTSTYLE0
 73
     1
 44
1.0
  0
MTEXT
  5
10F
330
1F
100
AcDbEntity
  8
0
  6
Continuous
 62
     7
370
     0
100
AcDbMText
 10
224.4200738929
 20
835.465024576
 30
0.0
 40
3.96875
 41
0.0
 71
     2
 72
     1
  1
20
  7
SLDTEXTSTYLE0
 73
     1
 44
1.0
  0
MTEXT
  5
110
330
1F
100
AcDbEntity
  8
0
  6
Continuous
 62
     7
370
     0
100
AcDbMText
 10
274.4200738929
 20
9.465024576
 30
0.0
 40
3.96875
 41
0.0
 71
     2
 72
     1
  1
19
  7
SLDTEXTSTYLE0
 73
     1
 44
1.0
  0
MTEXT
  5
111
330
1F
100
AcDbEntity
  8
0
  6
Continuous
 62
     7
370
     0
100
AcDbMText
 10
274.4200738929
 20
835.465024576
 30
0.0
 40
3.96875
 41
0.0
 71
     2
 72
     1
  1
19
  7
SLDTEXTSTYLE0
 73
     1
 44
1.0
  0
MTEXT
  5
112
330
1F
100
AcDbEntity
  8
0
  6
Continuous
 62
     7
370
     0
100
AcDbMText
 10
324.4200738929
 20
9.465024576
 30
0.0
 40
3.96875
 41
0.0
 71
     2
 72
     1
  1
18
  7
SLDTEXTSTYLE0
 73
     1
 44
1.0
  0
MTEXT
  5
113
330
1F
100
AcDbEntity
  8
0
  6
Continuous
 62
     7
370
     0
100
AcDbMText
 10
324.4200738929
 20
835.465024576
 30
0.0
 40
3.96875
 41
0.0
 71
     2
 72
     1
  1
18
  7
SLDTEXTSTYLE0
 73
     1
 44
1.0
  0
MTEXT
  5
114
330
1F
100
AcDbEntity
  8
0
  6
Continuous
 62
     7
370
     0
100
AcDbMText
 10
374.4200738929
 20
9.465024576
 30
0.0
 40
3.96875
 41
0.0
 71
     2
 72
     1
  1
17
  7
SLDTEXTSTYLE0
 73
     1
 44
1.0
  0
MTEXT
  5
115
330
1F
100
AcDbEntity
  8
0
  6
Continuous
 62
     7
370
     0
100
AcDbMText
 10
374.4200738929
 20
835.465024576
 30
0.0
 40
3.96875
 41
0.0
 71
     2
 72
     1
  1
17
  7
SLDTEXTSTYLE0
 73
     1
 44
1.0
  0
MTEXT
  5
116
330
1F
100
AcDbEntity
  8
0
  6
Continuous
 62
     7
370
     0
100
AcDbMText
 10
424.4200738929
 20
9.465024576
 30
0.0
 40
3.96875
 41
0.0
 71
     2
 72
     1
  1
16
  7
SLDTEXTSTYLE0
 73
     1
 44
1.0
  0
MTEXT
  5
117
330
1F
100
AcDbEntity
  8
0
  6
Continuous
 62
     7
370
     0
100
AcDbMText
 10
424.4200738929
 20
835.465024576
 30
0.0
 40
3.96875
 41
0.0
 71
     2
 72
     1
  1
16
  7
SLDTEXTSTYLE0
 73
     1
 44
1.0
  0
MTEXT
  5
118
330
1F
100
AcDbEntity
  8
0
  6
Continuous
 62
     7
370
     0
100
AcDbMText
 10
474.4200738929
 20
9.465024576
 30
0.0
 40
3.96875
 41
0.0
 71
     2
 72
     1
  1
15
  7
SLDTEXTSTYLE0
 73
     1
 44
1.0
  0
MTEXT
  5
119
330
1F
100
AcDbEntity
  8
0
  6
Continuous
 62
     7
370
     0
100
AcDbMText
 10
474.4200738929
 20
835.465024576
 30
0.0
 40
3.96875
 41
0.0
 71
     2
 72
     1
  1
15
  7
SLDTEXTSTYLE0
 73
     1
 44
1.0
  0
MTEXT
  5
11A
330
1F
100
AcDbEntity
  8
0
  6
Continuous
 62
     7
370
     0
100
AcDbMText
 10
524.4200738929
 20
9.465024576
 30
0.0
 40
3.96875
 41
0.0
 71
     2
 72
     1
  1
14
  7
SLDTEXTSTYLE0
 73
     1
 44
1.0
  0
MTEXT
  5
11B
330
1F
100
AcDbEntity
  8
0
  6
Continuous
 62
     7
370
     0
100
AcDbMText
 10
524.4200738929
 20
835.465024576
 30
0.0
 40
3.96875
 41
0.0
 71
     2
 72
     1
  1
14
  7
SLDTEXTSTYLE0
 73
     1
 44
1.0
  0
MTEXT
  5
11C
330
1F
100
AcDbEntity
  8
0
  6
Continuous
 62
     7
370
     0
100
AcDbMText
 10
574.4200738929
 20
9.465024576
 30
0.0
 40
3.96875
 41
0.0
 71
     2
 72
     1
  1
13
  7
SLDTEXTSTYLE0
 73
     1
 44
1.0
  0
MTEXT
  5
11D
330
1F
100
AcDbEntity
  8
0
  6
Continuous
 62
     7
370
     0
100
AcDbMText
 10
574.4200738929
 20
835.465024576
 30
0.0
 40
3.96875
 41
0.0
 71
     2
 72
     1
  1
13
  7
SLDTEXTSTYLE0
 73
     1
 44
1.0
  0
MTEXT
  5
11E
330
1F
100
AcDbEntity
  8
0
  6
Continuous
 62
     7
370
     0
100
AcDbMText
 10
624.4200738929
 20
9.465024576
 30
0.0
 40
3.96875
 41
0.0
 71
     2
 72
     1
  1
12
  7
SLDTEXTSTYLE0
 73
     1
 44
1.0
  0
MTEXT
  5
11F
330
1F
100
AcDbEntity
  8
0
  6
Continuous
 62
     7
370
     0
100
AcDbMText
 10
624.4200738929
 20
835.465024576
 30
0.0
 40
3.96875
 41
0.0
 71
     2
 72
     1
  1
12
  7
SLDTEXTSTYLE0
 73
     1
 44
1.0
  0
MTEXT
  5
120
330
1F
100
AcDbEntity
  8
0
  6
Continuous
 62
     7
370
     0
100
AcDbMText
 10
674.4200738929
 20
9.465024576
 30
0.0
 40
3.96875
 41
0.0
 71
     2
 72
     1
  1
11
  7
SLDTEXTSTYLE0
 73
     1
 44
1.0
  0
MTEXT
  5
121
330
1F
100
AcDbEntity
  8
0
  6
Continuous
 62
     7
370
     0
100
AcDbMText
 10
674.4200738929
 20
835.465024576
 30
0.0
 40
3.96875
 41
0.0
 71
     2
 72
     1
  1
11
  7
SLDTEXTSTYLE0
 73
     1
 44
1.0
  0
MTEXT
  5
122
330
1F
100
AcDbEntity
  8
0
  6
Continuous
 62
     7
370
     0
100
AcDbMText
 10
724.4200738929
 20
9.465024576
 30
0.0
 40
3.96875
 41
0.0
 71
     2
 72
     1
  1
10
  7
SLDTEXTSTYLE0
 73
     1
 44
1.0
  0
MTEXT
  5
123
330
1F
100
AcDbEntity
  8
0
  6
Continuous
 62
     7
370
     0
100
AcDbMText
 10
724.4200738929
 20
835.465024576
 30
0.0
 40
3.96875
 41
0.0
 71
     2
 72
     1
  1
10
  7
SLDTEXTSTYLE0
 73
     1
 44
1.0
  0
MTEXT
  5
124
330
1F
100
AcDbEntity
  8
0
  6
Continuous
 62
     7
370
     0
100
AcDbMText
 10
774.4600369465
 20
9.465024576
 30
0.0
 40
3.96875
 41
0.0
 71
     2
 72
     1
  1
9
  7
SLDTEXTSTYLE0
 73
     1
 44
1.0
  0
MTEXT
  5
125
330
1F
100
AcDbEntity
  8
0
  6
Continuous
 62
     7
370
     0
100
AcDbMText
 10
774.4600369465
 20
835.465024576
 30
0.0
 40
3.96875
 41
0.0
 71
     2
 72
     1
  1
9
  7
SLDTEXTSTYLE0
 73
     1
 44
1.0
  0
MTEXT
  5
126
330
1F
100
AcDbEntity
  8
0
  6
Continuous
 62
     7
370
     0
100
AcDbMText
 10
824.4600369465
 20
9.465024576
 30
0.0
 40
3.96875
 41
0.0
 71
     2
 72
     1
  1
8
  7
SLDTEXTSTYLE0
 73
     1
 44
1.0
  0
MTEXT
  5
127
330
1F
100
AcDbEntity
  8
0
  6
Continuous
 62
     7
370
     0
100
AcDbMText
 10
824.4600369465
 20
835.465024576
 30
0.0
 40
3.96875
 41
0.0
 71
     2
 72
     1
  1
8
  7
SLDTEXTSTYLE0
 73
     1
 44
1.0
  0
MTEXT
  5
128
330
1F
100
AcDbEntity
  8
0
  6
Continuous
 62
     7
370
     0
100
AcDbMText
 10
874.4600369465
 20
9.465024576
 30
0.0
 40
3.96875
 41
0.0
 71
     2
 72
     1
  1
7
  7
SLDTEXTSTYLE0
 73
     1
 44
1.0
  0
MTEXT
  5
129
330
1F
100
AcDbEntity
  8
0
  6
Continuous
 62
     7
370
     0
100
AcDbMText
 10
874.4600369465
 20
835.465024576
 30
0.0
 40
3.96875
 41
0.0
 71
     2
 72
     1
  1
7
  7
SLDTEXTSTYLE0
 73
     1
 44
1.0
  0
MTEXT
  5
12A
330
1F
100
AcDbEntity
  8
0
  6
Continuous
 62
     7
370
     0
100
AcDbMText
 10
924.4600369465
 20
9.465024576
 30
0.0
 40
3.96875
 41
0.0
 71
     2
 72
     1
  1
6
  7
SLDTEXTSTYLE0
 73
     1
 44
1.0
  0
MTEXT
  5
12B
330
1F
100
AcDbEntity
  8
0
  6
Continuous
 62
     7
370
     0
100
AcDbMText
 10
924.4600369465
 20
835.465024576
 30
0.0
 40
3.96875
 41
0.0
 71
     2
 72
     1
  1
6
  7
SLDTEXTSTYLE0
 73
     1
 44
1.0
  0
MTEXT
  5
12C
330
1F
100
AcDbEntity
  8
0
  6
Continuous
 62
     7
370
     0
100
AcDbMText
 10
974.4600369465
 20
9.465024576
 30
0.0
 40
3.96875
 41
0.0
 71
     2
 72
     1
  1
5
  7
SLDTEXTSTYLE0
 73
     1
 44
1.0
  0
MTEXT
  5
12D
330
1F
100
AcDbEntity
  8
0
  6
Continuous
 62
     7
370
     0
100
AcDbMText
 10
974.4600369465
 20
835.465024576
 30
0.0
 40
3.96875
 41
0.0
 71
     2
 72
     1
  1
5
  7
SLDTEXTSTYLE0
 73
     1
 44
1.0
  0
MTEXT
  5
12E
330
1F
100
AcDbEntity
  8
0
  6
Continuous
 62
     7
370
     0
100
AcDbMText
 10
1024.4600369465
 20
9.465024576
 30
0.0
 40
3.96875
 41
0.0
 71
     2
 72
     1
  1
4
  7
SLDTEXTSTYLE0
 73
     1
 44
1.0
  0
MTEXT
  5
12F
330
1F
100
AcDbEntity
  8
0
  6
Continuous
 62
     7
370
     0
100
AcDbMText
 10
1024.4600369465
 20
835.465024576
 30
0.0
 40
3.96875
 41
0.0
 71
     2
 72
     1
  1
4
  7
SLDTEXTSTYLE0
 73
     1
 44
1.0
  0
MTEXT
  5
130
330
1F
100
AcDbEntity
  8
0
  6
Continuous
 62
     7
370
     0
100
AcDbMText
 10
1074.4600369465
 20
9.465024576
 30
0.0
 40
3.96875
 41
0.0
 71
     2
 72
     1
  1
3
  7
SLDTEXTSTYLE0
 73
     1
 44
1.0
  0
MTEXT
  5
131
330
1F
100
AcDbEntity
  8
0
  6
Continuous
 62
     7
370
     0
100
AcDbMText
 10
1074.4600369465
 20
835.465024576
 30
0.0
 40
3.96875
 41
0.0
 71
     2
 72
     1
  1
3
  7
SLDTEXTSTYLE0
 73
     1
 44
1.0
  0
MTEXT
  5
132
330
1F
100
AcDbEntity
  8
0
  6
Continuous
 62
     7
370
     0
100
AcDbMText
 10
1124.4600369465
 20
9.465024576
 30
0.0
 40
3.96875
 41
0.0
 71
     2
 72
     1
  1
2
  7
SLDTEXTSTYLE0
 73
     1
 44
1.0
  0
MTEXT
  5
133
330
1F
100
AcDbEntity
  8
0
  6
Continuous
 62
     7
370
     0
100
AcDbMText
 10
1124.4600369465
 20
835.465024576
 30
0.0
 40
3.96875
 41
0.0
 71
     2
 72
     1
  1
2
  7
SLDTEXTSTYLE0
 73
     1
 44
1.0
  0
MTEXT
  5
134
330
1F
100
AcDbEntity
  8
0
  6
Continuous
 62
     7
370
     0
100
AcDbMText
 10
1164.2100369465
 20
9.465024576
 30
0.0
 40
3.96875
 41
0.0
 71
     2
 72
     1
  1
1
  7
SLDTEXTSTYLE0
 73
     1
 44
1.0
  0
MTEXT
  5
135
330
1F
100
AcDbEntity
  8
0
  6
Continuous
 62
     7
370
     0
100
AcDbMText
 10
1164.2100369465
 20
835.465024576
 30
0.0
 40
3.96875
 41
0.0
 71
     2
 72
     1
  1
1
  7
SLDTEXTSTYLE0
 73
     1
 44
1.0
  0
MTEXT
  5
137
330
1F
100
AcDbEntity
  8
0
  6
Continuous
 62
     7
370
     0
100
AcDbMText
 10
999.6433628979
 20
42.3847813173
 30
0.0
 40
1.5
 41
0.0
 71
     1
 72
     1
  1
DRAWN
  7
SLDTEXTSTYLE1
 73
     1
 44
1.0
  0
MTEXT
  5
138
330
1F
100
AcDbEntity
  8
0
  6
Continuous
 62
     7
370
     0
100
AcDbMText
 10
999.9392221937
 20
38.1618530186
 30
0.0
 40
1.5
 41
0.0
 71
     1
 72
     1
  1
CHK'D
  7
SLDTEXTSTYLE0
 73
     1
 44
1.0
  0
MTEXT
  5
139
330
1F
100
AcDbEntity
  8
0
  6
Continuous
 62
     7
370
     0
100
AcDbMText
 10
999.4017224083
 20
34.0658666243
 30
0.0
 40
1.5
 41
0.0
 71
     1
 72
     1
  1
APPV'D
  7
SLDTEXTSTYLE0
 73
     1
 44
1.0
  0
MTEXT
  5
13A
330
1F
100
AcDbEntity
  8
0
  6
Continuous
 62
     7
370
     0
100
AcDbMText
 10
1000.1240107386
 20
29.7157844608
 30
0.0
 40
1.5
 41
0.0
 71
     1
 72
     1
  1
MFG
  7
SLDTEXTSTYLE0
 73
     1
 44
1.0
  0
MTEXT
  5
13B
330
1F
100
AcDbEntity
  8
0
  6
Continuous
 62
     7
370
     0
100
AcDbMText
 10
1000.509036604
 20
25.504662132
 30
0.0
 40
1.5
 41
0.0
 71
     1
 72
     1
  1
Q.A
  7
SLDTEXTSTYLE0
 73
     1
 44
1.0
  0
INSERT
  5
145
330
1F
100
AcDbEntity
  8
0
  6
Continuous
 62
     7
370
     0
100
AcDbBlockReference
  2
SW_NOTE_0
 10
999.5936687456
 20
61.9873698743
 30
0.0
  0
MTEXT
  5
146
330
1F
100
AcDbEntity
  8
0
  6
Continuous
 62
     7
370
     0
100
AcDbMText
 10
1033.3712921668
 20
63.9192719951
 30
0.0
 40
1.5
 41
0.0
 71
     1
 72
     1
  1
FINISH:
  7
SLDTEXTSTYLE0
 73
     1
 44
1.0
  0
INSERT
  5
14D
330
1F
100
AcDbEntity
  8
0
  6
Continuous
 62
     7
370
     0
100
AcDbBlockReference
  2
SW_NOTE_1
 10
1080.3092156863
 20
62.069489643
 30
0.0
  0
MTEXT
  5
14E
330
1F
100
AcDbEntity
  8
0
  6
Continuous
 62
     7
370
     0
100
AcDbMText
 10
1013.3222392177
 20
46.5014826335
 30
0.0
 40
1.5
 41
0.0
 71
     1
 72
     1
  1
NAME
  7
SLDTEXTSTYLE0
 73
     1
 44
1.0
  0
MTEXT
  5
14F
330
1F
100
AcDbEntity
  8
0
  6
Continuous
 62
     7
370
     0
100
AcDbMText
 10
1029.0335875632
 20
46.5617563795
 30
0.0
 40
1.5
 41
0.0
 71
     1
 72
     1
  1
SIGNATURE
  7
SLDTEXTSTYLE0
 73
     1
 44
1.0
  0
MTEXT
  5
150
330
1F
100
AcDbEntity
  8
0
  6
Continuous
 62
     7
370
     0
100
AcDbMText
 10
1046.2147019657
 20
46.5761792212
 30
0.0
 40
1.5
 41
0.0
 71
     1
 72
     1
  1
DATE
  7
SLDTEXTSTYLE0
 73
     1
 44
1.0
  0
MTEXT
  5
151
330
1F
100
AcDbEntity
  8
0
  6
Continuous
 62
     7
370
     0
100
AcDbMText
 10
1054.6458623088
 20
25.9860562892
 30
0.0
 40
1.5
 41
0.0
 71
     1
 72
     1
  1
MATERIAL:
  7
SLDTEXTSTYLE0
 73
     1
 44
1.0
  0
MTEXT
  5
152
330
1F
100
AcDbEntity
  8
0
  6
Continuous
 62
     7
370
     0
100
AcDbMText
 10
1111.6146405229
 20
62.5329935751
 30
0.0
 40
1.5
 41
0.0
 71
     1
 72
     1
  1
DO NOT SCALE DRAWING
  7
SLDTEXTSTYLE0
 73
     1
 44
1.0
  0
MTEXT
  5
153
330
1F
100
AcDbEntity
  8
0
  6
Continuous
 62
     7
370
     0
100
AcDbMText
 10
1152.3275816993
 20
62.3349086805
 30
0.0
 40
1.5
 41
0.0
 71
     1
 72
     1
  1
REVISION
  7
SLDTEXTSTYLE0
 73
     1
 44
1.0
  0
MTEXT
  5
154
330
1F
100
AcDbEntity
  8
0
  6
Continuous
 62
     7
370
     0
100
AcDbMText
 10
1099.090160639
 20
46.5761792212
 30
0.0
 40
1.5
 41
0.0
 71
     1
 72
     1
  1
TITLE:
  7
SLDTEXTSTYLE0
 73
     1
 44
1.0
  0
MTEXT
  5
155
330
1F
100
AcDbEntity
  8
0
  6
Continuous
 62
     7
370
     0
100
AcDbMText
 10
1098.9530022162
 20
25.9860562892
 30
0.0
 40
1.5
 41
0.0
 71
     1
 72
     1
  1
DWG NO.
  7
SLDTEXTSTYLE0
 73
     1
 44
1.0
  0
MTEXT
  5
156
330
1F
100
AcDbEntity
  8
0
  6
Continuous
 62
     7
370
     0
100
AcDbMText
 10
1099.0739661175
 20
12.9000872745
 30
0.0
 40
1.5
 41
0.0
 71
     1
 72
     1
  1
SCALE:2:1
  7
SLDTEXTSTYLE0
 73
     1
 44
1.0
  0
MTEXT
  5
158
330
1F
100
AcDbEntity
  8
0
  6
Continuous
 62
     7
370
     0
100
AcDbMText
 10
1143.4782944278
 20
12.9000872745
 30
0.0
 40
1.5
 41
0.0
 71
     1
 72
     1
  1
SHEET 1 OF 1
  7
SLDTEXTSTYLE2
 73
     1
 44
1.0
  0
MTEXT
  5
159
330
1F
100
AcDbEntity
  8
0
  6
Continuous
 62
     7
370
     0
100
AcDbMText
 10
1169.8711564346
 20
24.406388569
 30
0.0
 40
2.9104166667
 41
0.0
 71
     1
 72
     1
  1
A0
  7
SLDTEXTSTYLE0
 73
     1
 44
1.0
  0
MTEXT
  5
15A
330
1F
100
AcDbEntity
  8
0
  6
Continuous
 62
     7
370
     0
100
AcDbMText
 10
1054.6178111281
 20
12.9493119036
 30
0.0
 40
1.4986
 41
0.0
 71
     1
 72
     1
  1
WEIGHT:
  7
SLDTEXTSTYLE0
 73
     1
 44
1.0
  0
MTEXT
  5
15B
330
1F
100
AcDbEntity
  8
0
  6
Continuous
 62
     7
370
     0
100
AcDbMText
 10
1133.9353499278
 20
23.6069109673
 30
0.0
 40
6.35
 41
0.0
 71
     2
 72
     1
  1
00007482 - 154 Oberteil H
  7
SLDTEXTSTYLE0
 73
     1
 44
1.0
  0
LINE
  5
15C
330
1F
100
AcDbEntity
  8
0
  6
Continuous
 62
     7
370
    15
100
AcDbLine
 10
497.9169534402
 20
574.5171655463
 30
0.0
 11
497.9137510439
 21
574.5167439429
 31
0.0
  0
LINE
  5
15D
330
1F
100
AcDbEntity
  8
0
  6
Continuous
 62
     7
370
    15
100
AcDbLine
 10
648.3430910657
 20
270.79348772
 30
0.0
 11
648.3462934619
 21
270.7939093235
 31
0.0
  0
SPLINE
  5
15E
330
1F
100
AcDbEntity
  8
0
  6
Continuous
 62
     7
370
    15
100
AcDbSpline
210
0.0
220
0.0
230
1.0
 70
     8
 71
     3
 72
     8
 73
     4
 74
     0
 42
0.000000001
 43
0.00000001
 40
0.0
 40
0.0
 40
0.0
 40
0.0
 40
0.0001926431712635
 40
0.0001926431712635
 40
0.0001926431712635
 40
0.0001926431712635
 10
512.3316396515979
 20
272.7704874688687
 30
0.0
 10
512.3305626377789
 20
272.8983203586349
 30
0.0
 10
512.330022252903
 20
273.0268978523234
 30
0.0
 10
512.330022252903
 20
273.1553266331657
 30
0.0
  0
LINE
  5
15F
330
1F
100
AcDbEntity
  8
0
  6
Continuous
 62
     7
370
    15
100
AcDbLine
 10
512.3300222529
 20
273.1553266332
 30
0.0
 11
512.3300222529
 21
572.1553266332
 31
0.0
  0
SPLINE
  5
160
330
1F
100
AcDbEntity
  8
0
  6
Continuous
 62
     7
370
    15
100
AcDbSpline
210
0.0
220
0.0
230
1.0
 70
     8
 71
     3
 72
     8
 73
     4
 74
     0
 42
0.000000001
 43
0.00000001
 40
0.0
 40
0.0
 40
0.0
 40
0.0
 40
0.0001926431712635
 40
0.0001926431712635
 40
0.0001926431712635
 40
0.0001926431712635
 10
512.3300222529026
 20
572.1553266331657
 30
0.0
 10
512.3300222529026
 20
572.283755414008
 30
0.0
 10
512.3305626377789
 20
572.4123329076964
 30
0.0
 10
512.3316396515979
 20
572.5401657974627
 30
0.0
  0
LINE
  5
161
330
1F
100
AcDbEntity
  8
0
  6
Continuous
 62
     7
370
    15
100
AcDbLine
 10
512.3316396516
 20
548.8209453661
 30
0.0
 11
512.3475199856
 21
548.8050650321
 31
0.0
  0
LINE
  5
162
330
1F
100
AcDbEntity
  8
0
  6
Continuous
 62
     7
370
    15
100
AcDbLine
 10
512.3475199856
 20
548.8050650321
 30
0.0
 11
512.3475199856
 21
296.5055882343
 31
0.0
  0
LINE
  5
163
330
1F
100
AcDbEntity
  8
0
  6
Continuous
 62
     7
370
    15
100
AcDbLine
 10
512.3475199856
 20
296.5055882343
 30
0.0
 11
512.3316396516
 21
296.4897079003
 31
0.0
  0
LINE
  5
164
330
1F
100
AcDbEntity
  8
0
  6
Continuous
 62
     7
370
    15
100
AcDbLine
 10
512.3316396516
 20
548.8209453661
 30
0.0
 11
512.3316396516
 21
572.5401657975
 31
0.0
  0
LINE
  5
165
330
1F
100
AcDbEntity
  8
0
  6
Continuous
 62
     7
370
    15
100
AcDbLine
 10
512.3316396516
 20
272.7704874689
 30
0.0
 11
512.3316396516
 21
296.4897079003
 31
0.0
  0
LINE
  5
166
330
1F
100
AcDbEntity
  8
0
  6
Continuous
 62
     7
370
    15
100
AcDbLine
 10
633.9284048542
 20
296.4897079003
 30
0.0
 11
633.9125245202
 21
296.5055882343
 31
0.0
  0
LINE
  5
167
330
1F
100
AcDbEntity
  8
0
  6
Continuous
 62
     7
370
    15
100
AcDbLine
 10
633.9125245202
 20
296.5055882343
 30
0.0
 11
633.9125245202
 21
548.8050650321
 31
0.0
  0
LINE
  5
168
330
1F
100
AcDbEntity
  8
0
  6
Continuous
 62
     7
370
    15
100
AcDbLine
 10
633.9125245202
 20
548.8050650321
 30
0.0
 11
633.9284048542
 21
548.8209453661
 31
0.0
  0
SPLINE
  5
169
330
1F
100
AcDbEntity
  8
0
  6
Continuous
 62
     7
370
    15
100
AcDbSpline
210
0.0
220
0.0
230
1.0
 70
     8
 71
     3
 72
     8
 73
     4
 74
     0
 42
0.000000001
 43
0.00000001
 40
0.0
 40
0.0
 40
0.0
 40
0.0
 40
0.0001926431712635
 40
0.0001926431712635
 40
0.0001926431712635
 40
0.0001926431712635
 10
633.9284048542074
 20
572.5401657974627
 30
0.0
 10
633.9294818680263
 20
572.4123329076964
 30
0.0
 10
633.9300222529024
 20
572.283755414008
 30
0.0
 10
633.9300222529024
 20
572.1553266331657
 30
0.0
  0
LINE
  5
16A
330
1F
100
AcDbEntity
  8
0
  6
Continuous
 62
     7
370
    15
100
AcDbLine
 10
633.9300222529
 20
572.1553266332
 30
0.0
 11
633.9300222529
 21
273.1553266332
 31
0.0
  0
SPLINE
  5
16B
330
1F
100
AcDbEntity
  8
0
  6
Continuous
 62
     7
370
    15
100
AcDbSpline
210
0.0
220
0.0
230
1.0
 70
     8
 71
     3
 72
     8
 73
     4
 74
     0
 42
0.000000001
 43
0.00000001
 40
0.0
 40
0.0
 40
0.0
 40
0.0
 40
0.0001926431712635
 40
0.0001926431712635
 40
0.0001926431712635
 40
0.0001926431712635
 10
633.9300222529027
 20
273.1553266331657
 30
0.0
 10
633.9300222529027
 20
273.0268978523234
 30
0.0
 10
633.9294818680263
 20
272.8983203586349
 30
0.0
 10
633.9284048542074
 20
272.7704874688687
 30
0.0
  0
LINE
  5
16C
330
1F
100
AcDbEntity
  8
0
  6
Continuous
 62
     7
370
    15
100
AcDbLine
 10
633.9284048542
 20
296.4897079003
 30
0.0
 11
633.9284048542
 21
272.7704874689
 31
0.0
  0
LINE
  5
16D
330
1F
100
AcDbEntity
  8
0
  6
Continuous
 62
     7
370
    15
100
AcDbLine
 10
633.9284048542
 20
572.5401657975
 30
0.0
 11
633.9284048542
 21
548.8209453661
 31
0.0
  0
LINE
  5
16E
330
1F
100
AcDbEntity
  8
0
  6
Continuous
 62
     7
370
    15
100
AcDbLine
 10
633.9300222529
 20
572.1553266332
 30
0.0
 11
636.0573640134
 21
572.1553266332
 31
0.0
  0
LINE
  5
16F
330
1F
100
AcDbEntity
  8
0
  6
Continuous
 62
     7
370
    15
100
AcDbLine
 10
634.0334881416
 20
576.1553266332
 30
0.0
 11
635.9000222529
 21
576.1553266332
 31
0.0
  0
SPLINE
  5
170
330
1F
100
AcDbEntity
  8
0
  6
Continuous
 62
     7
370
    15
100
AcDbSpline
210
0.0
220
0.0
230
1.0
 70
    24
 71
     3
 72
     8
 73
     4
 74
     0
 42
0.000000001
 43
0.00000001
 40
0.0
 40
0.0
 40
0.0
 40
0.0
 40
0.0000274193402574
 40
0.0000274193402574
 40
0.0000274193402574
 40
0.0000274193402574
 10
635.9028693881287
 20
576.1549518007025
 30
0.0
 10
635.9009686176305
 20
576.1552020418859
 30
0.0
 10
635.9000222529027
 20
576.1553266331659
 30
0.0
 10
635.9000222529027
 20
576.1553266331659
 30
0.0
  0
SPLINE
  5
171
330
1F
100
AcDbEntity
  8
0
  6
Continuous
 62
     7
370
    15
100
AcDbSpline
210
0.0
220
0.0
230
1.0
 70
     8
 71
     3
 72
    27
 73
    23
 74
     0
 42
0.000000001
 43
0.00000001
 40
0.0
 40
0.0
 40
0.0
 40
0.0
 40
0.0463956735524624
 40
0.0911524384092641
 40
0.1342702432371817
 40
0.1757490439395001
 40
0.2155888039651187
 40
0.25378949472185
 40
0.2903510961263295
 40
0.325273597331029
 40
0.3585569976815103
 40
0.390201307974915
 40
0.4202065521158977
 40
0.4485727693053714
 40
0.4753000169531442
 40
0.5003883745938383
 40
0.587787590447509
 40
0.6735286643256091
 40
0.7576158283825694
 40
0.84005356327654
 40
0.9208466125012497
 40
1.0
 40
1.0
 40
1.0
 40
1.0
 10
636.057364013378
 20
572.1553266331659
 30
0.0
 10
636.0633727126083
 20
572.2515313892899
 30
0.0
 10
636.0751778561608
 20
572.440542506832
 30
0.0
 10
636.0896851470636
 20
572.7175491363498
 30
0.0
 10
636.1017014807677
 20
572.9818301343379
 30
0.0
 10
636.1112586857188
 20
573.2325546729707
 30
0.0
 10
636.1186347885997
 20
573.4691493118376
 30
0.0
 10
636.1240361320777
 20
573.691272554021
 30
0.0
 10
636.1276753656791
 20
573.898787837702
 30
0.0
 10
636.1297498934388
 20
574.0917371577971
 30
0.0
 10
636.1304460603639
 20
574.2703154329985
 30
0.0
 10
636.1299368949518
 20
574.4348456944449
 30
0.0
 10
636.1283833320914
 20
574.5857566185355
 30
0.0
 10
636.1259298528535
 20
574.723558134729
 30
0.0
 10
636.1227191482494
 20
574.8488305391774
 30
0.0
 10
636.115549739801
 20
575.0584786568733
 30
0.0
 10
636.1007076930105
 20
575.3320960275286
 30
0.0
 10
636.073160341505
 20
575.6297285514033
 30
0.0
 10
636.0386983243569
 20
575.8618797361121
 30
0.0
 10
635.9982843460159
 20
576.02650141855
 30
0.0
 10
635.9533068537457
 20
576.1303917391996
 30
0.0
 10
635.919566582591
 20
576.1468212549293
 30
0.0
 10
635.9028693881318
 20
576.1549518007021
 30
0.0
  0
SPLINE
  5
172
330
1F
100
AcDbEntity
  8
0
  6
Continuous
 62
     7
370
    15
100
AcDbSpline
210
0.0
220
0.0
230
1.0
 70
     8
 71
     3
 72
    18
 73
    14
 74
     0
 42
0.000000001
 43
0.00000001
 40
0.0
 40
0.0
 40
0.0
 40
0.0
 40
0.249999999999996
 40
0.249999999999996
 40
0.3749999999999972
 40
0.3749999999999972
 40
0.4999999999999984
 40
0.4999999999999984
 40
0.6249999999999997
 40
0.6249999999999997
 40
0.7500000000000009
 40
0.7500000000000009
 40
1.0
 40
1.0
 40
1.0
 40
1.0
 10
634.0334881415662
 20
576.1553266331659
 30
0.0
 10
634.0204510243269
 20
576.1553266331659
 30
0.0
 10
634.0077061384026
 20
576.0653496985951
 30
0.0
 10
633.9895136168179
 20
575.8001591651594
 30
0.0
 10
633.9837386300061
 20
575.6918328326276
 30
0.0
 10
633.9727532612562
 20
575.4362701054025
 30
0.0
 10
633.9674936472763
 20
575.2871959253952
 30
0.0
 10
633.957863726095
 20
574.9572633666171
 30
0.0
 10
633.9534939956287
 20
574.7772218929953
 30
0.0
 10
633.9456378838398
 20
574.3872293344908
 30
0.0
 10
633.9421301317504
 20
574.1750490088269
 30
0.0
 10
633.9333663874052
 20
573.5161094135248
 30
0.0
 10
633.9296696448846
 20
573.035970847848
 30
0.0
 10
633.9284048542074
 20
572.5401657974627
 30
0.0
  0
LINE
  5
173
330
1F
100
AcDbEntity
  8
0
  6
Continuous
 62
     7
370
    15
100
AcDbLine
 10
512.3300222529
 20
273.1553266332
 30
0.0
 11
510.2026804924
 21
273.1553266332
 31
0.0
  0
LINE
  5
174
330
1F
100
AcDbEntity
  8
0
  6
Continuous
 62
     7
370
    15
100
AcDbLine
 10
512.2265563642
 20
269.1553266332
 30
0.0
 11
510.3600222529
 21
269.1553266332
 31
0.0
  0
SPLINE
  5
175
330
1F
100
AcDbEntity
  8
0
  6
Continuous
 62
     7
370
    15
100
AcDbSpline
210
0.0
220
0.0
230
1.0
 70
    24
 71
     3
 72
     8
 73
     4
 74
     0
 42
0.000000001
 43
0.00000001
 40
0.0
 40
0.0
 40
0.0
 40
0.0
 40
0.0000274193402574
 40
0.0000274193402574
 40
0.0000274193402574
 40
0.0000274193402574
 10
510.3571751176767
 20
269.1557014656294
 30
0.0
 10
510.3590758881749
 20
269.1554512244459
 30
0.0
 10
510.3600222529027
 20
269.1553266331659
 30
0.0
 10
510.3600222529027
 20
269.1553266331659
 30
0.0
  0
SPLINE
  5
176
330
1F
100
AcDbEntity
  8
0
  6
Continuous
 62
     7
370
    15
100
AcDbSpline
210
0.0
220
0.0
230
1.0
 70
     8
 71
     3
 72
    27
 73
    23
 74
     0
 42
0.000000001
 43
0.00000001
 40
0.0
 40
0.0
 40
0.0
 40
0.0
 40
0.0463956735524624
 40
0.0911524384092641
 40
0.1342702432371818
 40
0.1757490439395002
 40
0.2155888039651187
 40
0.2537894947218501
 40
0.2903510961263296
 40
0.3252735973310291
 40
0.3585569976815104
 40
0.3902013079749151
 40
0.4202065521158979
 40
0.4485727693053715
 40
0.4753000169531444
 40
0.5003883745938384
 40
0.5877875904475092
 40
0.6735286643256094
 40
0.7576158283825677
 40
0.8400535632765399
 40
0.9208466125012496
 40
1.0
 40
1.0
 40
1.0
 40
1.0
 10
510.2026804924274
 20
273.1553266331657
 30
0.0
 10
510.196671793197
 20
273.0591218770417
 30
0.0
 10
510.1848666496444
 20
272.8701107594997
 30
0.0
 10
510.1703593587417
 20
272.5931041299817
 30
0.0
 10
510.1583430250376
 20
272.3288231319937
 30
0.0
 10
510.1487858200865
 20
272.0780985933609
 30
0.0
 10
510.1414097172056
 20
271.841503954494
 30
0.0
 10
510.1360083737276
 20
271.6193807123106
 30
0.0
 10
510.1323691401262
 20
271.4118654286297
 30
0.0
 10
510.1302946123666
 20
271.2189161085345
 30
0.0
 10
510.1295984454415
 20
271.0403378333332
 30
0.0
 10
510.1301076108535
 20
270.8758075718868
 30
0.0
 10
510.1316611737139
 20
270.724896647796
 30
0.0
 10
510.1341146529519
 20
270.5870951316026
 30
0.0
 10
510.1373253575558
 20
270.4618227271542
 30
0.0
 10
510.1444947660043
 20
270.2521746094584
 30
0.0
 10
510.1593368127949
 20
269.978557238803
 30
0.0
 10
510.1868841643004
 20
269.6809247149282
 30
0.0
 10
510.2213461814484
 20
269.4487735302196
 30
0.0
 10
510.2617601597894
 20
269.2841518477816
 30
0.0
 10
510.3067376520596
 20
269.180261527132
 30
0.0
 10
510.3404779232143
 20
269.1638320114023
 30
0.0
 10
510.3571751176735
 20
269.1557014656296
 30
0.0
  0
SPLINE
  5
177
330
1F
100
AcDbEntity
  8
0
  6
Continuous
 62
     7
370
    15
100
AcDbSpline
210
0.0
220
0.0
230
1.0
 70
     8
 71
     3
 72
    18
 73
    14
 74
     0
 42
0.000000001
 43
0.00000001
 40
0.0
 40
0.0
 40
0.0
 40
0.0
 40
0.2499999999999963
 40
0.2499999999999963
 40
0.3749999999999969
 40
0.3749999999999969
 40
0.4999999999999976
 40
0.4999999999999976
 40
0.6249999999999981
 40
0.6249999999999981
 40
0.7499999999999988
 40
0.7499999999999988
 40
1.0
 40
1.0
 40
1.0
 40
1.0
 10
512.2265563642391
 20
269.1553266331659
 30
0.0
 10
512.2395934814784
 20
269.1553266331659
 30
0.0
 10
512.2523383674027
 20
269.2453035677366
 30
0.0
 10
512.2705308889872
 20
269.5104941011725
 30
0.0
 10
512.2763058757992
 20
269.6188204337042
 30
0.0
 10
512.2872912445491
 20
269.8743831609291
 30
0.0
 10
512.292550858529
 20
270.0234573409367
 30
0.0
 10
512.3021807797104
 20
270.3533898997146
 30
0.0
 10
512.3065505101766
 20
270.5334313733364
 30
0.0
 10
512.3144066219655
 20
270.9234239318408
 30
0.0
 10
512.3179143740548
 20
271.1356042575045
 30
0.0
 10
512.3266781184002
 20
271.7945438528069
 30
0.0
 10
512.3303748609208
 20
272.2746824184835
 30
0.0
 10
512.3316396515979
 20
272.7704874688687
 30
0.0
  0
LINE
  5
178
330
1F
100
AcDbEntity
  8
0
  6
Continuous
 62
     7
370
    15
100
AcDbLine
 10
633.9300222529
 20
273.1553266332
 30
0.0
 11
636.0573640134
 21
273.1553266332
 31
0.0
  0
SPLINE
  5
179
330
1F
100
AcDbEntity
  8
0
  6
Continuous
 62
     7
370
    15
100
AcDbSpline
210
0.0
220
0.0
230
1.0
 70
     8
 71
     3
 72
    25
 73
    21
 74
     0
 42
0.000000001
 43
0.00000001
 40
0.0
 40
0.0
 40
0.0
 40
0.0
 40
0.0429870311966877
 40
0.0864622485155582
 40
0.1304265143056281
 40
0.1748806645603942
 40
0.2198255099644768
 40
0.2652618368445891
 40
0.311190408027782
 40
0.3576119636112835
 40
0.4045272216471426
 40
0.4519368787468849
 40
0.4998416106104217
 40
0.551639868089245
 40
0.6099909129477767
 40
0.6748940038208465
 40
0.7463480234074851
 40
0.8243515420581412
 40
0.9089028543176624
 40
0.9999999999999999
 40
0.9999999999999999
 40
0.9999999999999999
 40
0.9999999999999999
 10
635.9028693881318
 20
269.1557014656298
 30
0.0
 10
635.91203613775
 20
269.1586537870968
 30
0.0
 10
635.9304737400104
 20
269.1645919583376
 30
0.0
 10
635.9565717690415
 20
269.1966223714373
 30
0.0
 10
635.9815595095735
 20
269.2461594002795
 30
0.0
 10
636.0051725419111
 20
269.3152557749918
 30
0.0
 10
636.0272891192143
 20
269.4037360198007
 30
0.0
 10
636.0477403755771
 20
269.5118958764594
 30
0.0
 10
636.0663635325907
 20
269.6397559354178
 30
0.0
 10
636.0829866715105
 20
269.7872544602712
 30
0.0
 10
636.0974412828308
 20
269.9541849175435
 30
0.0
 10
636.1095332791133
 20
270.1402038631539
 30
0.0
 10
636.1193822563658
 20
270.3496577766926
 30
0.0
 10
636.1265735638242
 20
270.592537644896
 30
0.0
 10
636.130537857315
 20
270.8815264773937
 30
0.0
 10
636.1303352474304
 20
271.2250569539015
 30
0.0
 10
636.1246425492892
 20
271.6261327922641
 30
0.0
 10
636.1117565800866
 20
272.0856981955404
 30
0.0
 10
636.0906739473072
 20
272.6018311944553
 30
0.0
 10
636.0687397956315
 20
272.9663006326259
 30
0.0
 10
636.0573640133784
 20
273.1553266331659
 30
0.0
  0
SPLINE
  5
17A
330
1F
100
AcDbEntity
  8
0
  6
Continuous
 62
     7
370
    15
100
AcDbSpline
210
0.0
220
0.0
230
1.0
 70
    24
 71
     3
 72
     8
 73
     4
 74
     0
 42
0.000000001
 43
0.00000001
 40
0.0
 40
0.0
 40
0.0
 40
0.0
 40
0.0000274193402719
 40
0.0000274193402719
 40
0.0000274193402719
 40
0.0000274193402719
 10
635.9000222529028
 20
269.1553266331659
 30
0.0
 10
635.9000222529028
 20
269.1553266331659
 30
0.0
 10
635.9009686176313
 20
269.155451224446
 30
0.0
 10
635.9028693881316
 20
269.1557014656298
 30
0.0
  0
LINE
  5
17B
330
1F
100
AcDbEntity
  8
0
  6
Continuous
 62
     7
370
    15
100
AcDbLine
 10
635.9000222529
 20
269.1553266332
 30
0.0
 11
634.0334881416
 21
269.1553266332
 31
0.0
  0
SPLINE
  5
17C
330
1F
100
AcDbEntity
  8
0
  6
Continuous
 62
     7
370
    15
100
AcDbSpline
210
0.0
220
0.0
230
1.0
 70
     8
 71
     3
 72
    18
 73
    14
 74
     0
 42
0.000000001
 43
0.00000001
 40
0.0
 40
0.0
 40
0.0
 40
0.0
 40
0.2499999999999907
 40
0.2499999999999907
 40
0.3749999999999922
 40
0.3749999999999922
 40
0.4999999999999938
 40
0.4999999999999938
 40
0.6249999999999953
 40
0.6249999999999953
 40
0.7499999999999969
 40
0.7499999999999969
 40
1.0
 40
1.0
 40
1.0
 40
1.0
 10
633.9284048542074
 20
272.7704874688687
 30
0.0
 10
633.9296693643169
 20
272.2747924026141
 30
0.0
 10
633.9333170027329
 20
271.7987998462872
 30
0.0
 10
633.9421197172392
 20
271.1361175387668
 30
0.0
 10
633.9455517756668
 20
270.9283217946437
 30
0.0
 10
633.9533850691416
 20
270.5382307203807
 30
0.0
 10
633.9578402349679
 20
270.3543318036761
 30
0.0
 10
633.9674525407568
 20
270.0247295471373
 30
0.0
 10
633.9726087887319
 20
269.878176858003
 30
0.0
 10
633.9836155753761
 20
269.6212608527346
 30
0.0
 10
633.9895086730851
 20
269.510707393772
 30
0.0
 10
634.0075572447154
 20
269.2471933745524
 30
0.0
 10
634.0204538963661
 20
269.1553266331659
 30
0.0
 10
634.0334881415663
 20
269.1553266331659
 30
0.0
  0
LINE
  5
17D
330
1F
100
AcDbEntity
  8
0
  6
Continuous
 62
     7
370
    15
100
AcDbLine
 10
510.2026804924
 20
572.1553266332
 30
0.0
 11
512.3300222529
 21
572.1553266332
 31
0.0
  0
SPLINE
  5
17E
330
1F
100
AcDbEntity
  8
0
  6
Continuous
 62
     7
370
    15
100
AcDbSpline
210
0.0
220
0.0
230
1.0
 70
     8
 71
     3
 72
    25
 73
    21
 74
     0
 42
0.000000001
 43
0.00000001
 40
0.0
 40
0.0
 40
0.0
 40
0.0
 40
0.0429870311966877
 40
0.0864622485155582
 40
0.1304265143056281
 40
0.1748806645603942
 40
0.2198255099644768
 40
0.2652618368445891
 40
0.311190408027782
 40
0.3576119636112835
 40
0.4045272216471426
 40
0.4519368787468849
 40
0.4998416106104217
 40
0.551639868089245
 40
0.6099909129477767
 40
0.6748940038208465
 40
0.7463480234074851
 40
0.8243515420581412
 40
0.9089028543176624
 40
0.9999999999999999
 40
0.9999999999999999
 40
0.9999999999999999
 40
0.9999999999999999
 10
510.3571751176738
 20
576.1549518007018
 30
0.0
 10
510.3480083680556
 20
576.1519994792349
 30
0.0
 10
510.3295707657952
 20
576.146061307994
 30
0.0
 10
510.303472736764
 20
576.1140308948943
 30
0.0
 10
510.2784849962321
 20
576.0644938660521
 30
0.0
 10
510.2548719638945
 20
575.9953974913399
 30
0.0
 10
510.2327553865913
 20
575.9069172465308
 30
0.0
 10
510.2123041302285
 20
575.7987573898722
 30
0.0
 10
510.1936809732148
 20
575.6708973309138
 30
0.0
 10
510.177057834295
 20
575.5233988060604
 30
0.0
 10
510.1626032229748
 20
575.3564683487881
 30
0.0
 10
510.1505112266922
 20
575.1704494031777
 30
0.0
 10
510.1406622494397
 20
574.960995489639
 30
0.0
 10
510.1334709419814
 20
574.7181156214356
 30
0.0
 10
510.1295066484906
 20
574.4291267889379
 30
0.0
 10
510.1297092583752
 20
574.0855963124301
 30
0.0
 10
510.1354019565163
 20
573.6845204740675
 30
0.0
 10
510.1482879257189
 20
573.2249550707913
 30
0.0
 10
510.1693705584983
 20
572.7088220718764
 30
0.0
 10
510.1913047101741
 20
572.3443526337057
 30
0.0
 10
510.2026804924271
 20
572.1553266331657
 30
0.0
  0
SPLINE
  5
17F
330
1F
100
AcDbEntity
  8
0
  6
Continuous
 62
     7
370
    15
100
AcDbSpline
210
0.0
220
0.0
230
1.0
 70
    24
 71
     3
 72
     8
 73
     4
 74
     0
 42
0.000000001
 43
0.00000001
 40
0.0
 40
0.0
 40
0.0
 40
0.0
 40
0.0000274193402719
 40
0.0000274193402719
 40
0.0000274193402719
 40
0.0000274193402719
 10
510.3600222529026
 20
576.1553266331659
 30
0.0
 10
510.3600222529026
 20
576.1553266331659
 30
0.0
 10
510.3590758881739
 20
576.1552020418858
 30
0.0
 10
510.3571751176736
 20
576.1549518007021
 30
0.0
  0
LINE
  5
180
330
1F
100
AcDbEntity
  8
0
  6
Continuous
 62
     7
370
    15
100
AcDbLine
 10
510.3600222529
 20
576.1553266332
 30
0.0
 11
512.2265563642
 21
576.1553266332
 31
0.0
  0
SPLINE
  5
181
330
1F
100
AcDbEntity
  8
0
  6
Continuous
 62
     7
370
    15
100
AcDbSpline
210
0.0
220
0.0
230
1.0
 70
     8
 71
     3
 72
    18
 73
    14
 74
     0
 42
0.000000001
 43
0.00000001
 40
0.0
 40
0.0
 40
0.0
 40
0.0
 40
0.2500000000000058
 40
0.2500000000000058
 40
0.375000000000004
 40
0.375000000000004
 40
0.5000000000000022
 40
0.5000000000000022
 40
0.6250000000000004
 40
0.6250000000000004
 40
0.7499999999999987
 40
0.7499999999999987
 40
1.0
 40
1.0
 40
1.0
 40
1.0
 10
512.3316396515979
 20
572.5401657974627
 30
0.0
 10
512.3303751414885
 20
573.0358608637174
 30
0.0
 10
512.3267275030727
 20
573.5118534200442
 30
0.0
 10
512.3179247885663
 20
574.1745357275647
 30
0.0
 10
512.3144927301385
 20
574.3823314716878
 30
0.0
 10
512.3066594366634
 20
574.7724225459509
 30
0.0
 10
512.3022042708374
 20
574.9563214626555
 30
0.0
 10
512.2925919650485
 20
575.2859237191943
 30
0.0
 10
512.2874357170733
 20
575.4324764083286
 30
0.0
 10
512.2764289304292
 20
575.689392413597
 30
0.0
 10
512.2705358327202
 20
575.7999458725598
 30
0.0
 10
512.25248726109
 20
576.0634598917793
 30
0.0
 10
512.2395906094392
 20
576.1553266331658
 30
0.0
 10
512.226556364239
 20
576.1553266331659
 30
0.0
  0
SPLINE
  5
182
330
1F
100
AcDbEntity
  8
0
  6
Continuous
 62
     7
370
    15
100
AcDbSpline
210
0.0
220
0.0
230
1.0
 70
     8
 71
     3
 72
    19
 73
    15
 74
     0
 42
0.000000001
 43
0.00000001
 40
0.0
 40
0.0
 40
0.0
 40
0.0
 40
0.050273229947256
 40
0.1001692848424311
 40
0.1499639306182729
 40
0.199934612130344
 40
0.2503558683871918
 40
0.3749945856716849
 40
0.5001305506159409
 40
0.624799006343203
 40
0.7499444877265156
 40
0.83338242830327
 40
0.916347428847219
 40
1.0
 40
1.0
 40
1.0
 40
1.0
 10
494.420020550621
 20
278.7273873638067
 30
0.0
 10
494.422028868697
 20
278.6300755556443
 30
0.0
 10
494.426030437437
 20
278.4361820214398
 30
0.0
 10
494.4588619627954
 20
278.1474607366789
 30
0.0
 10
494.5114039577721
 20
277.8625148466467
 30
0.0
 10
494.5855658244503
 20
277.5813438438566
 30
0.0
 10
494.7268512464203
 20
277.1695739397234
 30
0.0
 10
494.983464532835
 20
276.6454164364341
 30
0.0
 10
495.4178935367495
 20
276.0633680165041
 30
0.0
 10
495.9472303356507
 20
275.5663256174577
 30
0.0
 10
496.4897649541405
 20
275.2176650719893
 30
0.0
 10
497.0011251618754
 20
274.9863510305524
 30
0.0
 10
497.4597900082913
 20
274.8378341760557
 30
0.0
 10
497.7758548835238
 20
274.7858099521521
 30
0.0
 10
497.9345394639977
 20
274.7596904975985
 30
0.0
  0
LINE
  5
183
330
1F
100
AcDbEntity
  8
0
  6
Continuous
 62
     7
370
    15
100
AcDbLine
 10
494.4200205506
 20
566.5832659025
 30
0.0
 11
494.4200205506
 21
278.7273873638
 31
0.0
  0
SPLINE
  5
184
330
1F
100
AcDbEntity
  8
0
  6
Continuous
 62
     7
370
    15
100
AcDbSpline
210
0.0
220
0.0
230
1.0
 70
     8
 71
     3
 72
    19
 73
    15
 74
     0
 42
0.000000001
 43
0.00000001
 40
0.0
 40
0.0
 40
0.0
 40
0.0
 40
0.0503347886925384
 40
0.1002675823748871
 40
0.15004704346979
 40
0.1999241277738186
 40
0.2501483277200833
 40
0.3752179700769172
 40
0.4999642813379756
 40
0.6249976431959593
 40
0.7497406529211923
 40
0.8334240102494824
 40
0.9164158535486214
 40
0.9999999999999999
 40
0.9999999999999999
 40
0.9999999999999999
 40
0.9999999999999999
 10
497.9345394639977
 20
570.5509627687329
 30
0.0
 10
497.8389303981348
 20
570.5365205916154
 30
0.0
 10
497.6484758410342
 20
570.5077515787435
 30
0.0
 10
497.3681463323271
 20
570.4394017317998
 30
0.0
 10
497.0939367892307
 20
570.3528251114981
 30
0.0
 10
496.8260742989453
 20
570.246213313106
 30
0.0
 10
496.4359490697617
 20
570.05815908825
 30
0.0
 10
495.947322111716
 20
569.7444560487771
 30
0.0
 10
495.4181161838928
 20
569.2475457335615
 30
0.0
 10
494.9836498985979
 20
568.6653599937247
 30
0.0
 10
494.6983105130476
 20
568.0833167853434
 30
0.0
 10
494.5284724192604
 20
567.5450215690794
 30
0.0
 10
494.4366665890947
 20
567.0676946118517
 30
0.0
 10
494.4255823676984
 20
566.7451244656052
 30
0.0
 10
494.420020550621
 20
566.5832659025248
 30
0.0
  0
SPLINE
  5
185
330
1F
100
AcDbEntity
  8
0
  6
Continuous
 62
     7
370
    15
100
AcDbSpline
210
0.0
220
0.0
230
1.0
 70
     8
 71
     3
 72
     8
 73
     4
 74
     0
 42
0.000000001
 43
0.00000001
 40
0.0
 40
0.0
 40
0.0
 40
0.0
 40
1.0
 40
1.0
 40
1.0
 40
1.0
 10
510.202680492427
 20
572.1553266331657
 30
0.0
 10
506.1085674293136
 20
571.6205386783548
 30
0.0
 10
502.0188983029077
 20
571.0857507235438
 30
0.0
 10
497.9345394639977
 20
570.5509627687328
 30
0.0
  0
SPLINE
  5
186
330
1F
100
AcDbEntity
  8
0
  6
Continuous
 62
     7
370
    15
100
AcDbSpline
210
0.0
220
0.0
230
1.0
 70
     8
 71
     3
 72
     8
 73
     4
 74
     0
 42
0.000000001
 43
0.00000001
 40
0.0
 40
0.0
 40
0.0
 40
0.0
 40
1.0
 40
1.0
 40
1.0
 40
1.0
 10
497.9345394639977
 20
274.7596904975985
 30
0.0
 10
502.0188983029077
 20
274.2249025427876
 30
0.0
 10
506.1085674293136
 20
273.6901145879767
 30
0.0
 10
510.202680492427
 20
273.1553266331657
 30
0.0
  0
SPLINE
  5
187
330
1F
100
AcDbEntity
  8
0
  6
Continuous
 62
     7
370
    15
100
AcDbSpline
210
0.0
220
0.0
230
1.0
 70
     8
 71
     3
 72
    19
 73
    15
 74
     0
 42
0.000000001
 43
0.00000001
 40
0.0
 40
0.0
 40
0.0
 40
0.0
 40
0.0502732299573564
 40
0.1001692848575607
 40
0.1499639306334048
 40
0.199934612140572
 40
0.2503558683878504
 40
0.3749945856732383
 40
0.5001305506155557
 40
0.6247990063343022
 40
0.7499444877267454
 40
0.8333824283083232
 40
0.9163474288522643
 40
1.0
 40
1.0
 40
1.0
 40
1.0
 10
651.8400239551843
 20
566.5832659025248
 30
0.0
 10
651.8380156371086
 20
566.6805777107066
 30
0.0
 10
651.8340140683698
 20
566.8744712449405
 30
0.0
 10
651.8011825430123
 20
567.1631925297312
 30
0.0
 10
651.7486405480356
 20
567.4481384197637
 30
0.0
 10
651.6744786813596
 20
567.7293094225256
 30
0.0
 10
651.5331932593663
 20
568.1410793266236
 30
0.0
 10
651.2765799729277
 20
568.665236829874
 30
0.0
 10
650.8421509690678
 20
569.2472852498177
 30
0.0
 10
650.3128141701872
 20
569.7443276488887
 30
0.0
 10
649.7702795516718
 20
570.0929881943391
 30
0.0
 10
649.2589193439094
 20
570.324302235778
 30
0.0
 10
648.8002544974947
 20
570.472819090277
 30
0.0
 10
648.484189622272
 20
570.5248433141803
 30
0.0
 10
648.3255050418077
 20
570.5509627687328
 30
0.0
  0
LINE
  5
188
330
1F
100
AcDbEntity
  8
0
  6
Continuous
 62
     7
370
    15
100
AcDbLine
 10
651.8400239552
 20
278.7273873638
 30
0.0
 11
651.8400239552
 21
566.5832659025
 31
0.0
  0
SPLINE
  5
189
330
1F
100
AcDbEntity
  8
0
  6
Continuous
 62
     7
370
    15
100
AcDbSpline
210
0.0
220
0.0
230
1.0
 70
     8
 71
     3
 72
    19
 73
    15
 74
     0
 42
0.000000001
 43
0.00000001
 40
0.0
 40
0.0
 40
0.0
 40
0.0
 40
0.0503347886925857
 40
0.1002675823748888
 40
0.1500470434698148
 40
0.1999241277738002
 40
0.2501483277200847
 40
0.3752179700589502
 40
0.499964281337401
 40
0.6249976431794794
 40
0.7497406529212455
 40
0.833424010250622
 40
0.9164158535497515
 40
1.0
 40
1.0
 40
1.0
 40
1.0
 10
648.3255050418077
 20
274.7596904975985
 30
0.0
 10
648.4211141076706
 20
274.774132674716
 30
0.0
 10
648.6115686647713
 20
274.8029016875878
 30
0.0
 10
648.8918981734784
 20
274.8712515345319
 30
0.0
 10
649.1661077165747
 20
274.9578281548331
 30
0.0
 10
649.4339702068597
 20
275.0644399532259
 30
0.0
 10
649.8240954360142
 20
275.2524941780639
 30
0.0
 10
650.3127223940437
 20
275.5661972175575
 30
0.0
 10
650.8419283218684
 20
276.0631075327204
 30
0.0
 10
651.2763946072182
 20
276.6452932725627
 30
0.0
 10
651.561733992745
 20
277.2273364809618
 30
0.0
 10
651.7315720865448
 20
277.7656316972563
 30
0.0
 10
651.82337791671
 20
278.2429586544842
 30
0.0
 10
651.8344621381067
 20
278.5655288007285
 30
0.0
 10
651.8400239551843
 20
278.7273873638067
 30
0.0
  0
SPLINE
  5
18A
330
1F
100
AcDbEntity
  8
0
  6
Continuous
 62
     7
370
    15
100
AcDbSpline
210
0.0
220
0.0
230
1.0
 70
    24
 71
     3
 72
     8
 73
     4
 74
     0
 42
0.000000001
 43
0.00000001
 40
0.0
 40
0.0
 40
0.0
 40
0.0
 40
1.0
 40
1.0
 40
1.0
 40
1.0
 10
648.3255050418071
 20
274.7596904975987
 30
0.0
 10
644.2411461782948
 20
274.2255592257653
 30
0.0
 10
640.1514770893549
 20
273.690733510274
 30
0.0
 10
636.0573640130359
 20
273.1553266331208
 30
0.0
  0
SPLINE
  5
18B
330
1F
100
AcDbEntity
  8
0
  6
Continuous
 62
     7
370
    15
100
AcDbSpline
210
0.0
220
0.0
230
1.0
 70
     8
 71
     3
 72
     8
 73
     4
 74
     0
 42
0.000000001
 43
0.00000001
 40
0.0
 40
0.0
 40
0.0
 40
0.0
 40
1.0
 40
1.0
 40
1.0
 40
1.0
 10
648.3255050418077
 20
570.5509627687328
 30
0.0
 10
644.2411462028977
 20
571.0857507235438
 30
0.0
 10
640.1514770764918
 20
571.6205386783548
 30
0.0
 10
636.0573640133782
 20
572.1553266331657
 30
0.0
  0
SPLINE
  5
18C
330
1F
100
AcDbEntity
  8
0
  6
Continuous
 62
     7
370
    15
100
AcDbSpline
210
0.0
220
0.0
230
1.0
 70
    24
 71
     3
 72
     8
 73
     4
 74
     0
 42
0.000000001
 43
0.00000001
 40
0.0
 40
0.0
 40
0.0
 40
0.0
 40
1.0
 40
1.0
 40
1.0
 40
1.0
 10
648.3463065920946
 20
574.5167422142284
 30
0.0
 10
644.2036883133734
 20
575.0621282571733
 30
0.0
 10
640.0555705753237
 20
575.608238317674
 30
0.0
 10
635.9028693881135
 20
576.1549518007045
 30
0.0
  0
ARC
  5
18D
330
1F
100
AcDbEntity
  8
0
  6
Continuous
 62
     7
370
    15
100
AcDbCircle
 10
640.2750515744
 20
572.57613378
 30
0.0
 40
8.301272110667952
100
AcDbArc
 50
345.8796708896
 51
13.5192719289
  0
SPLINE
  5
18E
330
1F
100
AcDbEntity
  8
0
  6
Continuous
 62
     7
370
    15
100
AcDbSpline
210
0.0
220
0.0
230
1.0
 70
    24
 71
     3
 72
     8
 73
     4
 74
     0
 42
0.000000001
 43
0.00000001
 40
0.0
 40
0.0
 40
0.0
 40
0.0
 40
1.0
 40
1.0
 40
1.0
 40
1.0
 10
497.9137379137107
 20
270.7939110521034
 30
0.0
 10
502.056356192432
 20
270.2485250091585
 30
0.0
 10
506.2044739304816
 20
269.7024149486577
 30
0.0
 10
510.3571751176918
 20
269.1557014656274
 30
0.0
  0
ARC
  5
18F
330
1F
100
AcDbEntity
  8
0
  6
Continuous
 62
     7
370
    15
100
AcDbCircle
 10
505.9849929314
 20
272.7345194863
 30
0.0
 40
8.301272110669094
100
AcDbArc
 50
165.8796708896
 51
193.5192719289
  0
ARC
  5
190
330
1F
100
AcDbEntity
  8
0
  6
Continuous
 62
     7
370
    15
100
AcDbCircle
 10
505.9849929314
 20
572.57613378
 30
0.0
 40
8.301272110715942
100
AcDbArc
 50
166.4807280712
 51
194.1203291103
  0
SPLINE
  5
191
330
1F
100
AcDbEntity
  8
0
  6
Continuous
 62
     7
370
    15
100
AcDbSpline
210
0.0
220
0.0
230
1.0
 70
    24
 71
     3
 72
     8
 73
     4
 74
     0
 42
0.000000001
 43
0.00000001
 40
0.0
 40
0.0
 40
0.0
 40
0.0
 40
1.0
 40
1.0
 40
1.0
 40
1.0
 10
510.3571751176739
 20
576.154951800702
 30
0.0
 10
506.2044739304624
 20
575.6082383176715
 30
0.0
 10
502.0563561924116
 20
575.0621282571706
 30
0.0
 10
497.9137379136892
 20
574.5167422142256
 30
0.0
  0
ARC
  5
192
330
1F
100
AcDbEntity
  8
0
  6
Continuous
 62
     7
370
    15
100
AcDbCircle
 10
640.2750515744
 20
272.7345194863
 30
0.0
 40
8.301272110715502
100
AcDbArc
 50
346.4807280712
 51
14.1203291103
  0
SPLINE
  5
193
330
1F
100
AcDbEntity
  8
0
  6
Continuous
 62
     7
370
    15
100
AcDbSpline
210
0.0
220
0.0
230
1.0
 70
    24
 71
     3
 72
     8
 73
     4
 74
     0
 42
0.000000001
 43
0.00000001
 40
0.0
 40
0.0
 40
0.0
 40
0.0
 40
1.0
 40
1.0
 40
1.0
 40
1.0
 10
635.9028693881314
 20
269.1557014656298
 30
0.0
 10
640.0555705753429
 20
269.7024149486602
 30
0.0
 10
644.2036883133937
 20
270.2485250091612
 30
0.0
 10
648.3463065921161
 20
270.7939110521062
 30
0.0
  0
LINE
  5
194
330
1F
100
AcDbEntity
  8
0
  6
Continuous
 62
     7
370
    15
100
AcDbLine
 10
633.8462931214
 20
296.5055882343
 30
0.0
 11
633.8462931214
 21
548.8050650321
 31
0.0
  0
LINE
  5
195
330
1F
100
AcDbEntity
  8
0
  6
Continuous
 62
     7
370
    15
100
AcDbLine
 10
633.9125245202
 20
548.8050650321
 30
0.0
 11
633.8462931214
 21
548.8050650321
 31
0.0
  0
LINE
  5
196
330
1F
100
AcDbEntity
  8
0
  6
Continuous
 62
     7
370
    15
100
AcDbLine
 10
633.8462931214
 20
296.5055882343
 30
0.0
 11
633.9125245202
 21
296.5055882343
 31
0.0
  0
LINE
  5
197
330
1F
100
AcDbEntity
  8
0
  6
Continuous
 62
     7
370
    15
100
AcDbLine
 10
512.4137513844
 20
548.8050650321
 30
0.0
 11
512.4137513844
 21
296.5055882343
 31
0.0
  0
LINE
  5
198
330
1F
100
AcDbEntity
  8
0
  6
Continuous
 62
     7
370
    15
100
AcDbLine
 10
512.4137513844
 20
548.8050650321
 30
0.0
 11
512.3475199856
 21
548.8050650321
 31
0.0
  0
LINE
  5
199
330
1F
100
AcDbEntity
  8
0
  6
Continuous
 62
     7
370
    15
100
AcDbLine
 10
512.3475199856
 20
296.5055882343
 30
0.0
 11
512.4137513844
 21
296.5055882343
 31
0.0
  0
LINE
  5
19A
330
1F
100
AcDbEntity
  8
0
  6
Continuous
 62
     7
370
    15
100
AcDbLine
 10
633.4478152422
 20
548.7731196224
 30
0.0
 11
633.4478152422
 21
296.5375336439
 31
0.0
  0
ELLIPSE
  5
19B
330
1F
100
AcDbEntity
  8
0
  6
Continuous
 62
     7
370
    15
100
AcDbEllipse
 10
633.8462931214
 20
548.7700695666
 30
0.0
 11
0.3999999999998636
 21
0.0
 31
0.0
210
0.0
220
0.0
230
1.0
 40
0.0874886635
 41
1.570796326794897
 42
3.054326190991527
  0
ELLIPSE
  5
19C
330
1F
100
AcDbEntity
  8
0
  6
Continuous
 62
     7
370
    15
100
AcDbEllipse
 10
633.8462931214
 20
296.5405836997
 30
0.0
 11
0.3999999999998636
 21
0.0
 31
0.0
210
0.0
220
0.0
230
1.0
 40
0.0874886635
 41
3.228859116188359
 42
4.712388980384691
  0
LINE
  5
19D
330
1F
100
AcDbEntity
  8
0
  6
Continuous
 62
     7
370
    15
100
AcDbLine
 10
512.8122292636
 20
296.5375336439
 30
0.0
 11
512.8122292636
 21
548.7731196224
 31
0.0
  0
ELLIPSE
  5
19E
330
1F
100
AcDbEntity
  8
0
  6
Continuous
 62
     7
370
    15
100
AcDbEllipse
 10
512.4137513844
 20
548.7700695666
 30
0.0
 11
0.4000000000000909
 21
0.0
 31
0.0
210
0.0
220
0.0
230
1.0
 40
0.0874886635
 41
0.0872664625983148
 42
1.570796326794897
  0
ELLIPSE
  5
19F
330
1F
100
AcDbEntity
  8
0
  6
Continuous
 62
     7
370
    15
100
AcDbEllipse
 10
512.4137513844
 20
296.5405836997
 30
0.0
 11
0.4000000000000909
 21
0.0
 31
0.0
210
0.0
220
0.0
230
1.0
 40
0.0874886635
 41
4.712388980384691
 42
6.195918844581572
  0
LINE
  5
1A0
330
1F
100
AcDbEntity
  8
0
  6
Continuous
 62
     7
370
    15
100
AcDbLine
 10
512.9300222529
 20
548.6553266332
 30
0.0
 11
512.9300222529
 21
296.6553266332
 31
0.0
  0
LINE
  5
1A1
330
1F
100
AcDbEntity
  8
0
  6
Continuous
 62
     7
370
    15
100
AcDbLine
 10
512.8122292636
 20
548.7731196224
 30
0.0
 11
512.9300222529
 21
548.6553266332
 31
0.0
  0
LINE
  5
1A2
330
1F
100
AcDbEntity
  8
0
  6
Continuous
 62
     7
370
    15
100
AcDbLine
 10
512.9300222529
 20
296.6553266332
 30
0.0
 11
512.8122292636
 21
296.5375336439
 31
0.0
  0
LINE
  5
1A3
330
1F
100
AcDbEntity
  8
0
  6
Continuous
 62
     7
370
    15
100
AcDbLine
 10
633.3300222529
 20
296.6553266332
 30
0.0
 11
633.3300222529
 21
548.6553266332
 31
0.0
  0
LINE
  5
1A4
330
1F
100
AcDbEntity
  8
0
  6
Continuous
 62
     7
370
    15
100
AcDbLine
 10
633.3300222529
 20
548.6553266332
 30
0.0
 11
633.4478152422
 21
548.7731196224
 31
0.0
  0
LINE
  5
1A5
330
1F
100
AcDbEntity
  8
0
  6
Continuous
 62
     7
370
    15
100
AcDbLine
 10
633.4478152422
 20
296.5375336439
 30
0.0
 11
633.3300222529
 21
296.6553266332
 31
0.0
  0
SPLINE
  5
1A6
330
1F
100
AcDbEntity
  8
0
  6
Continuous
 62
     7
370
    15
100
AcDbSpline
210
0.0
220
0.0
230
1.0
 70
     8
 71
     3
 72
    18
 73
    14
 74
     0
 42
0.000000001
 43
0.00000001
 40
0.0
 40
0.0
 40
0.0
 40
0.0
 40
0.25
 40
0.25
 40
0.375
 40
0.375
 40
0.5
 40
0.5
 40
0.625
 40
0.625
 40
0.75
 40
0.75
 40
1.0
 40
1.0
 40
1.0
 40
1.0
 10
655.3139199104047
 20
566.583265902525
 30
0.0
 10
655.3139641837367
 20
567.5648055913827
 30
0.0
 10
655.1367570491338
 20
568.5148051198146
 30
0.0
 10
654.6232860192828
 20
569.8683534157666
 30
0.0
 10
654.4091343223193
 20
570.307408610766
 30
0.0
 10
653.9134155866614
 20
571.1275139477643
 30
0.0
 10
653.630238334378
 20
571.5134550576716
 30
0.0
 10
652.9919737287803
 20
572.2362594084299
 30
0.0
 10
652.6394576275329
 20
572.5689390534199
 30
0.0
 10
651.8899729459243
 20
573.1595824729476
 30
0.0
 10
651.4902628695554
 20
573.4207735846832
 30
0.0
 10
650.2140678348986
 20
574.0990431005562
 30
0.0
 10
649.29869236984
 20
574.3913582479214
 30
0.0
 10
648.3463065920952
 20
574.5167422142283
 30
0.0
  0
LINE
  5
1A7
330
1F
100
AcDbEntity
  8
0
  6
Continuous
 62
     7
370
    15
100
AcDbLine
 10
651.8400239552
 20
566.5832659025
 30
0.0
 11
655.3139199104
 21
566.5832659025
 31
0.0
  0
SPLINE
  5
1A8
330
1F
100
AcDbEntity
  8
0
  6
Continuous
 62
     7
370
    15
100
AcDbSpline
210
0.0
220
0.0
230
1.0
 70
     8
 71
     3
 72
    25
 73
    21
 74
     0
 42
0.000000001
 43
0.00000001
 40
0.0
 40
0.0
 40
0.0
 40
0.0
 40
0.0338559215386744
 40
0.0661952801702398
 40
0.0970180464067251
 40
0.1263241938864024
 40
0.1541136996665277
 40
0.1803865446005321
 40
0.2051427138307817
 40
0.2283821974421061
 40
0.2501049913434465
 40
0.3805826394883781
 40
0.4998317582324194
 40
0.5746736271485484
 40
0.6483797017562672
 40
0.7209534328228556
 40
0.7923984381141738
 40
0.8627185125302054
 40
0.931917638972188
 40
1.0
 40
1.0
 40
1.0
 40
1.0
 10
497.9137379137102
 20
270.7939110521033
 30
0.0
 10
497.7851216973277
 20
270.8126756905761
 30
0.0
 10
497.5336505782166
 20
270.849364412801
 30
0.0
 10
497.1688708832788
 20
270.9253508122522
 30
0.0
 10
496.8246393456769
 20
271.0122553010627
 30
0.0
 10
496.5012664409755
 20
271.1092188890865
 30
0.0
 10
496.1986423752437
 20
271.2135724046433
 30
0.0
 10
495.9165797237644
 20
271.3232725160196
 30
0.0
 10
495.6547655679643
 20
271.4362955206562
 30
0.0
 10
495.4127797399279
 20
271.5508082684097
 30
0.0
 10
494.8135549639468
 20
271.8583909537797
 30
0.0
 10
493.9378521959653
 20
272.4365790273998
 30
0.0
 10
493.0329741615644
 20
273.30279938506
 30
0.0
 10
492.3950116882485
 20
274.1120994692271
 30
0.0
 10
491.9424590285012
 20
274.8329589933663
 30
0.0
 10
491.5741617623707
 20
275.5857129953826
 30
0.0
 10
491.289935389141
 20
276.3604061682
 30
0.0
 10
491.0910658888645
 20
277.1474604376975
 30
0.0
 10
490.9685489938079
 20
277.9378400123671
 30
0.0
 10
490.9535587470265
 20
278.4656360953993
 30
0.0
 10
490.9461245954006
 20
278.7273873638067
 30
0.0
  0
LINE
  5
1A9
330
1F
100
AcDbEntity
  8
0
  6
Continuous
 62
     7
370
    15
100
AcDbLine
 10
494.4200205506
 20
278.7273873638
 30
0.0
 11
490.9461245954
 21
278.7273873638
 31
0.0
  0
LINE
  5
1AA
330
1F
100
AcDbEntity
  8
0
  6
Continuous
 62
     7
370
    15
100
AcDbLine
 10
655.3139199104
 20
278.7273873638
 30
0.0
 11
651.8400239552
 21
278.7273873638
 31
0.0
  0
SPLINE
  5
1AB
330
1F
100
AcDbEntity
  8
0
  6
Continuous
 62
     7
370
    15
100
AcDbSpline
210
0.0
220
0.0
230
1.0
 70
     8
 71
     3
 72
    27
 73
    23
 74
     0
 42
0.000000001
 43
0.00000001
 40
0.0
 40
0.0
 40
0.0
 40
0.0
 40
0.0339078480046178
 40
0.0680947167138858
 40
0.1025611524773772
 40
0.1373076884128304
 40
0.1723348448042858
 40
0.2076431294863424
 40
0.2432330382150659
 40
0.2791050550260577
 40
0.3152596525801623
 40
0.35169729249729
 40
0.388418425678786
 40
0.425423492618823
 40
0.4627129237051611
 40
0.50028713950975
 40
0.6195165531487308
 40
0.7499899418923294
 40
0.8009808598672383
 40
0.8596472799204883
 40
0.9259876182292257
 40
1.0
 40
1.0
 40
1.0
 40
1.0
 10
655.3139199104047
 20
278.7273873638067
 30
0.0
 10
655.3120818803856
 20
278.5970513195634
 30
0.0
 10
655.3083906955765
 20
278.3353067225855
 30
0.0
 10
655.2782951458836
 20
277.9420265963165
 30
0.0
 10
655.229750071961
 20
277.5474674040001
 30
0.0
 10
655.1606286677829
 20
277.1526610387305
 30
0.0
 10
655.0711096456371
 20
276.7586804303186
 30
0.0
 10
654.9608164546588
 20
276.3666368216449
 30
0.0
 10
654.8295978454846
 20
275.9776773725936
 30
0.0
 10
654.677320809634
 20
275.5929823407213
 30
0.0
 10
654.5039310471002
 20
275.2137617986667
 30
0.0
 10
654.3094415558987
 20
274.8412527898093
 30
0.0
 10
654.0939375177192
 20
274.4767132937721
 30
0.0
 10
653.8575880137596
 20
274.1214267511359
 30
0.0
 10
653.6006124539471
 20
273.7766652220103
 30
0.0
 10
653.1233301778965
 20
273.2035311283867
 30
0.0
 10
652.3221106884124
 20
272.4364534045748
 30
0.0
 10
651.3522451903235
 20
271.7962959390317
 30
0.0
 10
650.5228490935878
 20
271.3920864148113
 30
0.0
 10
649.8930821146504
 20
271.145551011555
 30
0.0
 10
649.1592988382815
 20
270.9262234861777
 30
0.0
 10
648.6270028993862
 20
270.8395936669469
 30
0.0
 10
648.3463065920952
 20
270.7939110521033
 30
0.0
  0
LINE
  5
1AC
330
1F
100
AcDbEntity
  8
0
  6
Continuous
 62
     7
370
    15
100
AcDbLine
 10
494.4200205506
 20
566.5832659025
 30
0.0
 11
490.9461245954
 21
566.5832659025
 31
0.0
  0
SPLINE
  5
1AD
330
1F
100
AcDbEntity
  8
0
  6
Continuous
 62
     7
370
    15
100
AcDbSpline
210
0.0
220
0.0
230
1.0
 70
     8
 71
     3
 72
    18
 73
    14
 74
     0
 42
0.000000001
 43
0.00000001
 40
0.0
 40
0.0
 40
0.0
 40
0.0
 40
0.25
 40
0.25
 40
0.375
 40
0.375
 40
0.5
 40
0.5
 40
0.625
 40
0.625
 40
0.75
 40
0.75
 40
1.0
 40
1.0
 40
1.0
 40
1.0
 10
497.9137379137102
 20
574.5167422142284
 30
0.0
 10
496.9613521359654
 20
574.3913582479215
 30
0.0
 10
496.0459766709067
 20
574.0990431005563
 30
0.0
 10
494.7697816362499
 20
573.4207735846832
 30
0.0
 10
494.370071559881
 20
573.1595824729476
 30
0.0
 10
493.6205868782724
 20
572.56893905342
 30
0.0
 10
493.2680707770251
 20
572.23625940843
 30
0.0
 10
492.6298061714274
 20
571.5134550576716
 30
0.0
 10
492.3466289191439
 20
571.1275139477643
 30
0.0
 10
491.850910183486
 20
570.307408610766
 30
0.0
 10
491.6367584865226
 20
569.8683534157666
 30
0.0
 10
491.1232874566714
 20
568.5148051198147
 30
0.0
 10
490.9460803220686
 20
567.5648055913827
 30
0.0
 10
490.9461245954006
 20
566.583265902525
 30
0.0
  0
CIRCLE
  5
1AE
330
1F
100
AcDbEntity
  8
0
  6
Continuous
 62
     7
370
    15
100
AcDbCircle
 10
530.3662789668
 20
537.6871515843
 30
0.0
 40
3.0
  0
CIRCLE
  5
1AF
330
1F
100
AcDbEntity
  8
0
  6
Continuous
 62
     7
370
    15
100
AcDbCircle
 10
530.1922829951
 20
504.6671320531
 30
0.0
 40
3.0
  0
CIRCLE
  5
1B0
330
1F
100
AcDbEntity
  8
0
  6
Continuous
 62
     7
370
    15
100
AcDbCircle
 10
530.3662789668
 20
519.2347284886
 30
0.0
 40
2.999999999999886
  0
LINE
  5
1B1
330
1F
100
AcDbEntity
  8
0
  6
Continuous
 62
     7
370
    15
100
AcDbLine
 10
633.3300222529
 20
548.6553266332
 30
0.0
 11
512.9300222529
 21
548.6553266332
 31
0.0
  0
LINE
  5
1B2
330
1F
100
AcDbEntity
  8
0
  6
Continuous
 62
     7
370
    15
100
AcDbLine
 10
512.9300222529
 20
296.6553266332
 30
0.0
 11
633.3300222529
 21
296.6553266332
 31
0.0
  0
LINE
  5
1B3
330
1F
100
AcDbEntity
  8
0
  6
Continuous
 62
     7
370
    15
100
AcDbLine
 10
655.3139199104
 20
278.7273873638
 30
0.0
 11
655.3139199104
 21
566.5832659025
 31
0.0
  0
LINE
  5
1B4
330
1F
100
AcDbEntity
  8
0
  6
Continuous
 62
     7
370
    15
100
AcDbLine
 10
490.9461245954
 20
566.5832659025
 30
0.0
 11
490.9461245954
 21
278.7273873638
 31
0.0
  0
ELLIPSE
  5
1B5
330
1F
100
AcDbEntity
  8
0
  6
Continuous
 62
     7
370
    15
100
AcDbEllipse
 10
649.127279913
 20
566.3448934413
 30
0.0
 11
7.934324886246485
 21
-1.04457368794408
 31
0.0
210
0.0
220
0.0
230
1.0
 40
0.9996513887
 41
0.1308545800106991
 42
1.570796326794889
  0
LINE
  5
1B6
330
1F
100
AcDbEntity
  8
0
  6
Continuous
 62
     7
370
    15
100
AcDbLine
 10
655.3139199104
 20
566.5832659025
 30
0.0
 11
657.1300222529
 21
566.3441714933
 31
0.0
  0
LINE
  5
1B7
330
1F
100
AcDbEntity
  8
0
  6
Continuous
 62
     7
370
    15
100
AcDbLine
 10
650.1714894507
 20
574.2764523323
 30
0.0
 11
648.3463065921
 21
574.5167422142
 31
0.0
  0
ELLIPSE
  5
1B8
330
1F
100
AcDbEntity
  8
0
  6
Continuous
 62
     7
370
    15
100
AcDbEllipse
 10
497.1327645928
 20
278.965759825
 30
0.0
 11
-7.934324886246486
 21
1.044573687944194
 31
0.0
210
0.0
220
0.0
230
1.0
 40
0.9996513887
 41
0.1308545800107063
 42
1.570796326794897
  0
LINE
  5
1B9
330
1F
100
AcDbEntity
  8
0
  6
Continuous
 62
     7
370
    15
100
AcDbLine
 10
490.9461245954
 20
278.7273873638
 30
0.0
 11
489.1300222529
 21
278.9664817731
 31
0.0
  0
LINE
  5
1BA
330
1F
100
AcDbEntity
  8
0
  6
Continuous
 62
     7
370
    15
100
AcDbLine
 10
496.0885550551
 20
271.034200934
 30
0.0
 11
497.9137379137
 21
270.7939110521
 31
0.0
  0
LINE
  5
1BB
330
1F
100
AcDbEntity
  8
0
  6
Continuous
 62
     7
370
    15
100
AcDbLine
 10
489.1300222529
 20
566.3441714933
 30
0.0
 11
490.9461245954
 21
566.5832659025
 31
0.0
  0
ELLIPSE
  5
1BC
330
1F
100
AcDbEntity
  8
0
  6
Continuous
 62
     7
370
    15
100
AcDbEllipse
 10
497.1327645928
 20
566.3448934413
 30
0.0
 11
-7.934324886246485
 21
-1.04457368794408
 31
0.0
210
0.0
220
0.0
230
1.0
 40
0.9996513887
 41
4.712388980384718
 42
6.152330727168899
  0
LINE
  5
1BD
330
1F
100
AcDbEntity
  8
0
  6
Continuous
 62
     7
370
    15
100
AcDbLine
 10
497.9137379137
 20
574.5167422142
 30
0.0
 11
496.0885550551
 21
574.2764523323
 31
0.0
  0
LINE
  5
1BE
330
1F
100
AcDbEntity
  8
0
  6
Continuous
 62
     7
370
    15
100
AcDbLine
 10
657.1300222529
 20
278.9664817731
 30
0.0
 11
655.3139199104
 21
278.7273873638
 31
0.0
  0
ELLIPSE
  5
1BF
330
1F
100
AcDbEntity
  8
0
  6
Continuous
 62
     7
370
    15
100
AcDbEllipse
 10
649.127279913
 20
278.965759825
 30
0.0
 11
7.934324886246486
 21
1.044573687944194
 31
0.0
210
0.0
220
0.0
230
1.0
 40
0.9996513887
 41
4.712388980384697
 42
6.152330727168894
  0
LINE
  5
1C0
330
1F
100
AcDbEntity
  8
0
  6
Continuous
 62
     7
370
    15
100
AcDbLine
 10
648.3463065921
 20
270.7939110521
 30
0.0
 11
650.1714894507
 21
271.034200934
 31
0.0
  0
LINE
  5
1C1
330
1F
100
AcDbEntity
  8
0
  6
Continuous
 62
     7
370
    15
100
AcDbLine
 10
657.1300222529
 20
278.9664817731
 30
0.0
 11
657.1300222529
 21
566.3441714933
 31
0.0
  0
LINE
  5
1C2
330
1F
100
AcDbEntity
  8
0
  6
Continuous
 62
     7
370
    15
100
AcDbLine
 10
489.1300222529
 20
566.3441714933
 30
0.0
 11
489.1300222529
 21
278.9664817731
 31
0.0
  0
INSERT
  5
1CE
330
1F
100
AcDbEntity
  8
0
  6
Continuous
 62
     7
370
     0
100
AcDbBlockReference
  2
SW_CENTERMARKSYMBOL_0
 10
530.3662789668
 20
537.6871515843
 30
0.0
  0
INSERT
  5
1DA
330
1F
100
AcDbEntity
  8
0
  6
Continuous
 62
     7
370
     0
100
AcDbBlockReference
  2
SW_CENTERMARKSYMBOL_1
 10
530.1922829951
 20
504.6671320531
 30
0.0
  0
INSERT
  5
1E6
330
1F
100
AcDbEntity
  8
0
  6
Continuous
 62
     7
370
     0
100
AcDbBlockReference
  2
SW_CENTERMARKSYMBOL_2
 10
530.3662789668
 20
519.2347284886
 30
0.0
  0
LINE
  5
1E7
330
1F
100
AcDbEntity
  8
0
  6
Continuous
 62
     7
370
    15
100
AcDbLine
 10
900.7829058429
 20
566.3441714933
 30
0.0
 11
900.7829058429
 21
574.2764523323
 31
0.0
  0
LINE
  5
1E8
330
1F
100
AcDbEntity
  8
0
  6
Continuous
 62
     7
370
    15
100
AcDbLine
 10
831.4287554572
 20
566.5832659025
 30
0.0
 11
900.7829058429
 21
566.3441714933
 31
0.0
  0
SPLINE
  5
1E9
330
1F
100
AcDbEntity
  8
0
  6
Continuous
 62
     7
370
    15
100
AcDbSpline
210
0.0
220
0.0
230
1.0
 70
     8
 71
     3
 72
    18
 73
    14
 74
     0
 42
0.000000001
 43
0.00000001
 40
0.0
 40
0.0
 40
0.0
 40
0.0
 40
0.25
 40
0.25
 40
0.375
 40
0.375
 40
0.5
 40
0.5
 40
0.625
 40
0.625
 40
0.75
 40
0.75
 40
1.0
 40
1.0
 40
1.0
 40
1.0
 10
831.4287554572333
 20
566.583265902525
 30
0.0
 10
831.4304461875755
 20
567.5648055913827
 30
0.0
 10
831.4226279902703
 20
568.5148051198146
 30
0.0
 10
831.3977368774264
 20
569.8683534157666
 30
0.0
 10
831.3871586590396
 20
570.307408610766
 30
0.0
 10
831.3624269690731
 20
571.1275139477643
 30
0.0
 10
831.3481961268195
 20
571.5134550576716
 30
0.0
 10
831.3160146842853
 20
572.2362594084299
 30
0.0
 10
831.2981935615622
 20
572.5689390534199
 30
0.0
 10
831.2602998491736
 20
573.1595824729476
 30
0.0
 10
831.2400887010929
 20
573.4207735846832
 30
0.0
 10
831.1756639050681
 20
574.0990431005562
 30
0.0
 10
831.12959845562
 20
574.3913582479214
 30
0.0
 10
831.0819845361095
 20
574.5167422142283
 30
0.0
  0
LINE
  5
1EA
330
1F
100
AcDbEntity
  8
0
  6
Continuous
 62
     7
370
    15
100
AcDbLine
 10
900.7829058429
 20
574.2764523323
 30
0.0
 11
831.0819845361
 21
574.5167422142
 31
0.0
  0
SPLINE
  5
1EB
330
1F
100
AcDbEntity
  8
0
  6
Continuous
 62
     7
370
    15
100
AcDbSpline
210
0.0
220
0.0
230
1.0
 70
     8
 71
     3
 72
    27
 73
    23
 74
     0
 42
0.000000001
 43
0.00000001
 40
0.0
 40
0.0
 40
0.0
 40
0.0
 40
0.0339078480046178
 40
0.0680947167138858
 40
0.1025611524773772
 40
0.1373076884128304
 40
0.1723348448042858
 40
0.2076431294863424
 40
0.2432330382150659
 40
0.2791050550260577
 40
0.3152596525801623
 40
0.35169729249729
 40
0.388418425678786
 40
0.425423492618823
 40
0.4627129237051611
 40
0.50028713950975
 40
0.6195165531487308
 40
0.7499899418923294
 40
0.8009808598672383
 40
0.8596472799204883
 40
0.9259876182292257
 40
1.0
 40
1.0
 40
1.0
 40
1.0
 10
831.4287554572331
 20
278.7273873638067
 30
0.0
 10
831.4288731390855
 20
278.5970513195634
 30
0.0
 10
831.4291094711697
 20
278.3353067225855
 30
0.0
 10
831.4280783193633
 20
277.9420265963165
 30
0.0
 10
831.4260486807741
 20
277.5474674040001
 30
0.0
 10
831.4229235817617
 20
277.1526610387305
 30
0.0
 10
831.4187350859568
 20
276.7586804303186
 30
0.0
 10
831.4134782530995
 20
276.3666368216449
 30
0.0
 10
831.407156063383
 20
275.9776773725936
 30
0.0
 10
831.399767121173
 20
275.5929823407213
 30
0.0
 10
831.3913089029143
 20
275.2137617986667
 30
0.0
 10
831.3817767118304
 20
274.8412527898093
 30
0.0
 10
831.3711641149715
 20
274.4767132937721
 30
0.0
 10
831.3594618047148
 20
274.1214267511359
 30
0.0
 10
831.346661350226
 20
273.7766652220103
 30
0.0
 10
831.3226921639803
 20
273.2035311283867
 30
0.0
 10
831.2819795554511
 20
272.4364534045748
 30
0.0
 10
831.2331955164369
 20
271.7962959390317
 30
0.0
 10
831.1911575857137
 20
271.3920864148113
 30
0.0
 10
831.1593209022133
 20
271.145551011555
 30
0.0
 10
831.1225693955234
 20
270.9262234861777
 30
0.0
 10
831.095996994682
 20
270.8395936669469
 30
0.0
 10
831.0819845361095
 20
270.7939110521033
 30
0.0
  0
LINE
  5
1EC
330
1F
100
AcDbEntity
  8
0
  6
Continuous
 62
     7
370
    15
100
AcDbLine
 10
900.7829058429
 20
278.9664817731
 30
0.0
 11
831.4287554572
 21
278.7273873638
 31
0.0
  0
LINE
  5
1ED
330
1F
100
AcDbEntity
  8
0
  6
Continuous
 62
     7
370
    15
100
AcDbLine
 10
900.7829058429
 20
271.034200934
 30
0.0
 11
900.7829058429
 21
278.9664817731
 31
0.0
  0
LINE
  5
1EE
330
1F
100
AcDbEntity
  8
0
  6
Continuous
 62
     7
370
    15
100
AcDbLine
 10
831.0819845361
 20
270.7939110521
 30
0.0
 11
900.7829058429
 21
271.034200934
 31
0.0
  0
LINE
  5
1EF
330
1F
100
AcDbEntity
  8
0
  6
Continuous
 62
     7
370
    15
100
AcDbLine
 10
900.7829058429
 20
278.9664817731
 30
0.0
 11
900.7829058429
 21
566.3441714933
 31
0.0
  0
LINE
  5
1F0
330
1F
100
AcDbEntity
  8
0
  6
Continuous
 62
     7
370
    15
100
AcDbLine
 10
831.4287554572
 20
278.7273873638
 30
0.0
 11
831.4287554572
 21
566.5832659025
 31
0.0
  0
LINE
  5
1F1
330
1F
100
AcDbEntity
  8
0
  6
Continuous
 62
     7
370
    15
100
AcDbLine
 10
827.5680307498
 20
566.5832659025
 30
0.0
 11
831.4287554572
 21
566.5832659025
 31
0.0
  0
LINE
  5
1F2
330
1F
100
AcDbEntity
  8
0
  6
Continuous
 62
     7
370
    15
100
AcDbLine
 10
831.4287554572
 20
278.7273873638
 30
0.0
 11
827.5680307498
 21
278.7273873638
 31
0.0
  0
LINE
  5
1F3
330
1F
100
AcDbEntity
  8
0
  6
Continuous
 62
     7
370
    15
100
AcDbLine
 10
827.5680307498
 20
278.7273873638
 30
0.0
 11
827.5680307498
 21
566.5832659025
 31
0.0
  0
SPLINE
  5
1F4
330
1F
100
AcDbEntity
  8
0
  6
Continuous
 62
     7
370
    15
100
AcDbSpline
210
0.0
220
0.0
230
1.0
 70
     8
 71
     3
 72
    19
 73
    15
 74
     0
 42
0.000000001
 43
0.00000001
 40
0.0
 40
0.0
 40
0.0
 40
0.0
 40
0.0502732299573564
 40
0.1001692848575607
 40
0.1499639306334048
 40
0.199934612140572
 40
0.2503558683878504
 40
0.3749945856732383
 40
0.5001305506155557
 40
0.6247990063343022
 40
0.7499444877267454
 40
0.8333824283083232
 40
0.9163474288522643
 40
1.0
 40
1.0
 40
1.0
 40
1.0
 10
827.568030749844
 20
566.5832659025248
 30
0.0
 10
827.567764976929
 20
566.6805777107066
 30
0.0
 10
827.5672354250611
 20
566.8744712449405
 30
0.0
 10
827.5628917699912
 20
567.1631925297312
 30
0.0
 10
827.555944302503
 20
567.4481384197637
 30
0.0
 10
827.5461460508144
 20
567.7293094225256
 30
0.0
 10
827.5275001873052
 20
568.1410793266236
 30
0.0
 10
827.4937030059731
 20
568.665236829874
 30
0.0
 10
827.4367701777716
 20
569.2472852498177
 30
0.0
 10
827.3678415533305
 20
569.7443276488887
 30
0.0
 10
827.2977249796476
 20
570.0929881943391
 30
0.0
 10
827.2321236280918
 20
570.324302235778
 30
0.0
 10
827.1736059223084
 20
570.472819090277
 30
0.0
 10
827.1336049819213
 20
570.5248433141803
 30
0.0
 10
827.1135219770032
 20
570.5509627687328
 30
0.0
  0
ARC
  5
1F5
330
1F
100
AcDbEntity
  8
0
  6
Continuous
 62
     7
370
    15
100
AcDbCircle
 10
831.1575786203
 20
570.4726335189
 30
0.0
 40
4.044815150947223
100
AcDbArc
 50
91.0708707306
 51
178.8903779719
  0
SPLINE
  5
1F6
330
1F
100
AcDbEntity
  8
0
  6
Continuous
 62
     7
370
    15
100
AcDbSpline
210
0.0
220
0.0
230
1.0
 70
     8
 71
     3
 72
    19
 73
    15
 74
     0
 42
0.000000001
 43
0.00000001
 40
0.0
 40
0.0
 40
0.0
 40
0.0
 40
0.0503347886925857
 40
0.1002675823748888
 40
0.1500470434698148
 40
0.1999241277738002
 40
0.2501483277200847
 40
0.3752179700589502
 40
0.499964281337401
 40
0.6249976431794794
 40
0.7497406529212455
 40
0.833424010250622
 40
0.9164158535497515
 40
1.0
 40
1.0
 40
1.0
 40
1.0
 10
827.1135219770032
 20
274.7596904975985
 30
0.0
 10
827.1256130787164
 20
274.774132674716
 30
0.0
 10
827.1496987174668
 20
274.8029016875878
 30
0.0
 10
827.185323403558
 20
274.8712515345319
 30
0.0
 10
827.2202901586847
 20
274.9578281548331
 30
0.0
 10
827.2545742860044
 20
275.0644399532259
 30
0.0
 10
827.3046818958843
 20
275.2524941780639
 30
0.0
 10
827.36782898453
 20
275.5661972175575
 30
0.0
 10
827.4367413232787
 20
276.0631075327204
 30
0.0
 10
827.4936785240086
 20
276.6452932725627
 30
0.0
 10
827.531259248086
 20
277.2273364809618
 30
0.0
 10
827.5536857107097
 20
277.7656316972563
 30
0.0
 10
827.5658276084057
 20
278.2429586544842
 30
0.0
 10
827.5672946305748
 20
278.5655288007285
 30
0.0
 10
827.568030749844
 20
278.7273873638067
 30
0.0
  0
ARC
  5
1F7
330
1F
100
AcDbEntity
  8
0
  6
Continuous
 62
     7
370
    15
100
AcDbCircle
 10
831.1575786203
 20
274.8380197474
 30
0.0
 40
4.044815150947239
100
AcDbArc
 50
181.1096220282
 51
268.9291292692
  0
SPLINE
  5
1F8
330
1F
100
AcDbEntity
  8
0
  6
Continuous
 62
     7
370
    15
100
AcDbSpline
210
0.0
220
0.0
230
1.0
 70
     8
 71
     3
 72
     8
 73
     4
 74
     0
 42
0.000000001
 43
0.00000001
 40
0.0
 40
0.0
 40
0.0
 40
0.0
 40
1.0
 40
1.0
 40
1.0
 40
1.0
 10
827.1135219770031
 20
274.7596904975987
 30
0.0
 10
826.597578531986
 20
274.2255592257653
 30
0.0
 10
826.1236730610743
 20
273.690733510274
 30
0.0
 10
825.6919056971267
 20
273.1553266331208
 30
0.0
  0
LINE
  5
1F9
330
1F
100
AcDbEntity
  8
0
  6
Continuous
 62
     7
370
    15
100
AcDbLine
 10
825.4713881119
 20
273.1553266332
 30
0.0
 11
825.6919056938
 21
273.1553266332
 31
0.0
  0
LINE
  5
1FA
330
1F
100
AcDbEntity
  8
0
  6
Continuous
 62
     7
370
    15
100
AcDbLine
 10
825.4713881119
 20
572.1553266332
 30
0.0
 11
825.4713881119
 21
273.1553266332
 31
0.0
  0
LINE
  5
1FB
330
1F
100
AcDbEntity
  8
0
  6
Continuous
 62
     7
370
    15
100
AcDbLine
 10
825.4713881119
 20
572.1553266332
 30
0.0
 11
825.6919056938
 21
572.1553266332
 31
0.0
  0
SPLINE
  5
1FC
330
1F
100
AcDbEntity
  8
0
  6
Continuous
 62
     7
370
    15
100
AcDbSpline
210
0.0
220
0.0
230
1.0
 70
     8
 71
     3
 72
     8
 73
     4
 74
     0
 42
0.000000001
 43
0.00000001
 40
0.0
 40
0.0
 40
0.0
 40
0.0
 40
1.0
 40
1.0
 40
1.0
 40
1.0
 10
827.1135219770032
 20
570.5509627687328
 30
0.0
 10
826.5975785350939
 20
571.0857507235438
 30
0.0
 10
826.123672976833
 20
571.6205386783548
 30
0.0
 10
825.6919056938269
 20
572.1553266331657
 30
0.0
  0
LINE
  5
1FD
330
1F
100
AcDbEntity
  8
0
  6
Continuous
 62
     7
370
    15
100
AcDbLine
 10
900.7829058429
 20
269.1553266332
 30
0.0
 11
829.697553316
 21
269.1553266332
 31
0.0
  0
SPLINE
  5
1FE
330
1F
100
AcDbEntity
  8
0
  6
Continuous
 62
     7
370
    15
100
AcDbSpline
210
0.0
220
0.0
230
1.0
 70
     8
 71
     3
 72
     8
 73
     4
 74
     0
 42
0.000000001
 43
0.00000001
 40
0.0
 40
0.0
 40
0.0
 40
0.0
 40
0.0000274193402719
 40
0.0000274193402719
 40
0.0000274193402719
 40
0.0000274193402719
 10
829.6975533159953
 20
269.1553266331659
 30
0.0
 10
829.6792737558139
 20
269.1553266331659
 30
0.0
 10
829.6609686224539
 20
269.155451224446
 30
0.0
 10
829.6427898774126
 20
269.1557014656298
 30
0.0
  0
SPLINE
  5
1FF
330
1F
100
AcDbEntity
  8
0
  6
Continuous
 62
     7
370
    15
100
AcDbSpline
210
0.0
220
0.0
230
1.0
 70
     8
 71
     3
 72
     8
 73
     4
 74
     0
 42
0.000000001
 43
0.00000001
 40
0.0
 40
0.0
 40
0.0
 40
0.0
 40
1.0
 40
1.0
 40
1.0
 40
1.0
 10
829.6427898774124
 20
269.1557014656298
 30
0.0
 10
830.0789148102124
 20
269.7024149486602
 30
0.0
 10
830.5586816585076
 20
270.2485250091612
 30
0.0
 10
831.0819845359355
 20
270.7939110521062
 30
0.0
  0
LINE
  5
200
330
1F
100
AcDbEntity
  8
0
  6
Continuous
 62
     7
370
    15
100
AcDbLine
 10
900.7829058429
 20
271.034200934
 30
0.0
 11
900.7829058429
 21
269.1553266332
 31
0.0
  0
SPLINE
  5
201
330
1F
100
AcDbEntity
  8
0
  6
Continuous
 62
     7
370
    15
100
AcDbSpline
210
0.0
220
0.0
230
1.0
 70
     8
 71
     3
 72
     8
 73
     4
 74
     0
 42
0.000000001
 43
0.00000001
 40
0.0
 40
0.0
 40
0.0
 40
0.0
 40
1.0
 40
1.0
 40
1.0
 40
1.0
 10
831.0819845361094
 20
574.5167422142284
 30
0.0
 10
830.5586816586816
 20
575.0621282571733
 30
0.0
 10
830.0789148103866
 20
575.608238317674
 30
0.0
 10
829.6427898775869
 20
576.1549518007045
 30
0.0
  0
SPLINE
  5
202
330
1F
100
AcDbEntity
  8
0
  6
Continuous
 62
     7
370
    15
100
AcDbSpline
210
0.0
220
0.0
230
1.0
 70
     8
 71
     3
 72
     8
 73
     4
 74
     0
 42
0.000000001
 43
0.00000001
 40
0.0
 40
0.0
 40
0.0
 40
0.0
 40
0.0000274193402574
 40
0.0000274193402574
 40
0.0000274193402574
 40
0.0000274193402574
 10
829.6427898774417
 20
576.1549518007025
 30
0.0
 10
829.6609686224734
 20
576.1552020418859
 30
0.0
 10
829.6792737558238
 20
576.1553266331659
 30
0.0
 10
829.6975533159955
 20
576.1553266331659
 30
0.0
  0
LINE
  5
203
330
1F
100
AcDbEntity
  8
0
  6
Continuous
 62
     7
370
    15
100
AcDbLine
 10
829.697553316
 20
576.1553266332
 30
0.0
 11
900.7829058429
 21
576.1553266332
 31
0.0
  0
LINE
  5
204
330
1F
100
AcDbEntity
  8
0
  6
Continuous
 62
     7
370
    15
100
AcDbLine
 10
900.7829058429
 20
576.1553266332
 30
0.0
 11
900.7829058429
 21
574.2764523323
 31
0.0
  0
SPLINE
  5
205
330
1F
100
AcDbEntity
  8
0
  6
Continuous
 62
     7
370
    15
100
AcDbSpline
210
0.0
220
0.0
230
1.0
 70
     8
 71
     3
 72
    27
 73
    23
 74
     0
 42
0.000000001
 43
0.00000001
 40
0.0
 40
0.0
 40
0.0
 40
0.0
 40
0.0463956735524624
 40
0.0911524384092641
 40
0.1342702432371817
 40
0.1757490439395001
 40
0.2155888039651187
 40
0.25378949472185
 40
0.2903510961263295
 40
0.325273597331029
 40
0.3585569976815103
 40
0.390201307974915
 40
0.4202065521158977
 40
0.4485727693053714
 40
0.4753000169531442
 40
0.5003883745938383
 40
0.587787590447509
 40
0.6735286643256091
 40
0.7576158283825694
 40
0.84005356327654
 40
0.9208466125012497
 40
1.0
 40
1.0
 40
1.0
 40
1.0
 10
825.6919056938269
 20
572.1553266331659
 30
0.0
 10
825.694549623878
 20
572.2515313892899
 30
0.0
 10
825.6997440882038
 20
572.440542506832
 30
0.0
 10
825.7323092835218
 20
572.7175491363498
 30
0.0
 10
825.7803580258284
 20
572.9818301343379
 30
0.0
 10
825.8434248749157
 20
573.2325546729707
 30
0.0
 10
825.9189071405829
 20
573.4691493118376
 30
0.0
 10
826.0048359778966
 20
573.691272554021
 30
0.0
 10
826.0991979358105
 20
573.898787837702
 30
0.0
 10
826.200123136861
 20
574.0917371577971
 30
0.0
 10
826.3058501726589
 20
574.2703154329985
 30
0.0
 10
826.4147424995966
 20
574.4348456944449
 30
0.0
 10
826.5252895500006
 20
574.5857566185355
 30
0.0
 10
826.6361037984914
 20
574.723558134729
 30
0.0
 10
826.7459322415626
 20
574.8488305391774
 30
0.0
 10
826.9450941312741
 20
575.0584786568733
 30
0.0
 10
827.2544635947099
 20
575.3320960275286
 30
0.0
 10
827.6992420798125
 20
575.6297285514033
 30
0.0
 10
828.1696643696177
 20
575.8618797361121
 30
0.0
 10
828.6558776911612
 20
576.02650141855
 30
0.0
 10
829.1486042530761
 20
576.1303917391996
 30
0.0
 10
829.4791909858338
 20
576.1468212549293
 30
0.0
 10
829.6427898774126
 20
576.1549518007021
 30
0.0
  0
SPLINE
  5
206
330
1F
100
AcDbEntity
  8
0
  6
Continuous
 62
     7
370
    15
100
AcDbSpline
210
0.0
220
0.0
230
1.0
 70
     8
 71
     3
 72
    25
 73
    21
 74
     0
 42
0.000000001
 43
0.00000001
 40
0.0
 40
0.0
 40
0.0
 40
0.0
 40
0.0429870311966877
 40
0.0864622485155582
 40
0.1304265143056281
 40
0.1748806645603942
 40
0.2198255099644768
 40
0.2652618368445891
 40
0.311190408027782
 40
0.3576119636112835
 40
0.4045272216471426
 40
0.4519368787468849
 40
0.4998416106104217
 40
0.551639868089245
 40
0.6099909129477767
 40
0.6748940038208465
 40
0.7463480234074851
 40
0.8243515420581412
 40
0.9089028543176624
 40
0.9999999999999999
 40
0.9999999999999999
 40
0.9999999999999999
 40
0.9999999999999999
 10
829.6427898774126
 20
269.1557014656298
 30
0.0
 10
829.553968543423
 20
269.1586537870968
 30
0.0
 10
829.3753171679012
 20
269.1645919583376
 30
0.0
 10
829.107197386535
 20
269.1966223714373
 30
0.0
 10
828.8386840384962
 20
269.2461594002795
 30
0.0
 10
828.5711586527948
 20
269.3152557749918
 30
0.0
 10
828.3060553941708
 20
269.4037360198007
 30
0.0
 10
828.0448719266919
 20
269.5118958764594
 30
0.0
 10
827.7891574268731
 20
269.6397559354178
 30
0.0
 10
827.5405053000433
 20
269.7872544602712
 30
0.0
 10
827.3005441323819
 20
269.9541849175435
 30
0.0
 10
827.0709246533394
 20
270.1402038631539
 30
0.0
 10
826.8481736663334
 20
270.3496577766926
 30
0.0
 10
826.6267809331342
 20
270.592537644896
 30
0.0
 10
826.4051856600628
 20
270.8815264773937
 30
0.0
 10
826.1903467768839
 20
271.2250569539015
 30
0.0
 10
825.9945239962319
 20
271.6261327922641
 30
0.0
 10
825.8337636540459
 20
272.0856981955404
 30
0.0
 10
825.7181045481983
 20
272.6018311944553
 30
0.0
 10
825.700852948518
 20
272.9663006326259
 30
0.0
 10
825.6919056938269
 20
273.1553266331659
 30
0.0
  0
SPLINE
  5
207
330
1F
100
AcDbEntity
  8
0
  6
Continuous
 62
     7
370
    15
100
AcDbSpline
210
0.0
220
0.0
230
1.0
 70
     8
 71
     3
 72
     8
 73
     4
 74
     0
 42
0.000000001
 43
0.00000001
 40
0.0
 40
0.0
 40
0.0
 40
0.0
 40
0.0001926431712635
 40
0.0001926431712635
 40
0.0001926431712635
 40
0.0001926431712635
 10
825.4898750635692
 20
572.5401657974627
 30
0.0
 10
825.4775647392889
 20
572.4123329076964
 30
0.0
 10
825.4713881118876
 20
572.283755414008
 30
0.0
 10
825.4713881118876
 20
572.1553266331657
 30
0.0
  0
SPLINE
  5
208
330
1F
100
AcDbEntity
  8
0
  6
Continuous
 62
     7
370
    15
100
AcDbSpline
210
0.0
220
0.0
230
1.0
 70
     8
 71
     3
 72
    18
 73
    14
 74
     0
 42
0.000000001
 43
0.00000001
 40
0.0
 40
0.0
 40
0.0
 40
0.0
 40
0.249999999999996
 40
0.249999999999996
 40
0.3749999999999972
 40
0.3749999999999972
 40
0.4999999999999984
 40
0.4999999999999984
 40
0.6249999999999997
 40
0.6249999999999997
 40
0.7500000000000009
 40
0.7500000000000009
 40
1.0
 40
1.0
 40
1.0
 40
1.0
 10
829.5028439056736
 20
576.1553266331659
 30
0.0
 10
829.004976484631
 20
576.1553266331659
 30
0.0
 10
828.5182689272641
 20
576.0653496985951
 30
0.0
 10
827.8235245572214
 20
575.8001591651594
 30
0.0
 10
827.6029867084198
 20
575.6918328326276
 30
0.0
 10
827.183472401051
 20
575.4362701054025
 30
0.0
 10
826.982615846665
 20
575.2871959253952
 30
0.0
 10
826.6148639936001
 20
574.9572633666171
 30
0.0
 10
826.4479907195342
 20
574.7772218929953
 30
0.0
 10
826.1479779142531
 20
574.3872293344908
 30
0.0
 10
826.0140222663573
 20
574.1750490088269
 30
0.0
 10
825.6793483721391
 20
573.5161094135248
 30
0.0
 10
825.5381754708609
 20
573.035970847848
 30
0.0
 10
825.4898750635692
 20
572.5401657974627
 30
0.0
  0
LINE
  5
209
330
1F
100
AcDbEntity
  8
0
  6
Continuous
 62
     7
370
    15
100
AcDbLine
 10
829.5028439057
 20
576.1553266332
 30
0.0
 11
829.697553316
 21
576.1553266332
 31
0.0
  0
LINE
  5
20A
330
1F
100
AcDbEntity
  8
0
  6
Continuous
 62
     7
370
    15
100
AcDbLine
 10
829.697553316
 20
269.1553266332
 30
0.0
 11
829.5028439057
 21
269.1553266332
 31
0.0
  0
SPLINE
  5
20B
330
1F
100
AcDbEntity
  8
0
  6
Continuous
 62
     7
370
    15
100
AcDbSpline
210
0.0
220
0.0
230
1.0
 70
     8
 71
     3
 72
    18
 73
    14
 74
     0
 42
0.000000001
 43
0.00000001
 40
0.0
 40
0.0
 40
0.0
 40
0.0
 40
0.2499999999999907
 40
0.2499999999999907
 40
0.3749999999999922
 40
0.3749999999999922
 40
0.4999999999999938
 40
0.4999999999999938
 40
0.6249999999999953
 40
0.6249999999999953
 40
0.7499999999999969
 40
0.7499999999999969
 40
1.0
 40
1.0
 40
1.0
 40
1.0
 10
825.4898750635692
 20
272.7704874688687
 30
0.0
 10
825.5381647564112
 20
272.2747924026141
 30
0.0
 10
825.6774624475929
 20
271.7987998462872
 30
0.0
 10
826.013624552219
 20
271.1361175387668
 30
0.0
 10
826.1446895757958
 20
270.9283217946437
 30
0.0
 10
826.4438309848243
 20
270.5382307203807
 30
0.0
 10
826.6139669036365
 20
270.3543318036761
 30
0.0
 10
826.9810460520027
 20
270.0247295471373
 30
0.0
 10
827.1779552179298
 20
269.878176858003
 30
0.0
 10
827.598287441679
 20
269.6212608527346
 30
0.0
 10
827.8233357636719
 20
269.510707393772
 30
0.0
 10
828.5125829067423
 20
269.2471933745524
 30
0.0
 10
829.0050861633721
 20
269.1553266331659
 30
0.0
 10
829.5028439056733
 20
269.1553266331659
 30
0.0
  0
SPLINE
  5
20C
330
1F
100
AcDbEntity
  8
0
  6
Continuous
 62
     7
370
    15
100
AcDbSpline
210
0.0
220
0.0
230
1.0
 70
     8
 71
     3
 72
     8
 73
     4
 74
     0
 42
0.000000001
 43
0.00000001
 40
0.0
 40
0.0
 40
0.0
 40
0.0
 40
0.0001926431712635
 40
0.0001926431712635
 40
0.0001926431712635
 40
0.0001926431712635
 10
825.4713881118877
 20
273.1553266331657
 30
0.0
 10
825.4713881118877
 20
273.0268978523234
 30
0.0
 10
825.4775647392889
 20
272.8983203586349
 30
0.0
 10
825.4898750635692
 20
272.7704874688687
 30
0.0
  0
LINE
  5
20D
330
1F
100
AcDbEntity
  8
0
  6
Continuous
 62
     7
370
    15
100
AcDbLine
 10
273.496384894
 20
278.9664817731
 30
0.0
 11
273.496384894
 21
271.034200934
 31
0.0
  0
LINE
  5
20E
330
1F
100
AcDbEntity
  8
0
  6
Continuous
 62
     7
370
    15
100
AcDbLine
 10
342.8505352797
 20
278.7273873638
 30
0.0
 11
273.496384894
 21
278.9664817731
 31
0.0
  0
SPLINE
  5
20F
330
1F
100
AcDbEntity
  8
0
  6
Continuous
 62
     7
370
    15
100
AcDbSpline
210
0.0
220
0.0
230
1.0
 70
     8
 71
     3
 72
    25
 73
    21
 74
     0
 42
0.000000001
 43
0.00000001
 40
0.0
 40
0.0
 40
0.0
 40
0.0
 40
0.0338559215386744
 40
0.0661952801702398
 40
0.0970180464067251
 40
0.1263241938864024
 40
0.1541136996665277
 40
0.1803865446005321
 40
0.2051427138307817
 40
0.2283821974421061
 40
0.2501049913434465
 40
0.3805826394883781
 40
0.4998317582324194
 40
0.5746736271485484
 40
0.6483797017562672
 40
0.7209534328228556
 40
0.7923984381141738
 40
0.8627185125302054
 40
0.931917638972188
 40
1.0
 40
1.0
 40
1.0
 40
1.0
 10
343.1973062008518
 20
270.7939110521033
 30
0.0
 10
343.1908807332559
 20
270.8126756905761
 30
0.0
 10
343.1783176243993
 20
270.849364412801
 30
0.0
 10
343.1601090735295
 20
270.9253508122522
 30
0.0
 10
343.1428948254519
 20
271.0122553010627
 30
0.0
 10
343.1266778855546
 20
271.1092188890865
 30
0.0
 10
343.1114484442899
 20
271.2135724046433
 30
0.0
 10
343.0972046438271
 20
271.3232725160196
 30
0.0
 10
343.0839490272271
 20
271.4362955206562
 30
0.0
 10
343.0716804485111
 20
271.5508082684097
 30
0.0
 10
343.0413747527787
 20
271.8583909537797
 30
0.0
 10
342.9973030283442
 20
272.4365790273998
 30
0.0
 10
342.9513186940731
 20
273.30279938506
 30
0.0
 10
342.9194146480791
 20
274.1120994692271
 30
0.0
 10
342.8970906742681
 20
274.8329589933663
 30
0.0
 10
342.8790858787397
 20
275.5857129953826
 30
0.0
 10
342.8653332297925
 20
276.3604061682
 30
0.0
 10
342.8559314970524
 20
277.1474604376975
 30
0.0
 10
342.8504747636267
 20
277.9378400123671
 30
0.0
 10
342.8505152173895
 20
278.4656360953993
 30
0.0
 10
342.8505352797281
 20
278.7273873638067
 30
0.0
  0
LINE
  5
210
330
1F
100
AcDbEntity
  8
0
  6
Continuous
 62
     7
370
    15
100
AcDbLine
 10
273.496384894
 20
271.034200934
 30
0.0
 11
343.1973062009
 21
270.7939110521
 31
0.0
  0
LINE
  5
211
330
1F
100
AcDbEntity
  8
0
  6
Continuous
 62
     7
370
    15
100
AcDbLine
 10
273.496384894
 20
566.3441714933
 30
0.0
 11
273.496384894
 21
278.9664817731
 31
0.0
  0
LINE
  5
212
330
1F
100
AcDbEntity
  8
0
  6
Continuous
 62
     7
370
    15
100
AcDbLine
 10
273.496384894
 20
566.3441714933
 30
0.0
 11
342.8505352797
 21
566.5832659025
 31
0.0
  0
LINE
  5
213
330
1F
100
AcDbEntity
  8
0
  6
Continuous
 62
     7
370
    15
100
AcDbLine
 10
342.8505352797
 20
566.5832659025
 30
0.0
 11
342.8505352797
 21
278.7273873638
 31
0.0
  0
SPLINE
  5
214
330
1F
100
AcDbEntity
  8
0
  6
Continuous
 62
     7
370
    15
100
AcDbSpline
210
0.0
220
0.0
230
1.0
 70
     8
 71
     3
 72
    18
 73
    14
 74
     0
 42
0.000000001
 43
0.00000001
 40
0.0
 40
0.0
 40
0.0
 40
0.0
 40
0.25
 40
0.25
 40
0.375
 40
0.375
 40
0.5
 40
0.5
 40
0.625
 40
0.625
 40
0.75
 40
0.75
 40
1.0
 40
1.0
 40
1.0
 40
1.0
 10
343.1973062008518
 20
574.5167422142284
 30
0.0
 10
343.1496922813413
 20
574.3913582479215
 30
0.0
 10
343.1036268318932
 20
574.0990431005563
 30
0.0
 10
343.0392020358684
 20
573.4207735846832
 30
0.0
 10
343.0189908877877
 20
573.1595824729476
 30
0.0
 10
342.981097175399
 20
572.56893905342
 30
0.0
 10
342.963276052676
 20
572.23625940843
 30
0.0
 10
342.9310946101417
 20
571.5134550576716
 30
0.0
 10
342.9168637678881
 20
571.1275139477643
 30
0.0
 10
342.8921320779216
 20
570.307408610766
 30
0.0
 10
342.8815538595349
 20
569.8683534157666
 30
0.0
 10
342.856662746691
 20
568.5148051198147
 30
0.0
 10
342.8488445493857
 20
567.5648055913827
 30
0.0
 10
342.850535279728
 20
566.583265902525
 30
0.0
  0
LINE
  5
215
330
1F
100
AcDbEntity
  8
0
  6
Continuous
 62
     7
370
    15
100
AcDbLine
 10
273.496384894
 20
574.2764523323
 30
0.0
 11
273.496384894
 21
566.3441714933
 31
0.0
  0
LINE
  5
216
330
1F
100
AcDbEntity
  8
0
  6
Continuous
 62
     7
370
    15
100
AcDbLine
 10
343.1973062009
 20
574.5167422142
 30
0.0
 11
273.496384894
 21
574.2764523323
 31
0.0
  0
LINE
  5
217
330
1F
100
AcDbEntity
  8
0
  6
Continuous
 62
     7
370
    15
100
AcDbLine
 10
346.7112599871
 20
278.7273873638
 30
0.0
 11
342.8505352797
 21
278.7273873638
 31
0.0
  0
LINE
  5
218
330
1F
100
AcDbEntity
  8
0
  6
Continuous
 62
     7
370
    15
100
AcDbLine
 10
346.7112599871
 20
566.5832659025
 30
0.0
 11
342.8505352797
 21
566.5832659025
 31
0.0
  0
LINE
  5
219
330
1F
100
AcDbEntity
  8
0
  6
Continuous
 62
     7
370
    15
100
AcDbLine
 10
346.7112599871
 20
566.5832659025
 30
0.0
 11
346.7112599871
 21
278.7273873638
 31
0.0
  0
SPLINE
  5
21A
330
1F
100
AcDbEntity
  8
0
  6
Continuous
 62
     7
370
    15
100
AcDbSpline
210
0.0
220
0.0
230
1.0
 70
     8
 71
     3
 72
    19
 73
    15
 74
     0
 42
0.000000001
 43
0.00000001
 40
0.0
 40
0.0
 40
0.0
 40
0.0
 40
0.050273229947256
 40
0.1001692848424311
 40
0.1499639306182729
 40
0.199934612130344
 40
0.2503558683871918
 40
0.3749945856716849
 40
0.5001305506159409
 40
0.624799006343203
 40
0.7499444877265156
 40
0.83338242830327
 40
0.916347428847219
 40
1.0
 40
1.0
 40
1.0
 40
1.0
 10
346.7112599871172
 20
278.7273873638067
 30
0.0
 10
346.7115257600322
 20
278.6300755556443
 30
0.0
 10
346.7120553119002
 20
278.4361820214398
 30
0.0
 10
346.7163989669701
 20
278.1474607366789
 30
0.0
 10
346.7233464344585
 20
277.8625148466467
 30
0.0
 10
346.7331446861471
 20
277.5813438438566
 30
0.0
 10
346.7517905496536
 20
277.1695739397234
 30
0.0
 10
346.7855877309823
 20
276.6454164364341
 30
0.0
 10
346.8425205591911
 20
276.0633680165041
 30
0.0
 10
346.911449183635
 20
275.5663256174577
 30
0.0
 10
346.9815657573143
 20
275.2176650719893
 30
0.0
 10
347.0471671088667
 20
274.9863510305524
 30
0.0
 10
347.1056848146502
 20
274.8378341760557
 30
0.0
 10
347.1456857550388
 20
274.7858099521521
 30
0.0
 10
347.165768759958
 20
274.7596904975985
 30
0.0
  0
ARC
  5
21B
330
1F
100
AcDbEntity
  8
0
  6
Continuous
 62
     7
370
    15
100
AcDbCircle
 10
343.1217121167
 20
274.8380197474
 30
0.0
 40
4.044815150947053
100
AcDbArc
 50
271.0708707306
 51
358.8903779719
  0
SPLINE
  5
21C
330
1F
100
AcDbEntity
  8
0
  6
Continuous
 62
     7
370
    15
100
AcDbSpline
210
0.0
220
0.0
230
1.0
 70
     8
 71
     3
 72
    19
 73
    15
 74
     0
 42
0.000000001
 43
0.00000001
 40
0.0
 40
0.0
 40
0.0
 40
0.0
 40
0.0503347886925384
 40
0.1002675823748871
 40
0.15004704346979
 40
0.1999241277738186
 40
0.2501483277200833
 40
0.3752179700769172
 40
0.4999642813379756
 40
0.6249976431959593
 40
0.7497406529211923
 40
0.8334240102494824
 40
0.9164158535486214
 40
0.9999999999999999
 40
0.9999999999999999
 40
0.9999999999999999
 40
0.9999999999999999
 10
347.165768759958
 20
570.5509627687329
 30
0.0
 10
347.1536776582448
 20
570.5365205916154
 30
0.0
 10
347.1295920194943
 20
570.5077515787435
 30
0.0
 10
347.0939673334033
 20
570.4394017317998
 30
0.0
 10
347.0590005782764
 20
570.3528251114981
 30
0.0
 10
347.0247164509566
 20
570.246213313106
 30
0.0
 10
346.974608841073
 20
570.05815908825
 30
0.0
 10
346.9114617524254
 20
569.7444560487771
 30
0.0
 10
346.8425494136765
 20
569.2475457335615
 30
0.0
 10
346.785612212954
 20
568.6653599937247
 30
0.0
 10
346.7480314888734
 20
568.0833167853434
 30
0.0
 10
346.7256050262513
 20
567.5450215690794
 30
0.0
 10
346.7134631285553
 20
567.0676946118517
 30
0.0
 10
346.7119961063863
 20
566.7451244656052
 30
0.0
 10
346.7112599871172
 20
566.5832659025248
 30
0.0
  0
ARC
  5
21D
330
1F
100
AcDbEntity
  8
0
  6
Continuous
 62
     7
370
    15
100
AcDbCircle
 10
343.1217121167
 20
570.4726335189
 30
0.0
 40
4.044815150947065
100
AcDbArc
 50
1.1096220281
 51
88.9291292692
  0
SPLINE
  5
21E
330
1F
100
AcDbEntity
  8
0
  6
Continuous
 62
     7
370
    15
100
AcDbSpline
210
0.0
220
0.0
230
1.0
 70
     8
 71
     3
 72
     8
 73
     4
 74
     0
 42
0.000000001
 43
0.00000001
 40
0.0
 40
0.0
 40
0.0
 40
0.0
 40
1.0
 40
1.0
 40
1.0
 40
1.0
 10
348.5873850431342
 20
572.1553266331657
 30
0.0
 10
348.1556177601282
 20
571.6205386783548
 30
0.0
 10
347.6817122018672
 20
571.0857507235438
 30
0.0
 10
347.165768759958
 20
570.5509627687328
 30
0.0
  0
LINE
  5
21F
330
1F
100
AcDbEntity
  8
0
  6
Continuous
 62
     7
370
    15
100
AcDbLine
 10
348.5873850431
 20
572.1553266332
 30
0.0
 11
348.8079026251
 21
572.1553266332
 31
0.0
  0
LINE
  5
220
330
1F
100
AcDbEntity
  8
0
  6
Continuous
 62
     7
370
    15
100
AcDbLine
 10
348.8079026251
 20
273.1553266332
 30
0.0
 11
348.8079026251
 21
572.1553266332
 31
0.0
  0
LINE
  5
221
330
1F
100
AcDbEntity
  8
0
  6
Continuous
 62
     7
370
    15
100
AcDbLine
 10
348.8079026251
 20
273.1553266332
 30
0.0
 11
348.5873850431
 21
273.1553266332
 31
0.0
  0
SPLINE
  5
222
330
1F
100
AcDbEntity
  8
0
  6
Continuous
 62
     7
370
    15
100
AcDbSpline
210
0.0
220
0.0
230
1.0
 70
     8
 71
     3
 72
     8
 73
     4
 74
     0
 42
0.000000001
 43
0.00000001
 40
0.0
 40
0.0
 40
0.0
 40
0.0
 40
1.0
 40
1.0
 40
1.0
 40
1.0
 10
347.165768759958
 20
274.7596904975985
 30
0.0
 10
347.6817122018672
 20
274.2249025427876
 30
0.0
 10
348.1556177601282
 20
273.6901145879767
 30
0.0
 10
348.5873850431342
 20
273.1553266331657
 30
0.0
  0
SPLINE
  5
223
330
1F
100
AcDbEntity
  8
0
  6
Continuous
 62
     7
370
    15
100
AcDbSpline
210
0.0
220
0.0
230
1.0
 70
     8
 71
     3
 72
     8
 73
     4
 74
     0
 42
0.000000001
 43
0.00000001
 40
0.0
 40
0.0
 40
0.0
 40
0.0
 40
1.0
 40
1.0
 40
1.0
 40
1.0
 10
343.197306200852
 20
270.7939110521034
 30
0.0
 10
343.7206090782797
 20
270.2485250091585
 30
0.0
 10
344.2003759265748
 20
269.7024149486577
 30
0.0
 10
344.6365008593745
 20
269.1557014656274
 30
0.0
  0
SPLINE
  5
224
330
1F
100
AcDbEntity
  8
0
  6
Continuous
 62
     7
370
    15
100
AcDbSpline
210
0.0
220
0.0
230
1.0
 70
     8
 71
     3
 72
     8
 73
     4
 74
     0
 42
0.000000001
 43
0.00000001
 40
0.0
 40
0.0
 40
0.0
 40
0.0
 40
0.0000274193402574
 40
0.0000274193402574
 40
0.0000274193402574
 40
0.0000274193402574
 10
344.6365008595197
 20
269.1557014656294
 30
0.0
 10
344.618322114488
 20
269.1554512244459
 30
0.0
 10
344.6000169811375
 20
269.1553266331659
 30
0.0
 10
344.5817374209659
 20
269.1553266331659
 30
0.0
  0
LINE
  5
225
330
1F
100
AcDbEntity
  8
0
  6
Continuous
 62
     7
370
    15
100
AcDbLine
 10
344.581737421
 20
269.1553266332
 30
0.0
 11
273.496384894
 21
269.1553266332
 31
0.0
  0
LINE
  5
226
330
1F
100
AcDbEntity
  8
0
  6
Continuous
 62
     7
370
    15
100
AcDbLine
 10
273.496384894
 20
269.1553266332
 30
0.0
 11
273.496384894
 21
271.034200934
 31
0.0
  0
LINE
  5
227
330
1F
100
AcDbEntity
  8
0
  6
Continuous
 62
     7
370
    15
100
AcDbLine
 10
273.496384894
 20
576.1553266332
 30
0.0
 11
344.581737421
 21
576.1553266332
 31
0.0
  0
SPLINE
  5
228
330
1F
100
AcDbEntity
  8
0
  6
Continuous
 62
     7
370
    15
100
AcDbSpline
210
0.0
220
0.0
230
1.0
 70
     8
 71
     3
 72
     8
 73
     4
 74
     0
 42
0.000000001
 43
0.00000001
 40
0.0
 40
0.0
 40
0.0
 40
0.0
 40
0.0000274193402719
 40
0.0000274193402719
 40
0.0000274193402719
 40
0.0000274193402719
 10
344.5817374209659
 20
576.1553266331659
 30
0.0
 10
344.6000169811472
 20
576.1553266331659
 30
0.0
 10
344.6183221145073
 20
576.1552020418858
 30
0.0
 10
344.6365008595486
 20
576.1549518007021
 30
0.0
  0
SPLINE
  5
229
330
1F
100
AcDbEntity
  8
0
  6
Continuous
 62
     7
370
    15
100
AcDbSpline
210
0.0
220
0.0
230
1.0
 70
     8
 71
     3
 72
     8
 73
     4
 74
     0
 42
0.000000001
 43
0.00000001
 40
0.0
 40
0.0
 40
0.0
 40
0.0
 40
1.0
 40
1.0
 40
1.0
 40
1.0
 10
344.6365008595487
 20
576.154951800702
 30
0.0
 10
344.2003759267488
 20
575.6082383176715
 30
0.0
 10
343.7206090784536
 20
575.0621282571706
 30
0.0
 10
343.1973062010256
 20
574.5167422142256
 30
0.0
  0
LINE
  5
22A
330
1F
100
AcDbEntity
  8
0
  6
Continuous
 62
     7
370
    15
100
AcDbLine
 10
273.496384894
 20
574.2764523323
 30
0.0
 11
273.496384894
 21
576.1553266332
 31
0.0
  0
SPLINE
  5
22B
330
1F
100
AcDbEntity
  8
0
  6
Continuous
 62
     7
370
    15
100
AcDbSpline
210
0.0
220
0.0
230
1.0
 70
     8
 71
     3
 72
    27
 73
    23
 74
     0
 42
0.000000001
 43
0.00000001
 40
0.0
 40
0.0
 40
0.0
 40
0.0
 40
0.0463956735524624
 40
0.0911524384092641
 40
0.1342702432371818
 40
0.1757490439395002
 40
0.2155888039651187
 40
0.2537894947218501
 40
0.2903510961263296
 40
0.3252735973310291
 40
0.3585569976815104
 40
0.3902013079749151
 40
0.4202065521158979
 40
0.4485727693053715
 40
0.4753000169531444
 40
0.5003883745938384
 40
0.5877875904475092
 40
0.6735286643256094
 40
0.7576158283825677
 40
0.8400535632765399
 40
0.9208466125012496
 40
1.0
 40
1.0
 40
1.0
 40
1.0
 10
348.5873850431342
 20
273.1553266331657
 30
0.0
 10
348.5847411130832
 20
273.0591218770417
 30
0.0
 10
348.5795466487573
 20
272.8701107594997
 30
0.0
 10
348.5469814534393
 20
272.5931041299817
 30
0.0
 10
348.4989327111327
 20
272.3288231319937
 30
0.0
 10
348.4358658620454
 20
272.0780985933609
 30
0.0
 10
348.3603835963783
 20
271.841503954494
 30
0.0
 10
348.2744547590644
 20
271.6193807123106
 30
0.0
 10
348.1800928011506
 20
271.4118654286297
 30
0.0
 10
348.0791676001002
 20
271.2189161085345
 30
0.0
 10
347.9734405643022
 20
271.0403378333332
 30
0.0
 10
347.8645482373644
 20
270.8758075718868
 30
0.0
 10
347.7540011869606
 20
270.724896647796
 30
0.0
 10
347.6431869384697
 20
270.5870951316026
 30
0.0
 10
347.5333584953984
 20
270.4618227271542
 30
0.0
 10
347.334196605687
 20
270.2521746094584
 30
0.0
 10
347.0248271422512
 20
269.978557238803
 30
0.0
 10
346.5800486571487
 20
269.6809247149282
 30
0.0
 10
346.1096263673434
 20
269.4487735302196
 30
0.0
 10
345.6234130457999
 20
269.2841518477816
 30
0.0
 10
345.1306864838851
 20
269.180261527132
 30
0.0
 10
344.8000997511273
 20
269.1638320114023
 30
0.0
 10
344.6365008595486
 20
269.1557014656296
 30
0.0
  0
SPLINE
  5
22C
330
1F
100
AcDbEntity
  8
0
  6
Continuous
 62
     7
370
    15
100
AcDbSpline
210
0.0
220
0.0
230
1.0
 70
     8
 71
     3
 72
    25
 73
    21
 74
     0
 42
0.000000001
 43
0.00000001
 40
0.0
 40
0.0
 40
0.0
 40
0.0
 40
0.0429870311966877
 40
0.0864622485155582
 40
0.1304265143056281
 40
0.1748806645603942
 40
0.2198255099644768
 40
0.2652618368445891
 40
0.311190408027782
 40
0.3576119636112835
 40
0.4045272216471426
 40
0.4519368787468849
 40
0.4998416106104217
 40
0.551639868089245
 40
0.6099909129477767
 40
0.6748940038208465
 40
0.7463480234074851
 40
0.8243515420581412
 40
0.9089028543176624
 40
0.9999999999999999
 40
0.9999999999999999
 40
0.9999999999999999
 40
0.9999999999999999
 10
344.6365008595486
 20
576.1549518007018
 30
0.0
 10
344.7253221935381
 20
576.1519994792349
 30
0.0
 10
344.9039735690599
 20
576.146061307994
 30
0.0
 10
345.1720933504262
 20
576.1140308948943
 30
0.0
 10
345.4406066984649
 20
576.0644938660521
 30
0.0
 10
345.7081320841663
 20
575.9953974913399
 30
0.0
 10
345.9732353427904
 20
575.9069172465308
 30
0.0
 10
346.2344188102692
 20
575.7987573898722
 30
0.0
 10
346.490133310088
 20
575.6708973309138
 30
0.0
 10
346.7387854369179
 20
575.5233988060604
 30
0.0
 10
346.9787466045793
 20
575.3564683487881
 30
0.0
 10
347.2083660836217
 20
575.1704494031777
 30
0.0
 10
347.4311170706277
 20
574.960995489639
 30
0.0
 10
347.6525098038269
 20
574.7181156214356
 30
0.0
 10
347.8741050768983
 20
574.4291267889379
 30
0.0
 10
348.0889439600774
 20
574.0855963124301
 30
0.0
 10
348.2847667407291
 20
573.6845204740675
 30
0.0
 10
348.4455270829151
 20
573.2249550707913
 30
0.0
 10
348.5611861887629
 20
572.7088220718764
 30
0.0
 10
348.5784377884431
 20
572.3443526337057
 30
0.0
 10
348.5873850431342
 20
572.1553266331657
 30
0.0
  0
SPLINE
  5
22D
330
1F
100
AcDbEntity
  8
0
  6
Continuous
 62
     7
370
    15
100
AcDbSpline
210
0.0
220
0.0
230
1.0
 70
     8
 71
     3
 72
     8
 73
     4
 74
     0
 42
0.000000001
 43
0.00000001
 40
0.0
 40
0.0
 40
0.0
 40
0.0
 40
0.0001926431712635
 40
0.0001926431712635
 40
0.0001926431712635
 40
0.0001926431712635
 10
348.7894156733919
 20
272.7704874688687
 30
0.0
 10
348.8017259976723
 20
272.8983203586349
 30
0.0
 10
348.8079026250736
 20
273.0268978523234
 30
0.0
 10
348.8079026250736
 20
273.1553266331657
 30
0.0
  0
SPLINE
  5
22E
330
1F
100
AcDbEntity
  8
0
  6
Continuous
 62
     7
370
    15
100
AcDbSpline
210
0.0
220
0.0
230
1.0
 70
     8
 71
     3
 72
    18
 73
    14
 74
     0
 42
0.000000001
 43
0.00000001
 40
0.0
 40
0.0
 40
0.0
 40
0.0
 40
0.2499999999999963
 40
0.2499999999999963
 40
0.3749999999999969
 40
0.3749999999999969
 40
0.4999999999999976
 40
0.4999999999999976
 40
0.6249999999999981
 40
0.6249999999999981
 40
0.7499999999999988
 40
0.7499999999999988
 40
1.0
 40
1.0
 40
1.0
 40
1.0
 10
344.7764468312878
 20
269.1553266331659
 30
0.0
 10
345.2743142523303
 20
269.1553266331659
 30
0.0
 10
345.7610218096972
 20
269.2453035677366
 30
0.0
 10
346.45576617974
 20
269.5104941011725
 30
0.0
 10
346.6763040285416
 20
269.6188204337042
 30
0.0
 10
347.0958183359104
 20
269.8743831609291
 30
0.0
 10
347.2966748902965
 20
270.0234573409367
 30
0.0
 10
347.6644267433613
 20
270.3533898997146
 30
0.0
 10
347.831300017427
 20
270.5334313733364
 30
0.0
 10
348.131312822708
 20
270.9234239318408
 30
0.0
 10
348.2652684706038
 20
271.1356042575045
 30
0.0
 10
348.5999423648221
 20
271.7945438528069
 30
0.0
 10
348.7411152661002
 20
272.2746824184835
 30
0.0
 10
348.7894156733919
 20
272.7704874688687
 30
0.0
  0
LINE
  5
22F
330
1F
100
AcDbEntity
  8
0
  6
Continuous
 62
     7
370
    15
100
AcDbLine
 10
344.7764468313
 20
269.1553266332
 30
0.0
 11
344.581737421
 21
269.1553266332
 31
0.0
  0
LINE
  5
230
330
1F
100
AcDbEntity
  8
0
  6
Continuous
 62
     7
370
    15
100
AcDbLine
 10
344.581737421
 20
576.1553266332
 30
0.0
 11
344.7764468313
 21
576.1553266332
 31
0.0
  0
SPLINE
  5
231
330
1F
100
AcDbEntity
  8
0
  6
Continuous
 62
     7
370
    15
100
AcDbSpline
210
0.0
220
0.0
230
1.0
 70
     8
 71
     3
 72
    18
 73
    14
 74
     0
 42
0.000000001
 43
0.00000001
 40
0.0
 40
0.0
 40
0.0
 40
0.0
 40
0.2500000000000058
 40
0.2500000000000058
 40
0.375000000000004
 40
0.375000000000004
 40
0.5000000000000022
 40
0.5000000000000022
 40
0.6250000000000004
 40
0.6250000000000004
 40
0.7499999999999987
 40
0.7499999999999987
 40
1.0
 40
1.0
 40
1.0
 40
1.0
 10
348.7894156733922
 20
572.5401657974627
 30
0.0
 10
348.7411259805502
 20
573.0358608637174
 30
0.0
 10
348.6018282893683
 20
573.5118534200442
 30
0.0
 10
348.2656661847422
 20
574.1745357275647
 30
0.0
 10
348.1346011611653
 20
574.3823314716878
 30
0.0
 10
347.8354597521367
 20
574.7724225459509
 30
0.0
 10
347.6653238333245
 20
574.9563214626555
 30
0.0
 10
347.2982446849583
 20
575.2859237191943
 30
0.0
 10
347.1013355190312
 20
575.4324764083286
 30
0.0
 10
346.681003295282
 20
575.689392413597
 30
0.0
 10
346.4559549732891
 20
575.7999458725598
 30
0.0
 10
345.7667078302187
 20
576.0634598917793
 30
0.0
 10
345.274204573589
 20
576.1553266331658
 30
0.0
 10
344.7764468312878
 20
576.1553266331659
 30
0.0
  0
SPLINE
  5
232
330
1F
100
AcDbEntity
  8
0
  6
Continuous
 62
     7
370
    15
100
AcDbSpline
210
0.0
220
0.0
230
1.0
 70
     8
 71
     3
 72
     8
 73
     4
 74
     0
 42
0.000000001
 43
0.00000001
 40
0.0
 40
0.0
 40
0.0
 40
0.0
 40
0.0001926431712635
 40
0.0001926431712635
 40
0.0001926431712635
 40
0.0001926431712635
 10
348.8079026250737
 20
572.1553266331657
 30
0.0
 10
348.8079026250737
 20
572.283755414008
 30
0.0
 10
348.8017259976725
 20
572.4123329076964
 30
0.0
 10
348.7894156733922
 20
572.5401657974627
 30
0.0
  0
LINE
  5
233
330
1F
100
AcDbEntity
  8
0
  6
Continuous
 62
     7
370
    15
100
AcDbLine
 10
655.2409495326
 20
660.8932329692
 30
0.0
 11
655.1825658298
 21
661.55161617
 31
0.0
  0
LINE
  5
234
330
1F
100
AcDbEntity
  8
0
  6
Continuous
 62
     7
370
    15
100
AcDbLine
 10
491.077478676
 20
661.55161617
 30
0.0
 11
491.0190949732
 21
660.8932329692
 31
0.0
  0
LINE
  5
235
330
1F
100
AcDbEntity
  8
0
  6
Continuous
 62
     7
370
    15
100
AcDbLine
 10
627.6300222529
 20
671.9102705247
 30
0.0
 11
627.6300222529
 21
663.5102705247
 31
0.0
  0
LINE
  5
236
330
1F
100
AcDbEntity
  8
0
  6
Continuous
 62
     7
370
    15
100
AcDbLine
 10
518.6300222529
 20
663.5102705247
 30
0.0
 11
518.6300222529
 21
671.9102705247
 31
0.0
  0
SPLINE
  5
237
330
1F
100
AcDbEntity
  8
0
  6
Continuous
 62
     7
370
    15
100
AcDbSpline
210
0.0
220
0.0
230
1.0
 70
     8
 71
     3
 72
     8
 73
     4
 74
     0
 42
0.000000001
 43
0.00000001
 40
0.0
 40
0.0
 40
0.0
 40
0.0
 40
1.0
 40
1.0
 40
1.0
 40
1.0
 10
648.3463065920946
 20
661.2093492178801
 30
0.0
 10
644.2036883133734
 20
660.6860463404522
 30
0.0
 10
640.0555705753237
 20
660.2062794921573
 30
0.0
 10
635.9028693881135
 20
659.7701545593575
 30
0.0
  0
ARC
  5
238
330
1F
100
AcDbEntity
  8
0
  6
Continuous
 62
     7
370
    15
100
AcDbCircle
 10
640.5856207558
 20
659.2657427249
 30
0.0
 40
8.000365669740587
100
AcDbArc
 50
345.339239738
 51
14.0601094533
  0
SPLINE
  5
239
330
1F
100
AcDbEntity
  8
0
  6
Continuous
 62
     7
370
    15
100
AcDbSpline
210
0.0
220
0.0
230
1.0
 70
     8
 71
     3
 72
     8
 73
     4
 74
     0
 42
0.000000001
 43
0.00000001
 40
0.0
 40
0.0
 40
0.0
 40
0.0
 40
1.0
 40
1.0
 40
1.0
 40
1.0
 10
648.3255050418077
 20
657.2408866587739
 30
0.0
 10
644.2411462028977
 20
656.7249432168647
 30
0.0
 10
640.1514770764918
 20
656.2510376586038
 30
0.0
 10
636.0573640133782
 20
655.8192703755976
 30
0.0
  0
SPLINE
  5
23A
330
1F
100
AcDbEntity
  8
0
  6
Continuous
 62
     7
370
    15
100
AcDbSpline
210
0.0
220
0.0
230
1.0
 70
     8
 71
     3
 72
    27
 73
    23
 74
     0
 42
0.000000001
 43
0.00000001
 40
0.0
 40
0.0
 40
0.0
 40
0.0
 40
0.0463956735524624
 40
0.0911524384092641
 40
0.1342702432371817
 40
0.1757490439395001
 40
0.2155888039651187
 40
0.25378949472185
 40
0.2903510961263295
 40
0.325273597331029
 40
0.3585569976815103
 40
0.390201307974915
 40
0.4202065521158977
 40
0.4485727693053714
 40
0.4753000169531442
 40
0.5003883745938383
 40
0.587787590447509
 40
0.6735286643256091
 40
0.7576158283825694
 40
0.84005356327654
 40
0.9208466125012497
 40
1.0
 40
1.0
 40
1.0
 40
1.0
 10
636.057364013378
 20
655.8192703755976
 30
0.0
 10
636.0633727126083
 20
655.8219143056488
 30
0.0
 10
636.0751778561608
 20
655.8271087699745
 30
0.0
 10
636.0896851470636
 20
655.8596739652926
 30
0.0
 10
636.1017014807677
 20
655.9077227075991
 30
0.0
 10
636.1112586857188
 20
655.9707895566864
 30
0.0
 10
636.1186347885997
 20
656.0462718223537
 30
0.0
 10
636.1240361320777
 20
656.1322006596673
 30
0.0
 10
636.1276753656791
 20
656.2265626175812
 30
0.0
 10
636.1297498934388
 20
656.3274878186317
 30
0.0
 10
636.1304460603639
 20
656.4332148544296
 30
0.0
 10
636.1299368949518
 20
656.5421071813674
 30
0.0
 10
636.1283833320914
 20
656.6526542317712
 30
0.0
 10
636.1259298528535
 20
656.7634684802621
 30
0.0
 10
636.1227191482494
 20
656.8732969233334
 30
0.0
 10
636.115549739801
 20
657.0724588130449
 30
0.0
 10
636.1007076930105
 20
657.3818282764806
 30
0.0
 10
636.073160341505
 20
657.8266067615832
 30
0.0
 10
636.0386983243569
 20
658.2970290513884
 30
0.0
 10
635.9982843460159
 20
658.7832423729319
 30
0.0
 10
635.9533068537457
 20
659.2759689348469
 30
0.0
 10
635.919566582591
 20
659.6065556676045
 30
0.0
 10
635.9028693881318
 20
659.7701545591833
 30
0.0
  0
SPLINE
  5
23B
330
1F
100
AcDbEntity
  8
0
  6
Continuous
 62
     7
370
    15
100
AcDbSpline
210
0.0
220
0.0
230
1.0
 70
     8
 71
     3
 72
     8
 73
     4
 74
     0
 42
0.000000001
 43
0.00000001
 40
0.0
 40
0.0
 40
0.0
 40
0.0
 40
1.0
 40
1.0
 40
1.0
 40
1.0
 10
510.202680492427
 20
655.8192703755976
 30
0.0
 10
506.1085674293136
 20
656.2510376586038
 30
0.0
 10
502.0188983029077
 20
656.7249432168647
 30
0.0
 10
497.9345394639977
 20
657.2408866587739
 30
0.0
  0
ARC
  5
23C
330
1F
100
AcDbEntity
  8
0
  6
Continuous
 62
     7
370
    15
100
AcDbCircle
 10
505.67442375
 20
659.2657427249
 30
0.0
 40
8.000365669714157
100
AcDbArc
 50
165.9398905467
 51
194.660760262
  0
SPLINE
  5
23D
330
1F
100
AcDbEntity
  8
0
  6
Continuous
 62
     7
370
    15
100
AcDbSpline
210
0.0
220
0.0
230
1.0
 70
     8
 71
     3
 72
     8
 73
     4
 74
     0
 42
0.000000001
 43
0.00000001
 40
0.0
 40
0.0
 40
0.0
 40
0.0
 40
1.0
 40
1.0
 40
1.0
 40
1.0
 10
510.3571751176739
 20
659.7701545591831
 30
0.0
 10
506.2044739304624
 20
660.206279491983
 30
0.0
 10
502.0563561924116
 20
660.6860463402783
 30
0.0
 10
497.9137379136892
 20
661.2093492177063
 30
0.0
  0
SPLINE
  5
23E
330
1F
100
AcDbEntity
  8
0
  6
Continuous
 62
     7
370
    15
100
AcDbSpline
210
0.0
220
0.0
230
1.0
 70
     8
 71
     3
 72
    25
 73
    21
 74
     0
 42
0.000000001
 43
0.00000001
 40
0.0
 40
0.0
 40
0.0
 40
0.0
 40
0.0429870311966877
 40
0.0864622485155582
 40
0.1304265143056281
 40
0.1748806645603942
 40
0.2198255099644768
 40
0.2652618368445891
 40
0.311190408027782
 40
0.3576119636112835
 40
0.4045272216471426
 40
0.4519368787468849
 40
0.4998416106104217
 40
0.551639868089245
 40
0.6099909129477767
 40
0.6748940038208465
 40
0.7463480234074851
 40
0.8243515420581412
 40
0.9089028543176624
 40
0.9999999999999999
 40
0.9999999999999999
 40
0.9999999999999999
 40
0.9999999999999999
 10
510.3571751176738
 20
659.7701545591833
 30
0.0
 10
510.3480083680556
 20
659.6813332251937
 30
0.0
 10
510.3295707657952
 20
659.502681849672
 30
0.0
 10
510.303472736764
 20
659.2345620683056
 30
0.0
 10
510.2784849962321
 20
658.9660487202669
 30
0.0
 10
510.2548719638945
 20
658.6985233345656
 30
0.0
 10
510.2327553865913
 20
658.4334200759415
 30
0.0
 10
510.2123041302285
 20
658.1722366084626
 30
0.0
 10
510.1936809732148
 20
657.9165221086438
 30
0.0
 10
510.177057834295
 20
657.6678699818141
 30
0.0
 10
510.1626032229748
 20
657.4279088141526
 30
0.0
 10
510.1505112266922
 20
657.1982893351103
 30
0.0
 10
510.1406622494397
 20
656.9755383481042
 30
0.0
 10
510.1334709419814
 20
656.7541456149049
 30
0.0
 10
510.1295066484906
 20
656.5325503418336
 30
0.0
 10
510.1297092583752
 20
656.3177114586545
 30
0.0
 10
510.1354019565163
 20
656.1218886780027
 30
0.0
 10
510.1482879257189
 20
655.9611283358166
 30
0.0
 10
510.1693705584983
 20
655.845469229969
 30
0.0
 10
510.1913047101741
 20
655.8282176302888
 30
0.0
 10
510.2026804924271
 20
655.8192703755976
 30
0.0
  0
LINE
  5
23F
330
1F
100
AcDbEntity
  8
0
  6
Continuous
 62
     7
370
    15
100
AcDbLine
 10
650.1714894507
 20
730.9102705247
 30
0.0
 11
648.3463065921
 21
661.2093492179
 31
0.0
  0
SPLINE
  5
240
330
1F
100
AcDbEntity
  8
0
  6
Continuous
 62
     7
370
    15
100
AcDbSpline
210
0.0
220
0.0
230
1.0
 70
     8
 71
     3
 72
     8
 73
     4
 74
     0
 42
0.000000001
 43
0.00000001
 40
0.0
 40
0.0
 40
0.0
 40
0.0
 40
0.0000274193402574
 40
0.0000274193402574
 40
0.0000274193402574
 40
0.0000274193402574
 10
635.9028693881287
 20
659.7701545592124
 30
0.0
 10
635.9009686176305
 20
659.7883333042441
 30
0.0
 10
635.9000222529027
 20
659.8066384375945
 30
0.0
 10
635.9000222529027
 20
659.8249179977662
 30
0.0
  0
LINE
  5
241
330
1F
100
AcDbEntity
  8
0
  6
Continuous
 62
     7
370
    15
100
AcDbLine
 10
635.9000222529
 20
659.8249179978
 30
0.0
 11
635.9000222529
 21
730.9102705247
 31
0.0
  0
LINE
  5
242
330
1F
100
AcDbEntity
  8
0
  6
Continuous
 62
     7
370
    15
100
AcDbLine
 10
635.9000222529
 20
730.9102705247
 30
0.0
 11
650.1714894507
 21
730.9102705247
 31
0.0
  0
LINE
  5
243
330
1F
100
AcDbEntity
  8
0
  6
Continuous
 62
     7
370
    15
100
AcDbLine
 10
497.9137379137
 20
661.2093492179
 30
0.0
 11
496.0885550551
 21
730.9102705247
 31
0.0
  0
LINE
  5
244
330
1F
100
AcDbEntity
  8
0
  6
Continuous
 62
     7
370
    15
100
AcDbLine
 10
496.0885550551
 20
730.9102705247
 30
0.0
 11
510.3600222529
 21
730.9102705247
 31
0.0
  0
LINE
  5
245
330
1F
100
AcDbEntity
  8
0
  6
Continuous
 62
     7
370
    15
100
AcDbLine
 10
510.3600222529
 20
730.9102705247
 30
0.0
 11
510.3600222529
 21
659.8249179978
 31
0.0
  0
SPLINE
  5
246
330
1F
100
AcDbEntity
  8
0
  6
Continuous
 62
     7
370
    15
100
AcDbSpline
210
0.0
220
0.0
230
1.0
 70
     8
 71
     3
 72
     8
 73
     4
 74
     0
 42
0.000000001
 43
0.00000001
 40
0.0
 40
0.0
 40
0.0
 40
0.0
 40
0.0000274193402719
 40
0.0000274193402719
 40
0.0000274193402719
 40
0.0000274193402719
 10
510.3600222529026
 20
659.824917997766
 30
0.0
 10
510.3600222529026
 20
659.8066384375846
 30
0.0
 10
510.3590758881739
 20
659.7883333042246
 30
0.0
 10
510.3571751176736
 20
659.7701545591833
 30
0.0
  0
ARC
  5
247
330
1F
100
AcDbEntity
  8
0
  6
Continuous
 62
     7
370
    15
100
AcDbCircle
 10
573.1300222529
 20
1252.5102705247
 30
0.0
 40
600.0000000000001
100
AcDbArc
 50
275.8159549047
 51
276.0201896873
  0
SPLINE
  5
248
330
1F
100
AcDbEntity
  8
0
  6
Continuous
 62
     7
370
    15
100
AcDbSpline
210
0.0
220
0.0
230
1.0
 70
    24
 71
     3
 72
     8
 73
     4
 74
     0
 42
0.000000001
 43
0.00000001
 40
0.0
 40
0.0
 40
0.0
 40
0.0
 40
0.0001926431712635
 40
0.0001926431712635
 40
0.0001926431712635
 40
0.0001926431712635
 10
633.9284048542074
 20
655.6172397453399
 30
0.0
 10
633.9294818680263
 20
655.6049294210596
 30
0.0
 10
633.9300222529024
 20
655.5987527936583
 30
0.0
 10
633.9300222529024
 20
655.5987527936583
 30
0.0
  0
LINE
  5
249
330
1F
100
AcDbEntity
  8
0
  6
Continuous
 62
     7
370
    15
100
AcDbLine
 10
634.0334881416
 20
659.6302085874
 30
0.0
 11
635.9000222529
 21
659.8249179978
 31
0.0
  0
SPLINE
  5
24A
330
1F
100
AcDbEntity
  8
0
  6
Continuous
 62
     7
370
    15
100
AcDbSpline
210
0.0
220
0.0
230
1.0
 70
    24
 71
     3
 72
    18
 73
    14
 74
     0
 42
0.000000001
 43
0.00000001
 40
0.0
 40
0.0
 40
0.0
 40
0.0
 40
0.249999999999996
 40
0.249999999999996
 40
0.3749999999999972
 40
0.3749999999999972
 40
0.4999999999999984
 40
0.4999999999999984
 40
0.6249999999999997
 40
0.6249999999999997
 40
0.7500000000000009
 40
0.7500000000000009
 40
1.0
 40
1.0
 40
1.0
 40
1.0
 10
634.0334881415662
 20
659.6302085874443
 30
0.0
 10
634.0204510243269
 20
659.1323411664017
 30
0.0
 10
634.0077061384026
 20
658.6456336090348
 30
0.0
 10
633.9895136168179
 20
657.9508892389921
 30
0.0
 10
633.9837386300061
 20
657.7303513901905
 30
0.0
 10
633.9727532612562
 20
657.3108370828216
 30
0.0
 10
633.9674936472763
 20
657.1099805284357
 30
0.0
 10
633.957863726095
 20
656.7422286753708
 30
0.0
 10
633.9534939956287
 20
656.5753554013049
 30
0.0
 10
633.9456378838398
 20
656.2753425960238
 30
0.0
 10
633.9421301317504
 20
656.1413869481281
 30
0.0
 10
633.9333663874052
 20
655.8067130539098
 30
0.0
 10
633.9296696448846
 20
655.6655401526317
 30
0.0
 10
633.9284048542074
 20
655.6172397453399
 30
0.0
  0
ARC
  5
24B
330
1F
100
AcDbEntity
  8
0
  6
Continuous
 62
     7
370
    15
100
AcDbCircle
 10
573.1300222529
 20
1252.5102705247
 30
0.0
 40
600.0000000000003
100
AcDbArc
 50
263.9798103127
 51
264.1840450953
  0
LINE
  5
24C
330
1F
100
AcDbEntity
  8
0
  6
Continuous
 62
     7
370
    15
100
AcDbLine
 10
510.3600222529
 20
659.8249179978
 30
0.0
 11
512.2265563642
 21
659.6302085874
 31
0.0
  0
SPLINE
  5
24D
330
1F
100
AcDbEntity
  8
0
  6
Continuous
 62
     7
370
    15
100
AcDbSpline
210
0.0
220
0.0
230
1.0
 70
    24
 71
     3
 72
     8
 73
     4
 74
     0
 42
0.000000001
 43
0.00000001
 40
0.0
 40
0.0
 40
0.0
 40
0.0
 40
0.0001926431712635
 40
0.0001926431712635
 40
0.0001926431712635
 40
0.0001926431712635
 10
512.3300222529026
 20
655.5987527936582
 30
0.0
 10
512.3300222529026
 20
655.5987527936582
 30
0.0
 10
512.3305626377789
 20
655.6049294210594
 30
0.0
 10
512.3316396515979
 20
655.6172397453397
 30
0.0
  0
SPLINE
  5
24E
330
1F
100
AcDbEntity
  8
0
  6
Continuous
 62
     7
370
    15
100
AcDbSpline
210
0.0
220
0.0
230
1.0
 70
    24
 71
     3
 72
    18
 73
    14
 74
     0
 42
0.000000001
 43
0.00000001
 40
0.0
 40
0.0
 40
0.0
 40
0.0
 40
0.2500000000000058
 40
0.2500000000000058
 40
0.375000000000004
 40
0.375000000000004
 40
0.5000000000000022
 40
0.5000000000000022
 40
0.6250000000000004
 40
0.6250000000000004
 40
0.7499999999999987
 40
0.7499999999999987
 40
1.0
 40
1.0
 40
1.0
 40
1.0
 10
512.3316396515979
 20
655.6172397453397
 30
0.0
 10
512.3303751414885
 20
655.6655294381817
 30
0.0
 10
512.3267275030727
 20
655.8048271293635
 30
0.0
 10
512.3179247885663
 20
656.1409892339897
 30
0.0
 10
512.3144927301385
 20
656.2720542575665
 30
0.0
 10
512.3066594366634
 20
656.5711956665951
 30
0.0
 10
512.3022042708374
 20
656.7413315854074
 30
0.0
 10
512.2925919650485
 20
657.1084107337736
 30
0.0
 10
512.2874357170733
 20
657.3053198997006
 30
0.0
 10
512.2764289304292
 20
657.7256521234498
 30
0.0
 10
512.2705358327202
 20
657.9507004454427
 30
0.0
 10
512.25248726109
 20
658.6399475885132
 30
0.0
 10
512.2395906094392
 20
659.1324508451428
 30
0.0
 10
512.226556364239
 20
659.630208587444
 30
0.0
  0
LINE
  5
24F
330
1F
100
AcDbEntity
  8
0
  6
Continuous
 62
     7
370
    15
100
AcDbLine
 10
512.2265563642
 20
659.6302085874
 30
0.0
 11
510.3600222529
 21
730.9102705247
 31
0.0
  0
LINE
  5
250
330
1F
100
AcDbEntity
  8
0
  6
Continuous
 62
     7
370
    15
100
AcDbLine
 10
635.9000222529
 20
730.9102705247
 30
0.0
 11
634.0334881416
 21
659.6302085874
 31
0.0
  0
LINE
  5
251
330
1F
100
AcDbEntity
  8
0
  6
Continuous
 62
     7
370
    15
100
AcDbLine
 10
655.3139199104
 20
661.556120139
 30
0.0
 11
657.1300222529
 21
730.9102705247
 31
0.0
  0
SPLINE
  5
252
330
1F
100
AcDbEntity
  8
0
  6
Continuous
 62
     7
370
    15
100
AcDbSpline
210
0.0
220
0.0
230
1.0
 70
     8
 71
     3
 72
    18
 73
    14
 74
     0
 42
0.000000001
 43
0.00000001
 40
0.0
 40
0.0
 40
0.0
 40
0.0
 40
0.25
 40
0.25
 40
0.375
 40
0.375
 40
0.5
 40
0.5
 40
0.625
 40
0.625
 40
0.75
 40
0.75
 40
1.0
 40
1.0
 40
1.0
 40
1.0
 10
655.3139199104047
 20
661.5561201390038
 30
0.0
 10
655.3139641837367
 20
661.5578108693463
 30
0.0
 10
655.1367570491338
 20
661.549992672041
 30
0.0
 10
654.6232860192828
 20
661.5251015591971
 30
0.0
 10
654.4091343223193
 20
661.5145233408105
 30
0.0
 10
653.9134155866614
 20
661.4897916508439
 30
0.0
 10
653.630238334378
 20
661.4755608085902
 30
0.0
 10
652.9919737287803
 20
661.443379366056
 30
0.0
 10
652.6394576275329
 20
661.425558243333
 30
0.0
 10
651.8899729459243
 20
661.3876645309443
 30
0.0
 10
651.4902628695554
 20
661.3674533828636
 30
0.0
 10
650.2140678348986
 20
661.3030285868388
 30
0.0
 10
649.29869236984
 20
661.2569631373907
 30
0.0
 10
648.3463065920952
 20
661.2093492178802
 30
0.0
  0
LINE
  5
253
330
1F
100
AcDbEntity
  8
0
  6
Continuous
 62
     7
370
    15
100
AcDbLine
 10
657.1300222529
 20
730.9102705247
 30
0.0
 11
650.1714894507
 21
730.9102705247
 31
0.0
  0
SPLINE
  5
254
330
1F
100
AcDbEntity
  8
0
  6
Continuous
 62
     7
370
    15
100
AcDbSpline
210
0.0
220
0.0
230
1.0
 70
     8
 71
     3
 72
     9
 73
     5
 74
     0
 42
0.000000001
 43
0.00000001
 40
0.0
 40
0.0
 40
0.0
 40
0.0
 40
0.0449880941375388
 40
1.0
 40
1.0
 40
1.0
 40
1.0
 10
491.082299090416
 20
661.5510183354663
 30
0.0
 10
491.0765976930655
 20
661.5512891625029
 30
0.0
 10
490.9498664442824
 20
661.557309133827
 30
0.0
 10
490.9479524667406
 20
661.5567009560355
 30
0.0
 10
490.9461245954006
 20
661.5561201390037
 30
0.0
  0
LINE
  5
255
330
1F
100
AcDbEntity
  8
0
  6
Continuous
 62
     7
370
    15
100
AcDbLine
 10
489.1300222529
 20
730.9102705247
 30
0.0
 11
490.9461245954
 21
661.556120139
 31
0.0
  0
LINE
  5
256
330
1F
100
AcDbEntity
  8
0
  6
Continuous
 62
     7
370
    15
100
AcDbLine
 10
496.0885550551
 20
730.9102705247
 30
0.0
 11
489.1300222529
 21
730.9102705247
 31
0.0
  0
ARC
  5
257
330
1F
100
AcDbEntity
  8
0
  6
Continuous
 62
     7
370
    15
100
AcDbCircle
 10
651.3152906105
 20
661.6608279322
 30
0.0
 40
4.000000000000063
100
AcDbArc
 50
277.5379781287
 51
358.5
  0
SPLINE
  5
258
330
1F
100
AcDbEntity
  8
0
  6
Continuous
 62
     7
370
    15
100
AcDbSpline
210
0.0
220
0.0
230
1.0
 70
     8
 71
     3
 72
    19
 73
    15
 74
     0
 42
0.000000001
 43
0.00000001
 40
0.0
 40
0.0
 40
0.0
 40
0.0
 40
0.0502732299573564
 40
0.1001692848575607
 40
0.1499639306334048
 40
0.199934612140572
 40
0.2503558683878504
 40
0.3749945856732383
 40
0.5001305506155557
 40
0.6247990063343022
 40
0.7499444877267454
 40
0.8333824283083232
 40
0.9163474288522643
 40
1.0
 40
1.0
 40
1.0
 40
1.0
 10
651.8400239551843
 20
657.6953954316147
 30
0.0
 10
651.8380156371086
 20
657.6951296586997
 30
0.0
 10
651.8340140683698
 20
657.6946001068318
 30
0.0
 10
651.8011825430123
 20
657.6902564517619
 30
0.0
 10
651.7486405480356
 20
657.6833089842737
 30
0.0
 10
651.6744786813596
 20
657.6735107325852
 30
0.0
 10
651.5331932593663
 20
657.6548648690758
 30
0.0
 10
651.2765799729277
 20
657.6210676877439
 30
0.0
 10
650.8421509690678
 20
657.5641348595424
 30
0.0
 10
650.3128141701872
 20
657.4952062351013
 30
0.0
 10
649.7702795516718
 20
657.4250896614184
 30
0.0
 10
649.2589193439094
 20
657.3594883098626
 30
0.0
 10
648.8002544974947
 20
657.3009706040791
 30
0.0
 10
648.484189622272
 20
657.260969663692
 30
0.0
 10
648.3255050418077
 20
657.2408866587739
 30
0.0
  0
SPLINE
  5
259
330
1F
100
AcDbEntity
  8
0
  6
Continuous
 62
     7
370
    15
100
AcDbSpline
210
0.0
220
0.0
230
1.0
 70
     8
 71
     3
 72
    19
 73
    15
 74
     0
 42
0.000000001
 43
0.00000001
 40
0.0
 40
0.0
 40
0.0
 40
0.0
 40
0.0503347886925384
 40
0.1002675823748871
 40
0.15004704346979
 40
0.1999241277738186
 40
0.2501483277200833
 40
0.3752179700769172
 40
0.4999642813379756
 40
0.6249976431959593
 40
0.7497406529211923
 40
0.8334240102494824
 40
0.9164158535486214
 40
0.9999999999999999
 40
0.9999999999999999
 40
0.9999999999999999
 40
0.9999999999999999
 10
497.9345394639977
 20
657.2408866587739
 30
0.0
 10
497.8389303981348
 20
657.252977760487
 30
0.0
 10
497.6484758410342
 20
657.2770633992375
 30
0.0
 10
497.3681463323271
 20
657.3126880853287
 30
0.0
 10
497.0939367892307
 20
657.3476548404554
 30
0.0
 10
496.8260742989453
 20
657.3819389677752
 30
0.0
 10
496.4359490697617
 20
657.4320465776589
 30
0.0
 10
495.947322111716
 20
657.4951936663065
 30
0.0
 10
495.4181161838928
 20
657.5641060050554
 30
0.0
 10
494.9836498985979
 20
657.6210432057778
 30
0.0
 10
494.6983105130476
 20
657.6586239298584
 30
0.0
 10
494.5284724192604
 20
657.6810503924805
 30
0.0
 10
494.4366665890947
 20
657.6931922901765
 30
0.0
 10
494.4255823676984
 20
657.6946593123456
 30
0.0
 10
494.420020550621
 20
657.6953954316147
 30
0.0
  0
ARC
  5
25A
330
1F
100
AcDbEntity
  8
0
  6
Continuous
 62
     7
370
    15
100
AcDbCircle
 10
494.9447538953
 20
661.6608279322
 30
0.0
 40
4.000000000000156
100
AcDbArc
 50
181.5
 51
262.4620218713
  0
LINE
  5
25B
330
1F
100
AcDbEntity
  8
0
  6
Continuous
 62
     7
370
    15
100
AcDbLine
 10
633.3300222529
 20
657.5102705247
 30
0.0
 11
512.9300222529
 21
657.5102705247
 31
0.0
  0
LINE
  5
25C
330
1F
100
AcDbEntity
  8
0
  6
Continuous
 62
     7
370
    15
100
AcDbLine
 10
512.8122292636
 20
656.1638904966
 30
0.0
 11
512.9300222529
 21
657.5102705247
 31
0.0
  0
ARC
  5
25D
330
1F
100
AcDbEntity
  8
0
  6
Continuous
 62
     7
370
    15
100
AcDbCircle
 10
512.4137513844
 20
656.1987527937
 30
0.0
 40
0.4000000000000827
100
AcDbArc
 50
270.0
 51
355.0
  0
LINE
  5
25E
330
1F
100
AcDbEntity
  8
0
  6
Continuous
 62
     7
370
    15
100
AcDbLine
 10
512.4137513844
 20
655.7987527937
 30
0.0
 11
512.3475199856
 21
655.7987527937
 31
0.0
  0
LINE
  5
25F
330
1F
100
AcDbEntity
  8
0
  6
Continuous
 62
     7
370
    15
100
AcDbLine
 10
634.0479914681
 20
660.1840682826
 30
0.0
 11
512.2120530377
 21
660.1840682826
 31
0.0
  0
LINE
  5
260
330
1F
100
AcDbEntity
  8
0
  6
Continuous
 62
     7
370
    15
100
AcDbLine
 10
633.9125245202
 20
655.7987527937
 30
0.0
 11
633.8462931214
 21
655.7987527937
 31
0.0
  0
ARC
  5
261
330
1F
100
AcDbEntity
  8
0
  6
Continuous
 62
     7
370
    15
100
AcDbCircle
 10
633.8462931214
 20
656.1987527937
 30
0.0
 40
0.4000000000000827
100
AcDbArc
 50
185.0
 51
270.0
  0
LINE
  5
262
330
1F
100
AcDbEntity
  8
0
  6
Continuous
 62
     7
370
    15
100
AcDbLine
 10
633.3300222529
 20
657.5102705247
 30
0.0
 11
633.4478152422
 21
656.1638904966
 31
0.0
  0
LINE
  5
263
330
1F
100
AcDbEntity
  8
0
  6
Continuous
 62
     7
370
    15
100
AcDbLine
 10
634.0565333744
 20
660.5102705247
 30
0.0
 11
512.2035111314
 21
660.5102705247
 31
0.0
  0
LINE
  5
264
330
1F
100
AcDbEntity
  8
0
  6
Continuous
 62
     7
370
    15
100
AcDbLine
 10
634.1350911391
 20
663.5102705247
 30
0.0
 11
512.1249533667
 21
663.5102705247
 31
0.0
  0
LINE
  5
265
330
1F
100
AcDbEntity
  8
0
  6
Continuous
 62
     7
370
    15
100
AcDbLine
 10
634.3550528803
 20
671.9102705247
 30
0.0
 11
627.6300222529
 21
671.9102705247
 31
0.0
  0
LINE
  5
266
330
1F
100
AcDbEntity
  8
0
  6
Continuous
 62
     7
370
    15
100
AcDbLine
 10
518.6300222529
 20
671.9102705247
 30
0.0
 11
511.9049916255
 21
671.9102705247
 31
0.0
  0
SPLINE
  5
267
330
1F
100
AcDbEntity
  8
0
  6
Continuous
 62
     8
370
    15
100
AcDbSpline
210
0.0
220
0.0
230
1.0
 70
     8
 71
     3
 72
    15
 73
    11
 74
     0
 42
0.000000001
 43
0.00000001
 40
0.0
 40
0.0
 40
0.0
 40
0.0
 40
0.1604028324125701
 40
0.2857870346645852
 40
0.3868349058813636
 40
0.4821508950284611
 40
0.5717364893401639
 40
0.720597376347376
 40
0.865496536019362
 40
0.9999999999999999
 40
0.9999999999999999
 40
0.9999999999999999
 40
0.9999999999999999
 10
497.9137379137102
 20
661.20934921788
 30
0.0
 10
497.3832827710947
 20
661.2358082372289
 30
0.0
 10
496.4381797454778
 20
661.2829498279732
 30
0.0
 10
495.2453788529685
 20
661.3435097524506
 30
0.0
 10
494.3240020325017
 20
661.3899058013944
 30
0.0
 10
493.5741871588417
 20
661.4278280741597
 30
0.0
 10
492.78579738341
 20
661.4678133196699
 30
0.0
 10
492.0292475428594
 20
661.5053624292793
 30
0.0
 10
491.3939147981574
 20
661.5364129240394
 30
0.0
 10
491.1835621386636
 20
661.5462721418527
 30
0.0
 10
491.082299090416
 20
661.5510183354663
 30
0.0
  0
LINE
  5
268
330
1F
100
AcDbEntity
  8
0
  6
Continuous
 62
     7
370
    15
100
AcDbLine
 10
491.0190949732
 20
153.1651841162
 30
0.0
 11
491.077478676
 21
152.5068009154
 31
0.0
  0
LINE
  5
269
330
1F
100
AcDbEntity
  8
0
  6
Continuous
 62
     7
370
    15
100
AcDbLine
 10
655.1825658298
 20
152.5068009154
 30
0.0
 11
655.2409495326
 21
153.1651841162
 31
0.0
  0
LINE
  5
26A
330
1F
100
AcDbEntity
  8
0
  6
Continuous
 62
     7
370
    15
100
AcDbLine
 10
627.6300222529
 20
150.5481465607
 30
0.0
 11
627.6300222529
 21
142.1481465607
 31
0.0
  0
LINE
  5
26B
330
1F
100
AcDbEntity
  8
0
  6
Continuous
 62
     7
370
    15
100
AcDbLine
 10
518.6300222529
 20
142.1481465607
 30
0.0
 11
518.6300222529
 21
150.5481465607
 31
0.0
  0
SPLINE
  5
26C
330
1F
100
AcDbEntity
  8
0
  6
Continuous
 62
     7
370
    15
100
AcDbSpline
210
0.0
220
0.0
230
1.0
 70
     8
 71
     3
 72
     8
 73
     4
 74
     0
 42
0.000000001
 43
0.00000001
 40
0.0
 40
0.0
 40
0.0
 40
0.0
 40
1.0
 40
1.0
 40
1.0
 40
1.0
 10
497.9137379137107
 20
152.8490678675474
 30
0.0
 10
502.056356192432
 20
153.3723707449751
 30
0.0
 10
506.2044739304816
 20
153.8521375932702
 30
0.0
 10
510.3571751176918
 20
154.2882625260699
 30
0.0
  0
ARC
  5
26D
330
1F
100
AcDbEntity
  8
0
  6
Continuous
 62
     7
370
    15
100
AcDbCircle
 10
505.67442375
 20
154.7926743606
 30
0.0
 40
8.000365669740564
100
AcDbArc
 50
165.339239738
 51
194.0601094533
  0
SPLINE
  5
26E
330
1F
100
AcDbEntity
  8
0
  6
Continuous
 62
     7
370
    15
100
AcDbSpline
210
0.0
220
0.0
230
1.0
 70
     8
 71
     3
 72
     8
 73
     4
 74
     0
 42
0.000000001
 43
0.00000001
 40
0.0
 40
0.0
 40
0.0
 40
0.0
 40
1.0
 40
1.0
 40
1.0
 40
1.0
 10
497.9345394639977
 20
156.8175304266534
 30
0.0
 10
502.0188983029077
 20
157.3334738685626
 30
0.0
 10
506.1085674293136
 20
157.8073794268236
 30
0.0
 10
510.202680492427
 20
158.2391467098297
 30
0.0
  0
SPLINE
  5
26F
330
1F
100
AcDbEntity
  8
0
  6
Continuous
 62
     7
370
    15
100
AcDbSpline
210
0.0
220
0.0
230
1.0
 70
     8
 71
     3
 72
    27
 73
    23
 74
     0
 42
0.000000001
 43
0.00000001
 40
0.0
 40
0.0
 40
0.0
 40
0.0
 40
0.0463956735524624
 40
0.0911524384092641
 40
0.1342702432371818
 40
0.1757490439395002
 40
0.2155888039651187
 40
0.2537894947218501
 40
0.2903510961263296
 40
0.3252735973310291
 40
0.3585569976815104
 40
0.3902013079749151
 40
0.4202065521158979
 40
0.4485727693053715
 40
0.4753000169531444
 40
0.5003883745938384
 40
0.5877875904475092
 40
0.6735286643256094
 40
0.7576158283825677
 40
0.8400535632765399
 40
0.9208466125012496
 40
1.0
 40
1.0
 40
1.0
 40
1.0
 10
510.2026804924274
 20
158.2391467098297
 30
0.0
 10
510.196671793197
 20
158.2365027797786
 30
0.0
 10
510.1848666496444
 20
158.2313083154527
 30
0.0
 10
510.1703593587417
 20
158.1987431201347
 30
0.0
 10
510.1583430250376
 20
158.1506943778281
 30
0.0
 10
510.1487858200865
 20
158.0876275287408
 30
0.0
 10
510.1414097172056
 20
158.0121452630737
 30
0.0
 10
510.1360083737276
 20
157.9262164257598
 30
0.0
 10
510.1323691401262
 20
157.831854467846
 30
0.0
 10
510.1302946123666
 20
157.7309292667955
 30
0.0
 10
510.1295984454415
 20
157.6252022309976
 30
0.0
 10
510.1301076108535
 20
157.5163099040599
 30
0.0
 10
510.1316611737139
 20
157.405762853656
 30
0.0
 10
510.1341146529519
 20
157.2949486051651
 30
0.0
 10
510.1373253575558
 20
157.1851201620939
 30
0.0
 10
510.1444947660043
 20
156.9859582723824
 30
0.0
 10
510.1593368127949
 20
156.6765888089466
 30
0.0
 10
510.1868841643004
 20
156.231810323844
 30
0.0
 10
510.2213461814484
 20
155.7613880340388
 30
0.0
 10
510.2617601597894
 20
155.2751747124953
 30
0.0
 10
510.3067376520596
 20
154.7824481505804
 30
0.0
 10
510.3404779232143
 20
154.4518614178227
 30
0.0
 10
510.3571751176735
 20
154.288262526244
 30
0.0
  0
SPLINE
  5
270
330
1F
100
AcDbEntity
  8
0
  6
Continuous
 62
     7
370
    15
100
AcDbSpline
210
0.0
220
0.0
230
1.0
 70
     8
 71
     3
 72
     8
 73
     4
 74
     0
 42
0.000000001
 43
0.00000001
 40
0.0
 40
0.0
 40
0.0
 40
0.0
 40
1.0
 40
1.0
 40
1.0
 40
1.0
 10
648.3255050418071
 20
156.8175304266535
 30
0.0
 10
644.2411461782948
 20
157.3334738716705
 30
0.0
 10
640.1514770893549
 20
157.8073793425822
 30
0.0
 10
636.0573640130359
 20
158.2391467065298
 30
0.0
  0
ARC
  5
271
330
1F
100
AcDbEntity
  8
0
  6
Continuous
 62
     7
370
    15
100
AcDbCircle
 10
640.5856207558
 20
154.7926743606
 30
0.0
 40
8.000365669715043
100
AcDbArc
 50
345.9398905467
 51
14.660760262
  0
SPLINE
  5
272
330
1F
100
AcDbEntity
  8
0
  6
Continuous
 62
     7
370
    15
100
AcDbSpline
210
0.0
220
0.0
230
1.0
 70
     8
 71
     3
 72
     8
 73
     4
 74
     0
 42
0.000000001
 43
0.00000001
 40
0.0
 40
0.0
 40
0.0
 40
0.0
 40
1.0
 40
1.0
 40
1.0
 40
1.0
 10
635.9028693881314
 20
154.2882625262441
 30
0.0
 10
640.0555705753429
 20
153.8521375934442
 30
0.0
 10
644.2036883133937
 20
153.372370745149
 30
0.0
 10
648.3463065921161
 20
152.849067867721
 30
0.0
  0
SPLINE
  5
273
330
1F
100
AcDbEntity
  8
0
  6
Continuous
 62
     7
370
    15
100
AcDbSpline
210
0.0
220
0.0
230
1.0
 70
     8
 71
     3
 72
    25
 73
    21
 74
     0
 42
0.000000001
 43
0.00000001
 40
0.0
 40
0.0
 40
0.0
 40
0.0
 40
0.0429870311966877
 40
0.0864622485155582
 40
0.1304265143056281
 40
0.1748806645603942
 40
0.2198255099644768
 40
0.2652618368445891
 40
0.311190408027782
 40
0.3576119636112835
 40
0.4045272216471426
 40
0.4519368787468849
 40
0.4998416106104217
 40
0.551639868089245
 40
0.6099909129477767
 40
0.6748940038208465
 40
0.7463480234074851
 40
0.8243515420581412
 40
0.9089028543176624
 40
0.9999999999999999
 40
0.9999999999999999
 40
0.9999999999999999
 40
0.9999999999999999
 10
635.9028693881318
 20
154.288262526244
 30
0.0
 10
635.91203613775
 20
154.3770838602335
 30
0.0
 10
635.9304737400104
 20
154.5557352357552
 30
0.0
 10
635.9565717690415
 20
154.8238550171216
 30
0.0
 10
635.9815595095735
 20
155.0923683651603
 30
0.0
 10
636.0051725419111
 20
155.3598937508617
 30
0.0
 10
636.0272891192143
 20
155.6249970094857
 30
0.0
 10
636.0477403755771
 20
155.8861804769646
 30
0.0
 10
636.0663635325907
 20
156.1418949767834
 30
0.0
 10
636.0829866715105
 20
156.3905471036132
 30
0.0
 10
636.0974412828308
 20
156.6305082712747
 30
0.0
 10
636.1095332791133
 20
156.860127750317
 30
0.0
 10
636.1193822563658
 20
157.0828787373231
 30
0.0
 10
636.1265735638242
 20
157.3042714705223
 30
0.0
 10
636.130537857315
 20
157.5258667435936
 30
0.0
 10
636.1303352474304
 20
157.7407056267727
 30
0.0
 10
636.1246425492892
 20
157.9365284074245
 30
0.0
 10
636.1117565800866
 20
158.0972887496106
 30
0.0
 10
636.0906739473072
 20
158.2129478554583
 30
0.0
 10
636.0687397956315
 20
158.2301994551385
 30
0.0
 10
636.0573640133784
 20
158.2391467098297
 30
0.0
  0
LINE
  5
274
330
1F
100
AcDbEntity
  8
0
  6
Continuous
 62
     7
370
    15
100
AcDbLine
 10
496.0885550551
 20
83.1481465607
 30
0.0
 11
497.9137379137
 21
152.8490678675
 31
0.0
  0
SPLINE
  5
275
330
1F
100
AcDbEntity
  8
0
  6
Continuous
 62
     7
370
    15
100
AcDbSpline
210
0.0
220
0.0
230
1.0
 70
     8
 71
     3
 72
     8
 73
     4
 74
     0
 42
0.000000001
 43
0.00000001
 40
0.0
 40
0.0
 40
0.0
 40
0.0
 40
0.0000274193402574
 40
0.0000274193402574
 40
0.0000274193402574
 40
0.0000274193402574
 10
510.3571751176767
 20
154.2882625262151
 30
0.0
 10
510.3590758881749
 20
154.2700837811833
 30
0.0
 10
510.3600222529027
 20
154.2517786478329
 30
0.0
 10
510.3600222529027
 20
154.2334990876613
 30
0.0
  0
LINE
  5
276
330
1F
100
AcDbEntity
  8
0
  6
Continuous
 62
     7
370
    15
100
AcDbLine
 10
510.3600222529
 20
154.2334990877
 30
0.0
 11
510.3600222529
 21
83.1481465607
 31
0.0
  0
LINE
  5
277
330
1F
100
AcDbEntity
  8
0
  6
Continuous
 62
     7
370
    15
100
AcDbLine
 10
510.3600222529
 20
83.1481465607
 30
0.0
 11
496.0885550551
 21
83.1481465607
 31
0.0
  0
LINE
  5
278
330
1F
100
AcDbEntity
  8
0
  6
Continuous
 62
     7
370
    15
100
AcDbLine
 10
648.3463065921
 20
152.8490678675
 30
0.0
 11
650.1714894507
 21
83.1481465607
 31
0.0
  0
LINE
  5
279
330
1F
100
AcDbEntity
  8
0
  6
Continuous
 62
     7
370
    15
100
AcDbLine
 10
650.1714894507
 20
83.1481465607
 30
0.0
 11
635.9000222529
 21
83.1481465607
 31
0.0
  0
LINE
  5
27A
330
1F
100
AcDbEntity
  8
0
  6
Continuous
 62
     7
370
    15
100
AcDbLine
 10
635.9000222529
 20
83.1481465607
 30
0.0
 11
635.9000222529
 21
154.2334990877
 31
0.0
  0
SPLINE
  5
27B
330
1F
100
AcDbEntity
  8
0
  6
Continuous
 62
     7
370
    15
100
AcDbSpline
210
0.0
220
0.0
230
1.0
 70
     8
 71
     3
 72
     8
 73
     4
 74
     0
 42
0.000000001
 43
0.00000001
 40
0.0
 40
0.0
 40
0.0
 40
0.0
 40
0.0000274193402719
 40
0.0000274193402719
 40
0.0000274193402719
 40
0.0000274193402719
 10
635.9000222529028
 20
154.2334990876613
 30
0.0
 10
635.9000222529028
 20
154.2517786478426
 30
0.0
 10
635.9009686176313
 20
154.2700837812027
 30
0.0
 10
635.9028693881316
 20
154.288262526244
 30
0.0
  0
ARC
  5
27C
330
1F
100
AcDbEntity
  8
0
  6
Continuous
 62
     7
370
    15
100
AcDbCircle
 10
573.1300222529
 20
-438.4518534393
 30
0.0
 40
600.0000000000001
100
AcDbArc
 50
95.8159549047
 51
96.0201896873
  0
SPLINE
  5
27D
330
1F
100
AcDbEntity
  8
0
  6
Continuous
 62
     7
370
    15
100
AcDbSpline
210
0.0
220
0.0
230
1.0
 70
    24
 71
     3
 72
     8
 73
     4
 74
     0
 42
0.000000001
 43
0.00000001
 40
0.0
 40
0.0
 40
0.0
 40
0.0
 40
0.0001926431712635
 40
0.0001926431712635
 40
0.0001926431712635
 40
0.0001926431712635
 10
512.3316396515979
 20
158.4411773400874
 30
0.0
 10
512.3305626377789
 20
158.4534876643677
 30
0.0
 10
512.330022252903
 20
158.459664291769
 30
0.0
 10
512.330022252903
 20
158.459664291769
 30
0.0
  0
LINE
  5
27E
330
1F
100
AcDbEntity
  8
0
  6
Continuous
 62
     7
370
    15
100
AcDbLine
 10
512.2265563642
 20
154.428208498
 30
0.0
 11
510.3600222529
 21
154.2334990877
 31
0.0
  0
SPLINE
  5
27F
330
1F
100
AcDbEntity
  8
0
  6
Continuous
 62
     7
370
    15
100
AcDbSpline
210
0.0
220
0.0
230
1.0
 70
    24
 71
     3
 72
    18
 73
    14
 74
     0
 42
0.000000001
 43
0.00000001
 40
0.0
 40
0.0
 40
0.0
 40
0.0
 40
0.2499999999999963
 40
0.2499999999999963
 40
0.3749999999999969
 40
0.3749999999999969
 40
0.4999999999999976
 40
0.4999999999999976
 40
0.6249999999999981
 40
0.6249999999999981
 40
0.7499999999999988
 40
0.7499999999999988
 40
1.0
 40
1.0
 40
1.0
 40
1.0
 10
512.2265563642391
 20
154.4282084979832
 30
0.0
 10
512.2395934814784
 20
154.9260759190258
 30
0.0
 10
512.2523383674027
 20
155.4127834763926
 30
0.0
 10
512.2705308889872
 20
156.1075278464354
 30
0.0
 10
512.2763058757992
 20
156.3280656952369
 30
0.0
 10
512.2872912445491
 20
156.7475800026058
 30
0.0
 10
512.292550858529
 20
156.9484365569919
 30
0.0
 10
512.3021807797104
 20
157.3161884100566
 30
0.0
 10
512.3065505101766
 20
157.4830616841224
 30
0.0
 10
512.3144066219655
 20
157.7830744894034
 30
0.0
 10
512.3179143740548
 20
157.9170301372992
 30
0.0
 10
512.3266781184002
 20
158.2517040315174
 30
0.0
 10
512.3303748609208
 20
158.3928769327956
 30
0.0
 10
512.3316396515979
 20
158.4411773400874
 30
0.0
  0
ARC
  5
280
330
1F
100
AcDbEntity
  8
0
  6
Continuous
 62
     7
370
    15
100
AcDbCircle
 10
573.1300222529
 20
-438.4518534393
 30
0.0
 40
600.0
100
AcDbArc
 50
83.9798103127
 51
84.1840450953
  0
LINE
  5
281
330
1F
100
AcDbEntity
  8
0
  6
Continuous
 62
     7
370
    15
100
AcDbLine
 10
635.9000222529
 20
154.2334990877
 30
0.0
 11
634.0334881416
 21
154.428208498
 31
0.0
  0
SPLINE
  5
282
330
1F
100
AcDbEntity
  8
0
  6
Continuous
 62
     7
370
    15
100
AcDbSpline
210
0.0
220
0.0
230
1.0
 70
    24
 71
     3
 72
     8
 73
     4
 74
     0
 42
0.000000001
 43
0.00000001
 40
0.0
 40
0.0
 40
0.0
 40
0.0
 40
0.0001926431712635
 40
0.0001926431712635
 40
0.0001926431712635
 40
0.0001926431712635
 10
633.9300222529027
 20
158.4596642917689
 30
0.0
 10
633.9300222529027
 20
158.4596642917689
 30
0.0
 10
633.9294818680263
 20
158.4534876643677
 30
0.0
 10
633.9284048542074
 20
158.4411773400874
 30
0.0
  0
SPLINE
  5
283
330
1F
100
AcDbEntity
  8
0
  6
Continuous
 62
     7
370
    15
100
AcDbSpline
210
0.0
220
0.0
230
1.0
 70
    24
 71
     3
 72
    18
 73
    14
 74
     0
 42
0.000000001
 43
0.00000001
 40
0.0
 40
0.0
 40
0.0
 40
0.0
 40
0.2499999999999907
 40
0.2499999999999907
 40
0.3749999999999922
 40
0.3749999999999922
 40
0.4999999999999938
 40
0.4999999999999938
 40
0.6249999999999953
 40
0.6249999999999953
 40
0.7499999999999969
 40
0.7499999999999969
 40
1.0
 40
1.0
 40
1.0
 40
1.0
 10
633.9284048542074
 20
158.4411773400874
 30
0.0
 10
633.9296693643169
 20
158.3928876472454
 30
0.0
 10
633.9333170027329
 20
158.2535899560637
 30
0.0
 10
633.9421197172392
 20
157.9174278514376
 30
0.0
 10
633.9455517756668
 20
157.7863628278608
 30
0.0
 10
633.9533850691416
 20
157.4872214188322
 30
0.0
 10
633.9578402349679
 20
157.31708550002
 30
0.0
 10
633.9674525407568
 20
156.9500063516538
 30
0.0
 10
633.9726087887319
 20
156.7530971857267
 30
0.0
 10
633.9836155753761
 20
156.3327649619776
 30
0.0
 10
633.9895086730851
 20
156.1077166399846
 30
0.0
 10
634.0075572447154
 20
155.4184694969142
 30
0.0
 10
634.0204538963661
 20
154.9259662402845
 30
0.0
 10
634.0334881415663
 20
154.4282084979833
 30
0.0
  0
LINE
  5
284
330
1F
100
AcDbEntity
  8
0
  6
Continuous
 62
     7
370
    15
100
AcDbLine
 10
510.3600222529
 20
83.1481465607
 30
0.0
 11
512.2265563642
 21
154.428208498
 31
0.0
  0
LINE
  5
285
330
1F
100
AcDbEntity
  8
0
  6
Continuous
 62
     7
370
    15
100
AcDbLine
 10
634.0334881416
 20
154.428208498
 30
0.0
 11
635.9000222529
 21
83.1481465607
 31
0.0
  0
LINE
  5
286
330
1F
100
AcDbEntity
  8
0
  6
Continuous
 62
     7
370
    15
100
AcDbLine
 10
490.9461245954
 20
152.5022969464
 30
0.0
 11
489.1300222529
 21
83.1481465607
 31
0.0
  0
SPLINE
  5
287
330
1F
100
AcDbEntity
  8
0
  6
Continuous
 62
     7
370
    15
100
AcDbSpline
210
0.0
220
0.0
230
1.0
 70
     8
 71
     3
 72
    25
 73
    21
 74
     0
 42
0.000000001
 43
0.00000001
 40
0.0
 40
0.0
 40
0.0
 40
0.0
 40
0.0338559215386744
 40
0.0661952801702398
 40
0.0970180464067251
 40
0.1263241938864024
 40
0.1541136996665277
 40
0.1803865446005321
 40
0.2051427138307817
 40
0.2283821974421061
 40
0.2501049913434465
 40
0.3805826394883781
 40
0.4998317582324194
 40
0.5746736271485484
 40
0.6483797017562672
 40
0.7209534328228556
 40
0.7923984381141738
 40
0.8627185125302054
 40
0.931917638972188
 40
1.0
 40
1.0
 40
1.0
 40
1.0
 10
497.9137379137102
 20
152.8490678675471
 30
0.0
 10
497.7851216973277
 20
152.8426423999513
 30
0.0
 10
497.5336505782166
 20
152.8300792910947
 30
0.0
 10
497.1688708832788
 20
152.8118707402249
 30
0.0
 10
496.8246393456769
 20
152.7946564921473
 30
0.0
 10
496.5012664409755
 20
152.77843955225
 30
0.0
 10
496.1986423752437
 20
152.7632101109853
 30
0.0
 10
495.9165797237644
 20
152.7489663105225
 30
0.0
 10
495.6547655679643
 20
152.7357106939225
 30
0.0
 10
495.4127797399279
 20
152.7234421152065
 30
0.0
 10
494.8135549639468
 20
152.6931364194741
 30
0.0
 10
493.9378521959653
 20
152.6490646950395
 30
0.0
 10
493.0329741615644
 20
152.6030803607685
 30
0.0
 10
492.3950116882485
 20
152.5711763147744
 30
0.0
 10
491.9424590285012
 20
152.5488523409635
 30
0.0
 10
491.5741617623707
 20
152.5308475454351
 30
0.0
 10
491.289935389141
 20
152.5170948964879
 30
0.0
 10
491.0910658888645
 20
152.5076931637479
 30
0.0
 10
490.9685489938079
 20
152.5022364303221
 30
0.0
 10
490.9535587470265
 20
152.5022768840849
 30
0.0
 10
490.9461245954006
 20
152.5022969464235
 30
0.0
  0
LINE
  5
288
330
1F
100
AcDbEntity
  8
0
  6
Continuous
 62
     7
370
    15
100
AcDbLine
 10
489.1300222529
 20
83.1481465607
 30
0.0
 11
496.0885550551
 21
83.1481465607
 31
0.0
  0
SPLINE
  5
289
330
1F
100
AcDbEntity
  8
0
  6
Continuous
 62
     7
370
    15
100
AcDbSpline
210
0.0
220
0.0
230
1.0
 70
     8
 71
     3
 72
     9
 73
     5
 74
     0
 42
0.000000001
 43
0.00000001
 40
0.0
 40
0.0
 40
0.0
 40
0.0
 40
0.9550119058598406
 40
1.0
 40
1.0
 40
1.0
 40
1.0
 10
655.3139199104047
 20
152.5022969464234
 30
0.0
 10
655.3120920390646
 20
152.5017161293916
 30
0.0
 10
655.3101780615227
 20
152.5011079516
 30
0.0
 10
655.18344681274
 20
152.5071279229242
 30
0.0
 10
655.1777454153894
 20
152.5073987499608
 30
0.0
  0
LINE
  5
28A
330
1F
100
AcDbEntity
  8
0
  6
Continuous
 62
     7
370
    15
100
AcDbLine
 10
657.1300222529
 20
83.1481465607
 30
0.0
 11
655.3139199104
 21
152.5022969464
 31
0.0
  0
LINE
  5
28B
330
1F
100
AcDbEntity
  8
0
  6
Continuous
 62
     7
370
    15
100
AcDbLine
 10
650.1714894507
 20
83.1481465607
 30
0.0
 11
657.1300222529
 21
83.1481465607
 31
0.0
  0
ARC
  5
28C
330
1F
100
AcDbEntity
  8
0
  6
Continuous
 62
     7
370
    15
100
AcDbCircle
 10
494.9447538953
 20
152.3975891532
 30
0.0
 40
3.99999999999998
100
AcDbArc
 50
97.5379781287
 51
178.5
  0
SPLINE
  5
28D
330
1F
100
AcDbEntity
  8
0
  6
Continuous
 62
     7
370
    15
100
AcDbSpline
210
0.0
220
0.0
230
1.0
 70
     8
 71
     3
 72
    19
 73
    15
 74
     0
 42
0.000000001
 43
0.00000001
 40
0.0
 40
0.0
 40
0.0
 40
0.0
 40
0.050273229947256
 40
0.1001692848424311
 40
0.1499639306182729
 40
0.199934612130344
 40
0.2503558683871918
 40
0.3749945856716849
 40
0.5001305506159409
 40
0.624799006343203
 40
0.7499444877265156
 40
0.83338242830327
 40
0.916347428847219
 40
1.0
 40
1.0
 40
1.0
 40
1.0
 10
494.420020550621
 20
156.3630216538126
 30
0.0
 10
494.422028868697
 20
156.3632874267276
 30
0.0
 10
494.426030437437
 20
156.3638169785956
 30
0.0
 10
494.4588619627954
 20
156.3681606336656
 30
0.0
 10
494.5114039577721
 20
156.3751081011539
 30
0.0
 10
494.5855658244503
 20
156.3849063528425
 30
0.0
 10
494.7268512464203
 20
156.403552216349
 30
0.0
 10
494.983464532835
 20
156.4373493976778
 30
0.0
 10
495.4178935367495
 20
156.4942822258864
 30
0.0
 10
495.9472303356507
 20
156.5632108503304
 30
0.0
 10
496.4897649541405
 20
156.6333274240097
 30
0.0
 10
497.0011251618754
 20
156.6989287755621
 30
0.0
 10
497.4597900082913
 20
156.7574464813456
 30
0.0
 10
497.7758548835238
 20
156.7974474217341
 30
0.0
 10
497.9345394639977
 20
156.8175304266534
 30
0.0
  0
SPLINE
  5
28E
330
1F
100
AcDbEntity
  8
0
  6
Continuous
 62
     7
370
    15
100
AcDbSpline
210
0.0
220
0.0
230
1.0
 70
     8
 71
     3
 72
    19
 73
    15
 74
     0
 42
0.000000001
 43
0.00000001
 40
0.0
 40
0.0
 40
0.0
 40
0.0
 40
0.0503347886925857
 40
0.1002675823748888
 40
0.1500470434698148
 40
0.1999241277738002
 40
0.2501483277200847
 40
0.3752179700589502
 40
0.499964281337401
 40
0.6249976431794794
 40
0.7497406529212455
 40
0.833424010250622
 40
0.9164158535497515
 40
1.0
 40
1.0
 40
1.0
 40
1.0
 10
648.3255050418077
 20
156.8175304266534
 30
0.0
 10
648.4211141076706
 20
156.8054393249402
 30
0.0
 10
648.6115686647713
 20
156.7813536861898
 30
0.0
 10
648.8918981734784
 20
156.7457290000985
 30
0.0
 10
649.1661077165747
 20
156.7107622449718
 30
0.0
 10
649.4339702068597
 20
156.676478117652
 30
0.0
 10
649.8240954360142
 20
156.6263705077722
 30
0.0
 10
650.3127223940437
 20
156.5632234191265
 30
0.0
 10
650.8419283218684
 20
156.4943110803778
 30
0.0
 10
651.2763946072182
 20
156.4373738796479
 30
0.0
 10
651.561733992745
 20
156.3997931555705
 30
0.0
 10
651.7315720865448
 20
156.3773666929467
 30
0.0
 10
651.82337791671
 20
156.3652247952508
 30
0.0
 10
651.8344621381067
 20
156.3637577730817
 30
0.0
 10
651.8400239551843
 20
156.3630216538126
 30
0.0
  0
ARC
  5
28F
330
1F
100
AcDbEntity
  8
0
  6
Continuous
 62
     7
370
    15
100
AcDbCircle
 10
651.3152906105
 20
152.3975891532
 30
0.0
 40
4.00000000000006
100
AcDbArc
 50
1.5
 51
82.4620218713
  0
LINE
  5
290
330
1F
100
AcDbEntity
  8
0
  6
Continuous
 62
     7
370
    15
100
AcDbLine
 10
512.2120530377
 20
153.8743488028
 30
0.0
 11
634.0479914681
 21
153.8743488028
 31
0.0
  0
LINE
  5
291
330
1F
100
AcDbEntity
  8
0
  6
Continuous
 62
     7
370
    15
100
AcDbLine
 10
512.3475199856
 20
158.2596642918
 30
0.0
 11
512.4137513844
 21
158.2596642918
 31
0.0
  0
ARC
  5
292
330
1F
100
AcDbEntity
  8
0
  6
Continuous
 62
     7
370
    15
100
AcDbCircle
 10
512.4137513844
 20
157.8596642918
 30
0.0
 40
0.4000000000000877
100
AcDbArc
 50
5.0
 51
90.0
  0
LINE
  5
293
330
1F
100
AcDbEntity
  8
0
  6
Continuous
 62
     7
370
    15
100
AcDbLine
 10
512.9300222529
 20
156.5481465607
 30
0.0
 11
512.8122292636
 21
157.8945265889
 31
0.0
  0
LINE
  5
294
330
1F
100
AcDbEntity
  8
0
  6
Continuous
 62
     7
370
    15
100
AcDbLine
 10
512.9300222529
 20
156.5481465607
 30
0.0
 11
633.3300222529
 21
156.5481465607
 31
0.0
  0
LINE
  5
295
330
1F
100
AcDbEntity
  8
0
  6
Continuous
 62
     7
370
    15
100
AcDbLine
 10
633.4478152422
 20
157.8945265889
 30
0.0
 11
633.3300222529
 21
156.5481465607
 31
0.0
  0
ARC
  5
296
330
1F
100
AcDbEntity
  8
0
  6
Continuous
 62
     7
370
    15
100
AcDbCircle
 10
633.8462931214
 20
157.8596642918
 30
0.0
 40
0.4000000000000877
100
AcDbArc
 50
90.0
 51
175.0
  0
LINE
  5
297
330
1F
100
AcDbEntity
  8
0
  6
Continuous
 62
     7
370
    15
100
AcDbLine
 10
633.8462931214
 20
158.2596642918
 30
0.0
 11
633.9125245202
 21
158.2596642918
 31
0.0
  0
LINE
  5
298
330
1F
100
AcDbEntity
  8
0
  6
Continuous
 62
     7
370
    15
100
AcDbLine
 10
512.2035111314
 20
153.5481465607
 30
0.0
 11
634.0565333744
 21
153.5481465607
 31
0.0
  0
LINE
  5
299
330
1F
100
AcDbEntity
  8
0
  6
Continuous
 62
     7
370
    15
100
AcDbLine
 10
512.1249533667
 20
150.5481465607
 30
0.0
 11
634.1350911391
 21
150.5481465607
 31
0.0
  0
LINE
  5
29A
330
1F
100
AcDbEntity
  8
0
  6
Continuous
 62
     7
370
    15
100
AcDbLine
 10
633.1300222529
 20
142.1481465607
 30
0.0
 11
634.3550528803
 21
142.1481465607
 31
0.0
  0
LINE
  5
29B
330
1F
100
AcDbEntity
  8
0
  6
Continuous
 62
     7
370
    15
100
AcDbLine
 10
627.6300222529
 20
142.1481465607
 30
0.0
 11
633.1300222529
 21
142.1481465607
 31
0.0
  0
LINE
  5
29C
330
1F
100
AcDbEntity
  8
0
  6
Continuous
 62
     7
370
    15
100
AcDbLine
 10
513.1300222529
 20
142.1481465607
 30
0.0
 11
518.6300222529
 21
142.1481465607
 31
0.0
  0
LINE
  5
29D
330
1F
100
AcDbEntity
  8
0
  6
Continuous
 62
     7
370
    15
100
AcDbLine
 10
511.9049916255
 20
142.1481465607
 30
0.0
 11
513.1300222529
 21
142.1481465607
 31
0.0
  0
SPLINE
  5
29E
330
1F
100
AcDbEntity
  8
0
  6
Continuous
 62
     8
370
    15
100
AcDbSpline
210
0.0
220
0.0
230
1.0
 70
     8
 71
     3
 72
    15
 73
    11
 74
     0
 42
0.000000001
 43
0.00000001
 40
0.0
 40
0.0
 40
0.0
 40
0.0
 40
0.1345034639800712
 40
0.2794026236522042
 40
0.4282635106599145
 40
0.5178491049760804
 40
0.6131650941231618
 40
0.7142129653354458
 40
0.8395971675973944
 40
1.0
 40
1.0
 40
1.0
 40
1.0
 10
655.1777454153894
 20
152.5073987499608
 30
0.0
 10
655.0764823671425
 20
152.5121449435745
 30
0.0
 10
654.8661297076494
 20
152.5220041613877
 30
0.0
 10
654.2307969629483
 20
152.5530546561479
 30
0.0
 10
653.4742471223876
 20
152.5906037657577
 30
0.0
 10
652.6858573469417
 20
152.6305890112681
 30
0.0
 10
651.9360424732783
 20
152.6685112840329
 30
0.0
 10
651.0146656527945
 20
152.7149073329789
 30
0.0
 10
649.8218647602949
 20
152.7754672574558
 30
0.0
 10
648.8767617346778
 20
152.8226088482
 30
0.0
 10
648.3463065920952
 20
152.849067867547
 30
0.0
  0
ENDSEC
  0
SECTION
  2
OBJECTS
  0
DICTIONARY
  5
C
330
0
100
AcDbDictionary
281
     1
  3
ACAD_GROUP
350
D
  3
ACAD_LAYOUT
350
1A
  3
ACAD_MLINESTYLE
350
17
  3
ACAD_PLOTSETTINGS
350
19
  3
ACAD_PLOTSTYLENAME
350
E
  3
ACAD_SCALELIST
350
47
  0
DICTIONARY
  5
D
102
{ACAD_REACTORS
330
C
102
}
330
C
100
AcDbDictionary
281
     1
  0
DICTIONARY
  5
1A
102
{ACAD_REACTORS
330
C
102
}
330
C
100
AcDbDictionary
281
     1
  3
Layout1
350
1E
  3
Layout2
350
26
  3
Model
350
22
  0
DICTIONARY
  5
17
102
{ACAD_REACTORS
330
C
102
}
330
C
100
AcDbDictionary
281
     1
  3
Standard
350
18
  0
DICTIONARY
  5
19
102
{ACAD_REACTORS
330
C
102
}
330
C
100
AcDbDictionary
281
     1
  0
ACDBDICTIONARYWDFLT
  5
E
102
{ACAD_REACTORS
330
C
102
}
330
C
100
AcDbDictionary
281
     1
  3
Normal
350
F
100
AcDbDictionaryWithDefault
340
F
  0
DICTIONARY
  5
47
102
{ACAD_REACTORS
330
C
102
}
330
C
100
AcDbDictionary
281
     1
  3
A0
350
48
  3
A1
350
49
  3
A2
350
4A
  3
A3
350
4B
  3
A4
350
4C
  3
A5
350
4D
  3
A6
350
4E
  3
A7
350
4F
  3
A8
350
50
  3
A9
350
51
  3
B0
350
52
  3
B1
350
53
  3
B2
350
54
  3
B3
350
55
  3
B4
350
56
  3
B5
350
57
  3
B6
350
58
  3
B7
350
59
  3
B8
350
5A
  3
B9
350
5B
  3
C0
350
5C
  3
C1
350
5D
  3
C2
350
5E
  3
C3
350
5F
  3
C4
350
60
  3
C5
350
61
  3
C6
350
62
  3
C7
350
63
  3
C8
350
64
  3
C9
350
65
  3
D0
350
66
  3
D1
350
67
  3
D2
350
68
  0
LAYOUT
  5
1E
102
{ACAD_REACTORS
330
1A
102
}
330
1A
100
AcDbPlotSettings
  1

  2
none_device
  4

  6

 40
0.0
 41
0.0
 42
0.0
 43
0.0
 44
0.0
 45
0.0
 46
0.0
 47
0.0
 48
0.0
 49
0.0
140
0.0
141
0.0
142
1.0
143
1.0
 70
   688
 72
     1
 73
     0
 74
     5
  7

 75
    16
147
1.0
148
0.0
149
0.0
100
AcDbLayout
  1
Layout1
 70
     1
 71
     1
 10
0.0
 20
0.0
 11
420.0
 21
297.0
 12
0.0
 22
0.0
 32
0.0
 14
1.0000000000E+20
 24
1.0000000000E+20
 34
1.0000000000E+20
 15
-1.0000000000E+20
 25
-1.0000000000E+20
 35
-1.0000000000E+20
146
0.0
 13
0.0
 23
0.0
 33
0.0
 16
1.0
 26
0.0
 36
0.0
 17
0.0
 27
1.0
 37
0.0
 76
     0
330
1B
  0
LAYOUT
  5
26
102
{ACAD_REACTORS
330
1A
102
}
330
1A
100
AcDbPlotSettings
  1

  2
none_device
  4

  6

 40
0.0
 41
0.0
 42
0.0
 43
0.0
 44
0.0
 45
0.0
 46
0.0
 47
0.0
 48
0.0
 49
0.0
140
0.0
141
0.0
142
1.0
143
1.0
 70
   688
 72
     1
 73
     0
 74
     5
  7

 75
    16
147
1.0
148
0.0
149
0.0
100
AcDbLayout
  1
Layout2
 70
     1
 71
     2
 10
0.0
 20
0.0
 11
0.0
 21
0.0
 12
0.0
 22
0.0
 32
0.0
 14
0.0
 24
0.0
 34
0.0
 15
0.0
 25
0.0
 35
0.0
146
0.0
 13
0.0
 23
0.0
 33
0.0
 16
1.0
 26
0.0
 36
0.0
 17
0.0
 27
1.0
 37
0.0
 76
     0
330
23
  0
LAYOUT
  5
22
102
{ACAD_REACTORS
330
1A
102
}
330
1A
100
AcDbPlotSettings
  1

  2
none_device
  4
Letter_(8.50_x_11.00_Inches)
  6

 40
6.35
 41
6.35
 42
6.35000508
 43
6.35000508
 44
215.9
 45
279.4
 46
0.0
 47
0.0
 48
0.0
 49
0.0
140
0.0
141
0.0
142
1.0
143
1.0
 70
  1712
 72
     1
 73
     0
 74
     0
  7

 75
     0
147
1.0
148
0.0
149
0.0
100
AcDbLayout
  1
Model
 70
     1
 71
     0
 10
0.0
 20
0.0
 11
1189.0
 21
841.0
 12
0.0
 22
0.0
 32
0.0
 14
0.0
 24
0.0
 34
0.0
 15
1189.0
 25
841.0
 35
0.0
146
0.0
 13
0.0
 23
0.0
 33
0.0
 16
1.0
 26
0.0
 36
0.0
 17
0.0
 27
1.0
 37
0.0
 76
     0
330
1F
331
29
  0
MLINESTYLE
  5
18
102
{ACAD_REACTORS
330
17
102
}
330
17
100
AcDbMlineStyle
  2
Standard
 70
     0
  3

 62
   256
 51
90.0
 52
90.0
 71
     2
 49
0.5
 62
   256
  6
BYLAYER
 49
-0.5
 62
   256
  6
BYLAYER
  0
ACDBPLACEHOLDER
  5
F
102
{ACAD_REACTORS
330
E
102
}
330
E
  0
SCALE
  5
48
102
{ACAD_REACTORS
330
47
102
}
330
47
100
AcDbScale
 70
     0
300
1:1
140
1.0
141
1.0
290
     1
  0
SCALE
  5
49
102
{ACAD_REACTORS
330
47
102
}
330
47
100
AcDbScale
 70
     0
300
1:2
140
1.0
141
2.0
290
     0
  0
SCALE
  5
4A
102
{ACAD_REACTORS
330
47
102
}
330
47
100
AcDbScale
 70
     0
300
1:4
140
1.0
141
4.0
290
     0
  0
SCALE
  5
4B
102
{ACAD_REACTORS
330
47
102
}
330
47
100
AcDbScale
 70
     0
300
1:5
140
1.0
141
5.0
290
     0
  0
SCALE
  5
4C
102
{ACAD_REACTORS
330
47
102
}
330
47
100
AcDbScale
 70
     0
300
1:8
140
1.0
141
8.0
290
     0
  0
SCALE
  5
4D
102
{ACAD_REACTORS
330
47
102
}
330
47
100
AcDbScale
 70
     0
300
1:10
140
1.0
141
10.0
290
     0
  0
SCALE
  5
4E
102
{ACAD_REACTORS
330
47
102
}
330
47
100
AcDbScale
 70
     0
300
1:16
140
1.0
141
16.0
290
     0
  0
SCALE
  5
4F
102
{ACAD_REACTORS
330
47
102
}
330
47
100
AcDbScale
 70
     0
300
1:20
140
1.0
141
20.0
290
     0
  0
SCALE
  5
50
102
{ACAD_REACTORS
330
47
102
}
330
47
100
AcDbScale
 70
     0
300
1:30
140
1.0
141
30.0
290
     0
  0
SCALE
  5
51
102
{ACAD_REACTORS
330
47
102
}
330
47
100
AcDbScale
 70
     0
300
1:40
140
1.0
141
40.0
290
     0
  0
SCALE
  5
52
102
{ACAD_REACTORS
330
47
102
}
330
47
100
AcDbScale
 70
     0
300
1:50
140
1.0
141
50.0
290
     0
  0
SCALE
  5
53
102
{ACAD_REACTORS
330
47
102
}
330
47
100
AcDbScale
 70
     0
300
1:100
140
1.0
141
100.0
290
     0
  0
SCALE
  5
54
102
{ACAD_REACTORS
330
47
102
}
330
47
100
AcDbScale
 70
     0
300
2:1
140
2.0
141
1.0
290
     0
  0
SCALE
  5
55
102
{ACAD_REACTORS
330
47
102
}
330
47
100
AcDbScale
 70
     0
300
4:1
140
4.0
141
1.0
290
     0
  0
SCALE
  5
56
102
{ACAD_REACTORS
330
47
102
}
330
47
100
AcDbScale
 70
     0
300
8:1
140
8.0
141
1.0
290
     0
  0
SCALE
  5
57
102
{ACAD_REACTORS
330
47
102
}
330
47
100
AcDbScale
 70
     0
300
10:1
140
10.0
141
1.0
290
     0
  0
SCALE
  5
58
102
{ACAD_REACTORS
330
47
102
}
330
47
100
AcDbScale
 70
     0
300
100:1
140
100.0
141
1.0
290
     0
  0
SCALE
  5
59
102
{ACAD_REACTORS
330
47
102
}
330
47
100
AcDbScale
 70
     0
300
1/128" = 1'-0"
140
0.0078125
141
12.0
290
     0
  0
SCALE
  5
5A
102
{ACAD_REACTORS
330
47
102
}
330
47
100
AcDbScale
 70
     0
300
1/64" = 1'-0"
140
0.015625
141
12.0
290
     0
  0
SCALE
  5
5B
102
{ACAD_REACTORS
330
47
102
}
330
47
100
AcDbScale
 70
     0
300
1/32" = 1'-0"
140
0.03125
141
12.0
290
     0
  0
SCALE
  5
5C
102
{ACAD_REACTORS
330
47
102
}
330
47
100
AcDbScale
 70
     0
300
1/16" = 1'-0"
140
0.0625
141
12.0
290
     0
  0
SCALE
  5
5D
102
{ACAD_REACTORS
330
47
102
}
330
47
100
AcDbScale
 70
     0
300
3/32" = 1'-0"
140
0.09375
141
12.0
290
     0
  0
SCALE
  5
5E
102
{ACAD_REACTORS
330
47
102
}
330
47
100
AcDbScale
 70
     0
300
1/8" = 1'-0"
140
0.125
141
12.0
290
     0
  0
SCALE
  5
5F
102
{ACAD_REACTORS
330
47
102
}
330
47
100
AcDbScale
 70
     0
300
3/16" = 1'-0"
140
0.1875
141
12.0
290
     0
  0
SCALE
  5
60
102
{ACAD_REACTORS
330
47
102
}
330
47
100
AcDbScale
 70
     0
300
1/4" = 1'-0"
140
0.25
141
12.0
290
     0
  0
SCALE
  5
61
102
{ACAD_REACTORS
330
47
102
}
330
47
100
AcDbScale
 70
     0
300
3/8" = 1'-0"
140
0.375
141
12.0
290
     0
  0
SCALE
  5
62
102
{ACAD_REACTORS
330
47
102
}
330
47
100
AcDbScale
 70
     0
300
1/2" = 1'-0"
140
0.5
141
12.0
290
     0
  0
SCALE
  5
63
102
{ACAD_REACTORS
330
47
102
}
330
47
100
AcDbScale
 70
     0
300
3/4" = 1'-0"
140
0.75
141
12.0
290
     0
  0
SCALE
  5
64
102
{ACAD_REACTORS
330
47
102
}
330
47
100
AcDbScale
 70
     0
300
1" = 1'-0"
140
1.0
141
12.0
290
     0
  0
SCALE
  5
65
102
{ACAD_REACTORS
330
47
102
}
330
47
100
AcDbScale
 70
     0
300
1-1/2" = 1'-0"
140
1.5
141
12.0
290
     0
  0
SCALE
  5
66
102
{ACAD_REACTORS
330
47
102
}
330
47
100
AcDbScale
 70
     0
300
3" = 1'-0"
140
3.0
141
12.0
290
     0
  0
SCALE
  5
67
102
{ACAD_REACTORS
330
47
102
}
330
47
100
AcDbScale
 70
     0
300
6" = 1'-0"
140
6.0
141
12.0
290
     0
  0
SCALE
  5
68
102
{ACAD_REACTORS
330
47
102
}
330
47
100
AcDbScale
 70
     0
300
1'-0" = 1'-0"
140
12.0
141
12.0
290
     0
  0
ENDSEC
  0
EOF
