<?xml version="1.0" encoding="utf-8"?>
<!-- Generator: Adobe Illustrator 15.1.0, SVG Export Plug-In . SVG Version: 6.00 Build 0)  -->
<!DOCTYPE svg PUBLIC "-//W3C//DTD SVG 1.1//EN" "http://www.w3.org/Graphics/SVG/1.1/DTD/svg11.dtd">
<svg version="1.1" id="katman_1" xmlns="http://www.w3.org/2000/svg" xmlns:xlink="http://www.w3.org/1999/xlink" x="0px" y="0px"
	 width="708.66px" height="708.66px" viewBox="0 0 708.66 708.66" enable-background="new 0 0 708.66 708.66" xml:space="preserve">
<g>
	<path fill-rule="evenodd" clip-rule="evenodd" fill="#E30613" d="M385.734,440.963l1.117-3.925
		c51.768-156.254,189.844-17.128,33.645,33.645l-3.925,1.121l-1.68-2.242c-3.826-9.927-17.487-22.625-26.919-26.914L385.734,440.963
		z M332.462,437.038l-1.681-3.365c-74.698-147.75,122.546-146.788,47.099,0l-1.679,3.365l-2.805-0.558
		c-9.699-4.248-27.887-3.253-38.127-0.563L332.462,437.038z M292.09,471.804l-3.925-1.121
		c-156.273-52.065-17.065-189.992,33.646-33.645l1.12,3.925l-2.243,1.122c-11.853,5.889-20.245,16.198-27.475,26.911L292.09,471.804
		z M168.73,195.361h373.445c4.61,0.535,11.044,3.21,14.581,6.169l1.68,1.685l1.681,1.681c2.459,4.885,6.447,8.477,5.61,14.581
		l0.558,2.239v291.583H532.64l0.564-2.244c7.579-60.989-73.766-54.934-109.342-31.4l-3.366,2.242l0.563,2.239
		c2.867,5.068,3.543,21.227,2.239,26.919v2.244H285.362l-0.563-2.244c0.265-8.711-1.175-18.907,2.808-26.919l0.558-2.8l-3.365-2.246
		c-37.005-23.291-117.058-29.642-109.342,31.965l0.563,2.244h-33.645V221.716c-0.064-13.288,10.558-24.526,23.552-26.355H168.73z"/>
</g>
</svg>
