<?xml version="1.0" encoding="UTF-8"?>
<!DOCTYPE svg PUBLIC "-//W3C//DTD SVG 1.1//EN" "http://www.w3.org/Graphics/SVG/1.1/DTD/svg11.dtd">
<!-- Creator: CorelDRAW -->
<svg xmlns="http://www.w3.org/2000/svg" xml:space="preserve" width="90mm" height="18.855mm" style="shape-rendering:geometricPrecision; text-rendering:geometricPrecision; image-rendering:optimizeQuality; fill-rule:evenodd; clip-rule:evenodd"
viewBox="0 0 90 18.855"
 xmlns:xlink="http://www.w3.org/1999/xlink">
 <defs>
  <style type="text/css">
   <![CDATA[
    .fil2 {fill:#E31E24}
    .fil1 {fill:#FEFEFE}
    .fil0 {fill:#2B2A29;fill-rule:nonzero}
   ]]>
  </style>
 </defs>
 <g id="Katman_x0020_1">
  <metadata id="CorelCorpID_0Corel-Layer"/>
  <path class="fil0" d="M0.2637 14.5005l1.0249 0c0.203,0 0.3547,0.0129 0.4543,0.0397 0.0997,0.0258 0.1887,0.0802 0.2675,0.1632 0.0788,0.0831 0.1438,0.1928 0.1964,0.3312 0.0525,0.1375 0.0788,0.2924 0.0788,0.4631 0,0.1854 -0.0323,0.3561 -0.0967,0.511 -0.0651,0.155 -0.1528,0.2712 -0.2633,0.3487 0.1558,0.0701 0.2764,0.1901 0.36,0.3589 0.0841,0.1697 0.1259,0.369 0.1259,0.5977 0,0.1799 -0.0268,0.3552 -0.0812,0.5258 -0.0543,0.1698 -0.1283,0.3063 -0.222,0.4078 -0.0937,0.1014 -0.2095,0.1642 -0.3474,0.1881 -0.086,0.0139 -0.2944,0.0231 -0.6245,0.0268l-0.8727 0 0 -3.962zm0.5182 0.6596l0 0.916 0.339 0c0.2018,0 0.3271,-0.0046 0.3761,-0.0139 0.0884,-0.0156 0.1582,-0.0627 0.2089,-0.1411 0.0508,-0.0784 0.0759,-0.1817 0.0759,-0.3099 0,-0.1227 -0.0215,-0.2224 -0.0651,-0.2989 -0.0442,-0.0766 -0.1093,-0.1227 -0.1952,-0.1384 -0.0513,-0.0092 -0.1988,-0.0138 -0.4423,-0.0138l-0.2973 0zm0 1.5755l0 1.059 0.4787 0c0.1869,0 0.3051,-0.0073 0.3552,-0.0239 0.077,-0.0213 0.1397,-0.0748 0.188,-0.1578 0.0484,-0.0839 0.0729,-0.1965 0.0729,-0.3367 0,-0.119 -0.0192,-0.2195 -0.0561,-0.3026 -0.0377,-0.083 -0.0914,-0.1439 -0.1618,-0.1817 -0.0705,-0.0378 -0.2239,-0.0563 -0.4591,-0.0563l-0.4178 0z"/>
  <path id="1" class="fil0" d="M3.0063 16.5059c0,-0.404 0.0387,-0.7425 0.117,-1.0165 0.0585,-0.2011 0.1379,-0.3828 0.2388,-0.5433 0.1009,-0.1596 0.2113,-0.2786 0.3312,-0.3561 0.16,-0.1052 0.3439,-0.1568 0.5528,-0.1568 0.3779,0 0.6799,0.1808 0.9068,0.5433 0.2268,0.3616 0.3403,0.8653 0.3403,1.5101 0,0.6402 -0.1129,1.1401 -0.338,1.5018 -0.225,0.3606 -0.5258,0.5414 -0.9019,0.5414 -0.3815,0 -0.6847,-0.1798 -0.9097,-0.5387 -0.2251,-0.3597 -0.3373,-0.8551 -0.3373,-1.4852zm0.533 -0.0267c0,0.4483 0.0675,0.7887 0.2012,1.0202 0.1343,0.2316 0.3045,0.3469 0.511,0.3469 0.2059,0 0.3755,-0.1144 0.508,-0.345 0.1319,-0.2297 0.1982,-0.5738 0.1982,-1.0332 0,-0.4538 -0.0645,-0.7924 -0.1928,-1.0165 -0.129,-0.2233 -0.3003,-0.3349 -0.5134,-0.3349 -0.2137,0 -0.3856,0.1135 -0.5164,0.3395 -0.1301,0.226 -0.1958,0.5664 -0.1958,1.023z"/>
  <path id="12" class="fil0" d="M6.1435 18.4625l0 -3.962 0.5176 0 0 3.962 -0.5176 0zm-0.3182 -4.1889l0.3672 -0.797 0.4548 0 0.3618 0.797 -0.3952 0 -0.203 -0.4022 -0.1886 0.4022 -0.397 0z"/>
  <polygon id="123" class="fil0" points="7.9937,18.4625 7.9937,15.1711 7.2332,15.1711 7.2332,14.5005 9.2706,14.5005 9.2706,15.1711 8.5118,15.1711 8.5118,18.4625 "/>
  <polygon id="1234" class="fil0" points="9.8509,18.4625 9.8509,14.5005 10.3685,14.5005 10.3685,18.4625 "/>
  <polygon id="12345" class="fil0" points="11.1245,18.4625 11.1245,14.5005 13.0252,14.5005 13.0252,15.1711 11.6421,15.1711 11.6421,16.0493 12.9291,16.0493 12.9291,16.7163 11.6421,16.7163 11.6421,17.7946 13.0742,17.7946 13.0742,18.4625 "/>
  <path id="123456" class="fil0" d="M13.7769 18.4625l0 -3.962 1.09 0c0.274,0 0.4728,0.036 0.597,0.107 0.1241,0.071 0.2239,0.1974 0.2985,0.3791 0.0746,0.1827 0.1116,0.3902 0.1116,0.6246 0,0.297 -0.0567,0.5433 -0.1695,0.737 -0.1128,0.1928 -0.2824,0.3155 -0.5075,0.3653 0.1123,0.1015 0.2048,0.2122 0.2777,0.333 0.0728,0.1209 0.1707,0.3349 0.2942,0.643l0.3134 0.773 -0.619 0 -0.3743 -0.8625c-0.1331,-0.3081 -0.2239,-0.5018 -0.2728,-0.5821 -0.049,-0.0802 -0.1009,-0.1347 -0.1558,-0.1651 -0.055,-0.0295 -0.1415,-0.0443 -0.2609,-0.0443l-0.1044 0 0 1.654 -0.5182 0zm0.5182 -2.2868l0.3826 0c0.2483,0 0.4036,-0.0157 0.4656,-0.048 0.0615,-0.0322 0.1098,-0.0885 0.1451,-0.1679 0.0346,-0.0793 0.0525,-0.178 0.0525,-0.297 0,-0.1337 -0.0233,-0.2408 -0.0692,-0.3228 -0.046,-0.0821 -0.1111,-0.1338 -0.1952,-0.1559 -0.0418,-0.0083 -0.1677,-0.013 -0.3779,-0.013l-0.4035 0 0 1.0046z"/>
  <path id="1234567" class="fil0" d="M16.4932 17.1738l0.5038 -0.0766c0.0299,0.262 0.0914,0.4539 0.1845,0.5766 0.0925,0.1218 0.2173,0.1836 0.3749,0.1836 0.1665,0 0.2925,-0.0545 0.3767,-0.1642 0.0847,-0.1089 0.1271,-0.2362 0.1271,-0.3819 0,-0.0941 -0.0179,-0.1735 -0.0538,-0.239 -0.0352,-0.0664 -0.0972,-0.1236 -0.1862,-0.1715 -0.0603,-0.0332 -0.1988,-0.0904 -0.4143,-0.1735 -0.2775,-0.106 -0.4721,-0.237 -0.5838,-0.392 -0.1576,-0.2177 -0.2364,-0.4834 -0.2364,-0.797 0,-0.202 0.0371,-0.3902 0.111,-0.5664 0.0741,-0.1753 0.1809,-0.309 0.32,-0.4013 0.1397,-0.0913 0.3074,-0.1374 0.5045,-0.1374 0.3223,0 0.5641,0.1088 0.727,0.3265 0.1624,0.2186 0.2478,0.5092 0.2561,0.8736l-0.5175 0.035c-0.0221,-0.2038 -0.0699,-0.3505 -0.1427,-0.439 -0.0728,-0.0895 -0.1821,-0.1338 -0.3277,-0.1338 -0.1505,0 -0.2686,0.047 -0.3534,0.143 -0.055,0.0609 -0.0824,0.143 -0.0824,0.2454 0,0.094 0.0256,0.1743 0.077,0.2407 0.065,0.0849 0.2238,0.1734 0.4758,0.2648 0.2519,0.0922 0.4381,0.1872 0.5587,0.285 0.1206,0.0987 0.2149,0.2325 0.2836,0.4031 0.068,0.1707 0.102,0.381 0.102,0.631 0,0.2269 -0.0406,0.44 -0.1224,0.6374 -0.0818,0.1983 -0.1969,0.3459 -0.3462,0.4419 -0.1492,0.0968 -0.3354,0.1448 -0.5581,0.1448 -0.3242,0 -0.5731,-0.1153 -0.7468,-0.3468 -0.1737,-0.2316 -0.2776,-0.5692 -0.311,-1.012z"/>
  <polygon id="12345678" class="fil0" points="20.5332,18.4625 20.5332,14.5005 22.4339,14.5005 22.4339,15.1711 21.0508,15.1711 21.0508,16.0493 22.3378,16.0493 22.3378,16.7163 21.0508,16.7163 21.0508,17.7946 22.4829,17.7946 22.4829,18.4625 "/>
  <polygon id="123456789" class="fil0" points="23.7612,18.4625 23.7612,15.1711 23.0007,15.1711 23.0007,14.5005 25.0381,14.5005 25.0381,15.1711 24.2793,15.1711 24.2793,18.4625 "/>
  <path id="12345678910" class="fil0" d="M28.5325 17.0059l0.5013 0.2454c-0.077,0.4326 -0.2047,0.7537 -0.3838,0.964 -0.1784,0.2094 -0.4059,0.3145 -0.6811,0.3145 -0.3403,0 -0.6202,-0.1798 -0.8393,-0.5387 -0.2191,-0.3597 -0.3289,-0.8514 -0.3289,-1.4741 0,-0.6595 0.1104,-1.1715 0.3307,-1.5368 0.2203,-0.3644 0.5098,-0.547 0.8691,-0.547 0.3134,0 0.5683,0.1429 0.7641,0.4298 0.117,0.1688 0.2042,0.4124 0.2627,0.7297l-0.5128 0.1891c-0.0298,-0.2057 -0.0931,-0.3681 -0.1898,-0.4871 -0.0961,-0.1189 -0.2131,-0.178 -0.3504,-0.178 -0.1898,0 -0.3444,0.1052 -0.4627,0.3164 -0.1181,0.2103 -0.1772,0.5517 -0.1772,1.024 0,0.5009 0.0578,0.8579 0.1748,1.07 0.1164,0.2131 0.2681,0.3192 0.4543,0.3192 0.1379,0 0.2561,-0.0673 0.3552,-0.203 0.0991,-0.1346 0.1701,-0.3477 0.2138,-0.6374z"/>
  <path id="1234567891011" class="fil0" d="M29.6358 16.5059c0,-0.404 0.0387,-0.7425 0.117,-1.0165 0.0585,-0.2011 0.1379,-0.3828 0.2388,-0.5433 0.1009,-0.1596 0.2113,-0.2786 0.3312,-0.3561 0.16,-0.1052 0.3439,-0.1568 0.5528,-0.1568 0.3779,0 0.6799,0.1808 0.9068,0.5433 0.2268,0.3616 0.3403,0.8653 0.3403,1.5101 0,0.6402 -0.1129,1.1401 -0.338,1.5018 -0.225,0.3606 -0.5258,0.5414 -0.9019,0.5414 -0.3815,0 -0.6847,-0.1798 -0.9097,-0.5387 -0.2251,-0.3597 -0.3373,-0.8551 -0.3373,-1.4852zm0.533 -0.0267c0,0.4483 0.0675,0.7887 0.2012,1.0202 0.1343,0.2316 0.3045,0.3469 0.511,0.3469 0.2059,0 0.3755,-0.1144 0.508,-0.345 0.1319,-0.2297 0.1982,-0.5738 0.1982,-1.0332 0,-0.4538 -0.0645,-0.7924 -0.1928,-1.0165 -0.129,-0.2233 -0.3003,-0.3349 -0.5134,-0.3349 -0.2137,0 -0.3856,0.1135 -0.5164,0.3395 -0.1301,0.226 -0.1958,0.5664 -0.1958,1.023z"/>
  <polygon id="123456789101112" class="fil0" points="32.7818,18.4625 32.7818,14.5005 33.5567,14.5005 34.0217,17.2033 34.4814,14.5005 35.258,14.5005 35.258,18.4625 34.7775,18.4625 34.7775,15.3436 34.2683,18.4625 33.7698,18.4625 33.2624,15.3436 33.2624,18.4625 "/>
  <path id="12345678910111213" class="fil0" d="M36.0349 18.4625l0 -3.962 0.8304 0c0.3146,0 0.5199,0.0203 0.6154,0.06 0.1469,0.059 0.2704,0.1881 0.3695,0.3874 0.0992,0.1993 0.1487,0.4566 0.1487,0.7712 0,0.2435 -0.0286,0.4483 -0.086,0.6134 -0.0573,0.1661 -0.1295,0.2961 -0.2179,0.3912 -0.0877,0.094 -0.1773,0.1568 -0.268,0.1872 -0.1235,0.0378 -0.3027,0.0572 -0.5372,0.0572l-0.3373 0 0 1.4944 -0.5176 0zm0.5176 -3.2914l0 1.1236 0.2829 0c0.2042,0 0.3409,-0.0203 0.4096,-0.0618 0.0686,-0.0415 0.1223,-0.1061 0.1617,-0.1946 0.0388,-0.0886 0.0585,-0.191 0.0585,-0.3081 0,-0.144 -0.0275,-0.2629 -0.0824,-0.357 -0.0543,-0.0932 -0.1241,-0.1522 -0.2077,-0.1753 -0.0621,-0.0185 -0.1863,-0.0268 -0.3725,-0.0268l-0.2501 0z"/>
  <path id="1234567891011121314" class="fil0" d="M38.5811 16.5059c0,-0.404 0.0387,-0.7425 0.117,-1.0165 0.0585,-0.2011 0.1379,-0.3828 0.2388,-0.5433 0.1009,-0.1596 0.2113,-0.2786 0.3312,-0.3561 0.16,-0.1052 0.3439,-0.1568 0.5528,-0.1568 0.3779,0 0.6799,0.1808 0.9068,0.5433 0.2268,0.3616 0.3403,0.8653 0.3403,1.5101 0,0.6402 -0.1129,1.1401 -0.338,1.5018 -0.225,0.3606 -0.5258,0.5414 -0.9019,0.5414 -0.3815,0 -0.6847,-0.1798 -0.9097,-0.5387 -0.2251,-0.3597 -0.3373,-0.8551 -0.3373,-1.4852zm0.533 -0.0267c0,0.4483 0.0675,0.7887 0.2012,1.0202 0.1343,0.2316 0.3045,0.3469 0.511,0.3469 0.2059,0 0.3755,-0.1144 0.508,-0.345 0.1319,-0.2297 0.1982,-0.5738 0.1982,-1.0332 0,-0.4538 -0.0645,-0.7924 -0.1928,-1.0165 -0.129,-0.2233 -0.3003,-0.3349 -0.5134,-0.3349 -0.2137,0 -0.3856,0.1135 -0.5164,0.3395 -0.1301,0.226 -0.1958,0.5664 -0.1958,1.023z"/>
  <path id="123456789101112131415" class="fil0" d="M41.6031 17.1738l0.5038 -0.0766c0.0299,0.262 0.0914,0.4539 0.1845,0.5766 0.0925,0.1218 0.2173,0.1836 0.3749,0.1836 0.1665,0 0.2925,-0.0545 0.3767,-0.1642 0.0847,-0.1089 0.1271,-0.2362 0.1271,-0.3819 0,-0.0941 -0.0179,-0.1735 -0.0538,-0.239 -0.0352,-0.0664 -0.0972,-0.1236 -0.1862,-0.1715 -0.0603,-0.0332 -0.1988,-0.0904 -0.4143,-0.1735 -0.2775,-0.106 -0.4721,-0.237 -0.5838,-0.392 -0.1576,-0.2177 -0.2364,-0.4834 -0.2364,-0.797 0,-0.202 0.0371,-0.3902 0.111,-0.5664 0.0741,-0.1753 0.1809,-0.309 0.32,-0.4013 0.1397,-0.0913 0.3074,-0.1374 0.5045,-0.1374 0.3223,0 0.5641,0.1088 0.727,0.3265 0.1624,0.2186 0.2478,0.5092 0.2561,0.8736l-0.5175 0.035c-0.0221,-0.2038 -0.0699,-0.3505 -0.1427,-0.439 -0.0728,-0.0895 -0.1821,-0.1338 -0.3277,-0.1338 -0.1505,0 -0.2686,0.047 -0.3534,0.143 -0.055,0.0609 -0.0824,0.143 -0.0824,0.2454 0,0.094 0.0256,0.1743 0.077,0.2407 0.065,0.0849 0.2238,0.1734 0.4758,0.2648 0.2519,0.0922 0.4381,0.1872 0.5587,0.285 0.1206,0.0987 0.2149,0.2325 0.2836,0.4031 0.068,0.1707 0.102,0.381 0.102,0.631 0,0.2269 -0.0406,0.44 -0.1224,0.6374 -0.0818,0.1983 -0.1969,0.3459 -0.3462,0.4419 -0.1492,0.0968 -0.3354,0.1448 -0.5581,0.1448 -0.3242,0 -0.5731,-0.1153 -0.7468,-0.3468 -0.1737,-0.2316 -0.2776,-0.5692 -0.311,-1.012z"/>
  <path id="12345678910111213141516" class="fil0" d="M46.6976 18.4625l-0.5635 0 -0.2239 -0.9003 -1.0249 0 -0.2113 0.9003 -0.5492 0 0.9987 -3.962 0.5474 0 1.0267 3.962zm-0.9533 -1.5673l-0.3534 -1.4704 -0.3463 1.4704 0.6997 0z"/>
  <polygon id="1234567891011121314151617" class="fil0" points="47.2393,18.4625 47.2393,14.5005 47.7431,14.5005 48.7926,17.1461 48.7926,14.5005 49.2737,14.5005 49.2737,18.4625 48.7538,18.4625 47.7204,15.8787 47.7204,18.4625 "/>
  <polygon id="123456789101112131415161718" class="fil0" points="50.66,18.4625 50.66,15.1711 49.8995,15.1711 49.8995,14.5005 51.9369,14.5005 51.9369,15.1711 51.1781,15.1711 51.1781,18.4625 "/>
  <path id="12345678910111213141516171819" class="fil0" d="M52.402 17.1738l0.5038 -0.0766c0.0299,0.262 0.0914,0.4539 0.1845,0.5766 0.0925,0.1218 0.2173,0.1836 0.3749,0.1836 0.1665,0 0.2925,-0.0545 0.3767,-0.1642 0.0847,-0.1089 0.1271,-0.2362 0.1271,-0.3819 0,-0.0941 -0.0179,-0.1735 -0.0538,-0.239 -0.0352,-0.0664 -0.0972,-0.1236 -0.1862,-0.1715 -0.0603,-0.0332 -0.1988,-0.0904 -0.4143,-0.1735 -0.2775,-0.106 -0.4721,-0.237 -0.5838,-0.392 -0.1576,-0.2177 -0.2364,-0.4834 -0.2364,-0.797 0,-0.202 0.0371,-0.3902 0.111,-0.5664 0.0741,-0.1753 0.1809,-0.309 0.32,-0.4013 0.1397,-0.0913 0.3074,-0.1374 0.5045,-0.1374 0.3223,0 0.5641,0.1088 0.727,0.3265 0.1624,0.2186 0.2478,0.5092 0.2561,0.8736l-0.5175 0.035c-0.0221,-0.2038 -0.0699,-0.3505 -0.1427,-0.439 -0.0728,-0.0895 -0.1821,-0.1338 -0.3277,-0.1338 -0.1505,0 -0.2686,0.047 -0.3534,0.143 -0.055,0.0609 -0.0824,0.143 -0.0824,0.2454 0,0.094 0.0256,0.1743 0.077,0.2407 0.065,0.0849 0.2238,0.1734 0.4758,0.2648 0.2519,0.0922 0.4381,0.1872 0.5587,0.285 0.1206,0.0987 0.2149,0.2325 0.2836,0.4031 0.068,0.1707 0.102,0.381 0.102,0.631 0,0.2269 -0.0406,0.44 -0.1224,0.6374 -0.0818,0.1983 -0.1969,0.3459 -0.3462,0.4419 -0.1492,0.0968 -0.3354,0.1448 -0.5581,0.1448 -0.3242,0 -0.5731,-0.1153 -0.7468,-0.3468 -0.1737,-0.2316 -0.2776,-0.5692 -0.311,-1.012z"/>
  <path id="1234567891011121314151617181920" class="fil0" d="M56.442 18.4625l0 -3.962 1.9007 0 0 0.6706 -1.3831 0 0 0.8782 1.287 0 0 0.667 -1.287 0 0 1.0783 1.4321 0 0 0.6679 -1.9497 0zm0.6573 -4.1889l0.2411 -0.8081 0.551 0 -0.4811 0.8081 -0.311 0z"/>
  <polygon id="123456789101112131415161718192021" class="fil0" points="59.107,18.4625 59.107,14.5328 59.6246,14.5328 59.6246,17.7946 60.9117,17.7946 60.9117,18.4625 "/>
  <polygon id="12345678910111213141516171819202122" class="fil0" points="61.5433,18.4625 61.5433,14.5005 63.444,14.5005 63.444,15.1711 62.0609,15.1711 62.0609,16.0493 63.3479,16.0493 63.3479,16.7163 62.0609,16.7163 62.0609,17.7946 63.493,17.7946 63.493,18.4625 "/>
  <path id="1234567891011121314151617181920212223" class="fil0" d="M65.8351 17.0059l0.5013 0.2454c-0.077,0.4326 -0.2047,0.7537 -0.3838,0.964 -0.1784,0.2094 -0.4059,0.3145 -0.6811,0.3145 -0.3403,0 -0.6202,-0.1798 -0.8393,-0.5387 -0.2191,-0.3597 -0.3289,-0.8514 -0.3289,-1.4741 0,-0.6595 0.1104,-1.1715 0.3307,-1.5368 0.2203,-0.3644 0.5098,-0.547 0.8691,-0.547 0.3134,0 0.5683,0.1429 0.7641,0.4298 0.117,0.1688 0.2042,0.4124 0.2627,0.7297l-0.5128 0.1891c-0.0298,-0.2057 -0.0931,-0.3681 -0.1898,-0.4871 -0.0961,-0.1189 -0.2131,-0.178 -0.3504,-0.178 -0.1898,0 -0.3444,0.1052 -0.4627,0.3164 -0.1181,0.2103 -0.1772,0.5517 -0.1772,1.024 0,0.5009 0.0578,0.8579 0.1748,1.07 0.1164,0.2131 0.2681,0.3192 0.4543,0.3192 0.1379,0 0.2561,-0.0673 0.3552,-0.203 0.0991,-0.1346 0.1701,-0.3477 0.2138,-0.6374z"/>
  <polygon id="123456789101112131415161718192021222324" class="fil0" points="67.6201,18.4625 67.6201,15.1711 66.8596,15.1711 66.8596,14.5005 68.897,14.5005 68.897,15.1711 68.1382,15.1711 68.1382,18.4625 "/>
  <path id="12345678910111213141516171819202122232425" class="fil0" d="M69.4947 18.4625l0 -3.962 1.09 0c0.274,0 0.4728,0.036 0.597,0.107 0.1241,0.071 0.2239,0.1974 0.2985,0.3791 0.0746,0.1827 0.1116,0.3902 0.1116,0.6246 0,0.297 -0.0567,0.5433 -0.1695,0.737 -0.1128,0.1928 -0.2824,0.3155 -0.5075,0.3653 0.1123,0.1015 0.2048,0.2122 0.2777,0.333 0.0728,0.1209 0.1707,0.3349 0.2942,0.643l0.3134 0.773 -0.619 0 -0.3743 -0.8625c-0.1331,-0.3081 -0.2239,-0.5018 -0.2728,-0.5821 -0.049,-0.0802 -0.1009,-0.1347 -0.1558,-0.1651 -0.055,-0.0295 -0.1415,-0.0443 -0.2609,-0.0443l-0.1044 0 0 1.654 -0.5182 0zm0.5182 -2.2868l0.3826 0c0.2483,0 0.4036,-0.0157 0.4656,-0.048 0.0615,-0.0322 0.1098,-0.0885 0.1451,-0.1679 0.0346,-0.0793 0.0525,-0.178 0.0525,-0.297 0,-0.1337 -0.0233,-0.2408 -0.0692,-0.3228 -0.046,-0.0821 -0.1111,-0.1338 -0.1952,-0.1559 -0.0418,-0.0083 -0.1677,-0.013 -0.3779,-0.013l-0.4035 0 0 1.0046z"/>
  <path id="1234567891011121314151617181920212223242526" class="fil0" d="M72.2373 16.5059c0,-0.404 0.0387,-0.7425 0.117,-1.0165 0.0585,-0.2011 0.1379,-0.3828 0.2388,-0.5433 0.1009,-0.1596 0.2113,-0.2786 0.3312,-0.3561 0.16,-0.1052 0.3439,-0.1568 0.5528,-0.1568 0.3779,0 0.6799,0.1808 0.9068,0.5433 0.2268,0.3616 0.3403,0.8653 0.3403,1.5101 0,0.6402 -0.1129,1.1401 -0.338,1.5018 -0.225,0.3606 -0.5258,0.5414 -0.9019,0.5414 -0.3815,0 -0.6847,-0.1798 -0.9097,-0.5387 -0.2251,-0.3597 -0.3373,-0.8551 -0.3373,-1.4852zm0.533 -0.0267c0,0.4483 0.0675,0.7887 0.2012,1.0202 0.1343,0.2316 0.3045,0.3469 0.511,0.3469 0.2059,0 0.3755,-0.1144 0.508,-0.345 0.1319,-0.2297 0.1982,-0.5738 0.1982,-1.0332 0,-0.4538 -0.0645,-0.7924 -0.1928,-1.0165 -0.129,-0.2233 -0.3003,-0.3349 -0.5134,-0.3349 -0.2137,0 -0.3856,0.1135 -0.5164,0.3395 -0.1301,0.226 -0.1958,0.5664 -0.1958,1.023z"/>
  <polygon id="123456789101112131415161718192021222324252627" class="fil0" points="75.3954,18.4625 75.3954,14.5005 75.8992,14.5005 76.9487,17.1461 76.9487,14.5005 77.4298,14.5005 77.4298,18.4625 76.9099,18.4625 75.8765,15.8787 75.8765,18.4625 "/>
  <polygon id="12345678910111213141516171819202122232425262728" class="fil0" points="78.2233,18.4625 78.2233,14.5005 78.7409,14.5005 78.7409,18.4625 "/>
  <path id="1234567891011121314151617181920212223242526272829" class="fil0" d="M81.5605 17.9598c0.1265,0.1402 0.265,0.2527 0.4143,0.3348l-0.1905 0.5655c-0.0782,-0.036 -0.1546,-0.0858 -0.2292,-0.1485 -0.0167,-0.0129 -0.1314,-0.1301 -0.3445,-0.3515 -0.1683,0.1135 -0.3539,0.1697 -0.5581,0.1697 -0.394,0 -0.7026,-0.1789 -0.9258,-0.5378 -0.2233,-0.3579 -0.3349,-0.8615 -0.3349,-1.51 0,-0.6476 0.1116,-1.1504 0.3354,-1.5101 0.2239,-0.3589 0.5278,-0.5387 0.9116,-0.5387 0.3796,0 0.6811,0.1798 0.9038,0.5387 0.2226,0.3597 0.3343,0.8625 0.3343,1.5101 0,0.3422 -0.0311,0.6429 -0.0926,0.9021 -0.0472,0.1984 -0.1218,0.3902 -0.2238,0.5757zm-0.4167 -0.4511c0.0668,-0.1209 0.1164,-0.2666 0.1498,-0.4382 0.0329,-0.1707 0.0496,-0.3671 0.0496,-0.5885 0,-0.4585 -0.0651,-0.7998 -0.1958,-1.0258 -0.1308,-0.226 -0.3015,-0.3395 -0.5122,-0.3395 -0.2113,0 -0.382,0.1135 -0.5134,0.3404 -0.1313,0.2269 -0.197,0.5682 -0.197,1.0249 0,0.4621 0.0657,0.809 0.197,1.0387 0.1314,0.2297 0.2967,0.345 0.4973,0.345 0.0746,0 0.1456,-0.0194 0.2119,-0.0572 -0.1051,-0.1061 -0.2119,-0.1891 -0.32,-0.2491l0.1451 -0.4566c0.1702,0.0904 0.3331,0.2251 0.4877,0.4059z"/>
  <path id="123456789101112131415161718192021222324252627282930" class="fil0" d="M82.5415 14.5005l0.5176 0 0 2.1457c0,0.3404 0.0066,0.5617 0.0191,0.6623 0.0221,0.1623 0.0752,0.2924 0.1582,0.3902 0.0836,0.0987 0.1976,0.1476 0.342,0.1476 0.1469,0 0.2579,-0.0461 0.3325,-0.1393 0.0746,-0.0922 0.1194,-0.2066 0.1344,-0.3413 0.0155,-0.1356 0.0226,-0.3598 0.0226,-0.6734l0 -2.1918 0.5176 0 0 2.0811c0,0.476 -0.0137,0.8118 -0.0418,1.0082 -0.028,0.1965 -0.0794,0.3617 -0.1546,0.4973 -0.0752,0.1346 -0.1761,0.2426 -0.3014,0.3228 -0.126,0.0803 -0.2908,0.1199 -0.4937,0.1199 -0.2448,0 -0.4304,-0.0433 -0.557,-0.131 -0.1265,-0.0876 -0.2262,-0.201 -0.2996,-0.3403 -0.0735,-0.1393 -0.1218,-0.286 -0.1451,-0.4391 -0.0341,-0.227 -0.0508,-0.5618 -0.0508,-1.0055l0 -2.1134z"/>
  <polygon id="12345678910111213141516171819202122232425262728293031" class="fil0" points="85.3939,18.4625 85.3939,14.5005 87.2946,14.5005 87.2946,15.1711 85.9115,15.1711 85.9115,16.0493 87.1985,16.0493 87.1985,16.7163 85.9115,16.7163 85.9115,17.7946 87.3436,17.7946 87.3436,18.4625 "/>
  <path id="1234567891011121314151617181920212223242526272829303132" class="fil0" d="M87.9138 17.1738l0.5038 -0.0766c0.0299,0.262 0.0914,0.4539 0.1845,0.5766 0.0925,0.1218 0.2173,0.1836 0.3749,0.1836 0.1665,0 0.2925,-0.0545 0.3767,-0.1642 0.0847,-0.1089 0.1271,-0.2362 0.1271,-0.3819 0,-0.0941 -0.0179,-0.1735 -0.0538,-0.239 -0.0352,-0.0664 -0.0972,-0.1236 -0.1862,-0.1715 -0.0603,-0.0332 -0.1988,-0.0904 -0.4143,-0.1735 -0.2775,-0.106 -0.4721,-0.237 -0.5838,-0.392 -0.1576,-0.2177 -0.2364,-0.4834 -0.2364,-0.797 0,-0.202 0.0371,-0.3902 0.111,-0.5664 0.0741,-0.1753 0.1809,-0.309 0.32,-0.4013 0.1397,-0.0913 0.3074,-0.1374 0.5045,-0.1374 0.3223,0 0.5641,0.1088 0.727,0.3265 0.1624,0.2186 0.2478,0.5092 0.2561,0.8736l-0.5175 0.035c-0.0221,-0.2038 -0.0699,-0.3505 -0.1427,-0.439 -0.0728,-0.0895 -0.1821,-0.1338 -0.3277,-0.1338 -0.1505,0 -0.2686,0.047 -0.3534,0.143 -0.055,0.0609 -0.0824,0.143 -0.0824,0.2454 0,0.094 0.0256,0.1743 0.077,0.2407 0.065,0.0849 0.2238,0.1734 0.4758,0.2648 0.2519,0.0922 0.4381,0.1872 0.5587,0.285 0.1206,0.0987 0.2149,0.2325 0.2836,0.4031 0.068,0.1707 0.102,0.381 0.102,0.631 0,0.2269 -0.0406,0.44 -0.1224,0.6374 -0.0818,0.1983 -0.1969,0.3459 -0.3462,0.4419 -0.1492,0.0968 -0.3354,0.1448 -0.5581,0.1448 -0.3242,0 -0.5731,-0.1153 -0.7468,-0.3468 -0.1737,-0.2316 -0.2776,-0.5692 -0.311,-1.012z"/>
  <g id="_564816808">
   <g>
    <rect id="_564813496" class="fil1" x="0.0349495" y="4.00394" width="14.8706" height="7.1492"/>
    <path id="_564813688" class="fil2" d="M0.9644 0.0004l13.0118 0c0.5119,0 0.9293,0.4175 0.9293,0.9294l0 10.2233 -1.1692 0c0.0242,-0.1079 0.0365,-0.2228 0.0359,-0.3454 0.0036,-0.8964 -0.6661,-1.4071 -1.7908,-1.4283 -0.9795,-0.0182 -1.9528,0.5252 -2.187,0.6652 0.0774,0.2379 0.1194,0.4916 0.1194,0.7553 0,0.1201 -0.0089,0.2379 -0.0258,0.3532l-4.8361 0c-0.0168,-0.1153 -0.0253,-0.2331 -0.0253,-0.3532 0,-0.2684 0.0436,-0.5264 0.1235,-0.768 -0.2266,-0.1362 -1.2058,-0.6861 -2.1914,-0.6681 -1.1245,0.0213 -1.7942,0.5319 -1.7907,1.4283 -0.0004,0.1285 0.0127,0.2488 0.0392,0.361l-1.1723 0 0 -10.2233c0,-0.5119 0.4175,-0.9294 0.9295,-0.9294zm4.3276 9.691c-0.2677,-0.0676 -1.3366,-0.3718 -2.015,-1.0757 -0.7803,-0.8103 -0.8926,-1.6448 -0.2563,-2.2763 0.6315,-0.6363 1.466,-0.5238 2.2763,0.2565 0.708,0.6824 1.0116,1.7605 1.0766,2.02 -0.465,0.234 -0.8451,0.6119 -1.0816,1.0755zm1.4228 -1.2159c-0.1401,-0.2341 -0.6832,-1.2073 -0.6651,-2.187 0.0212,-1.1246 0.5318,-1.7942 1.4282,-1.7908 0.8964,-0.0034 1.4071,0.6662 1.4283,1.7908 0.0181,0.9857 -0.5319,1.965 -0.6678,2.1914 -0.2416,-0.08 -0.4998,-0.1236 -0.7683,-0.1236 -0.2635,0 -0.5174,0.042 -0.7553,0.1192zm1.8639 0.1466c0.0673,-0.2676 0.3717,-1.3367 1.0757,-2.0153 0.8101,-0.7803 1.6447,-0.8927 2.2762,-0.2563 0.6362,0.6314 0.5238,1.4659 -0.2564,2.2762 -0.6825,0.7082 -1.7608,1.0119 -2.0201,1.0767 -0.234,-0.4648 -0.612,-0.8449 -1.0754,-1.0813z"/>
   </g>
   <path id="_564817432" class="fil0" d="M80.5019 11.1529l3.2451 -11.1527 2.9994 0 3.2428 11.1527 -2.9373 0 -0.3441 -1.4757 -2.9372 0 -0.357 1.4757 -2.9117 0zm3.8074 -3.8149l1.8597 0 -0.9191 -3.8614 -0.9406 3.8614zm-8.2437 3.8149l0 -4.1276 -3.3948 -7.0251 3.2814 0 1.5927 3.8021 1.6032 -3.8021 3.194 0 -3.3137 7.0251 0 4.1276 -2.9628 0zm-11.0635 0l3.2452 -11.1527 2.9993 0 3.243 11.1527 -2.9375 0 -0.344 -1.4757 -2.9373 0 -0.357 1.4757 -2.9117 0zm3.8074 -3.8149l1.8599 0 -0.9193 -3.8614 -0.9406 3.8614zm-12.8007 3.8149l0 -11.1527 2.9371 0 0 3.6961 2.6552 -3.6961 3.4395 0 -3.2941 4.1122 3.7196 7.0405 -3.5316 0 -2.2554 -4.4662 -0.7332 0.915 0 3.5512 -2.9371 0zm-9.9762 0l0 -11.1527 2.8112 0 2.5867 5.1874c0.0791,0.1447 0.1645,0.3516 0.2543,0.6204 0.0897,0.2662 0.1839,0.5892 0.2843,0.9692 -0.0256,-0.1964 -0.0427,-0.4136 -0.0555,-0.6514 -0.0129,-0.2378 -0.0193,-0.5246 -0.0193,-0.8633l0 -5.2623 2.824 0 0 11.1527 -2.824 0 -2.5866 -5.1485c-0.0792,-0.1526 -0.1668,-0.3671 -0.2609,-0.6436 -0.0941,-0.2765 -0.1882,-0.5945 -0.2843,-0.9537 0.03,0.1965 0.0491,0.4032 0.062,0.6177 0.0129,0.2145 0.0193,0.5144 0.0193,0.9047l0 5.2234 -2.8112 0zm-4.3559 0l0 -11.1527 3.0185 0 0 11.1527 -3.0185 0zm-6.627 0l0 -8.2139 -2.6551 0 0 -2.9388 8.2174 0 0 2.9388 -2.5995 0 0 8.2139 -2.9628 0zm-8.1646 0l0 -11.1527 2.9629 0 0 8.1908 4.0274 0 0 2.9619 -6.9903 0zm-10.3339 0l3.2451 -11.1527 2.9992 0 3.243 11.1527 -2.9373 0 -0.3441 -1.4757 -2.9373 0 -0.357 1.4757 -2.9116 0zm3.8074 -3.8149l1.8598 0 -0.9193 -3.8614 -0.9405 3.8614z"/>
   <rect id="_564817024" class="fil2" x="0.0103952" y="12.1817" width="90" height="0.700058"/>
  </g>
 </g>
</svg>
